0
SECTION
2
HEADER
9
$INSUNITS
70
4
9
$ACADVER
1
AC1014
9
$HANDSEED
5
FFFF
0
ENDSEC
0
SECTION
2
TABLES
0
TABLE
2
VPORT
5
8
100
AcDbSymbolTable
0
ENDTAB
0
TABLE
2
LTYPE
5
5
100
AcDbSymbolTable
0
LTYPE
5
14
100
AcDbSymbolTableRecord
100
AcDbLinetypeTableRecord
2
BYBLOCK
70
0
0
LTYPE
5
15
100
AcDbSymbolTableRecord
100
AcDbLinetypeTableRecord
2
BYLAYER
70
0
0
ENDTAB
0
TABLE
2
LAYER
5
2
100
AcDbSymbolTable
70
2
0
LAYER
5
50
100
AcDbSymbolTableRecord
100
AcDbLayerTableRecord
2
0
70
0
6
CONTINUOUS
0
ENDTAB
0
TABLE
2
STYLE
5
3
100
AcDbSymbolTable
70
1
0
STYLE
5
11
100
AcDbSymbolTableRecord
100
AcDbTextStyleTableRecord
2
STANDARD
70
0
0
ENDTAB
0
TABLE
2
VIEW
5
6
100
AcDbSymbolTable
70
0
0
ENDTAB
0
TABLE
2
UCS
5
7
100
AcDbSymbolTable
70
0
0
ENDTAB
0
TABLE
2
APPID
5
9
100
AcDbSymbolTable
70
2
0
APPID
5
12
100
AcDbSymbolTableRecord
100
AcDbRegAppTableRecord
2
ACAD
70
0
0
ENDTAB
0
TABLE
2
DIMSTYLE
5
A
100
AcDbSymbolTable
70
1
0
ENDTAB
0
TABLE
2
BLOCK_RECORD
5
1
100
AcDbSymbolTable
70
1
0
BLOCK_RECORD
5
1F
100
AcDbSymbolTableRecord
100
AcDbBlockTableRecord
2
*MODEL_SPACE
0
BLOCK_RECORD
5
1B
100
AcDbSymbolTableRecord
100
AcDbBlockTableRecord
2
*PAPER_SPACE
0
ENDTAB
0
ENDSEC
0
SECTION
2
BLOCKS
0
BLOCK
5
20
100
AcDbEntity
100
AcDbBlockBegin
2
*MODEL_SPACE
0
ENDBLK
5
21
100
AcDbEntity
100
AcDbBlockEnd
0
BLOCK
5
1C
100
AcDbEntity
100
AcDbBlockBegin
2
*PAPER_SPACE
0
ENDBLK
5
1D
100
AcDbEntity
100
AcDbBlockEnd
0
ENDSEC
0
SECTION
2
ENTITIES
0
ARC
5
100
100
AcDbEntity
8
0
100
AcDbCircle
10
119.37200570110001
20
-46.654694298891997
30
0
40
0.50018570111099059
210
0
220
0
230
1
100
AcDbArc
50
180.00019485875518
51
269.99980515362239
0
LINE
5
101
100
AcDbEntity
8
0
100
AcDbLine
10
119.37200400007738
20
-47.154901000000002
30
0
11
128.346204
21
-47.154901000000002
31
0
0
LINE
5
102
100
AcDbEntity
8
0
100
AcDbLine
10
128.346204
20
-47.154901000000002
30
0
11
128.84641999999999
21
-46.654696000000008
31
0
0
LINE
5
103
100
AcDbEntity
8
0
100
AcDbLine
10
128.84641999999999
20
-46.654696000000008
30
0
11
128.84641999999999
21
-36.857396000000001
31
0
0
LINE
5
104
100
AcDbEntity
8
0
100
AcDbLine
10
128.84641999999999
20
-36.857396000000001
30
0
11
128.55900399999999
21
-36.569975999999997
31
0
0
LINE
5
105
100
AcDbEntity
8
0
100
AcDbLine
10
128.55900399999999
20
-36.569975999999997
30
0
11
127.659204
21
-36.569975999999997
31
0
0
ARC
5
106
100
AcDbEntity
8
0
100
AcDbCircle
10
127.6592063471
20
-36.257189652825005
30
0
40
0.31278634718399756
210
0
220
0
230
1
100
AcDbArc
50
180.00116266668192
51
269.99957006140153
0
LINE
5
107
100
AcDbEntity
8
0
100
AcDbLine
10
127.3464199999804
20
-36.257196
30
0
11
127.346484
21
-35.857295999999998
31
0
0
ARC
5
108
100
AcDbEntity
8
0
100
AcDbCircle
10
127.65910475910002
20
-35.857196774885999
30
0
40
0.31262077488700035
210
0
220
0
230
1
100
AcDbArc
50
90.000139124555886
51
180.01818554877391
0
LINE
5
109
100
AcDbEntity
8
0
100
AcDbLine
10
127.65910400000001
20
-35.544575999999921
30
0
11
128.858904
21
-35.544580000000003
31
0
0
ARC
5
110
100
AcDbEntity
8
0
100
AcDbCircle
10
128.85890477710001
20
-36.557495222831008
30
0
40
1.012915222831992
210
0
220
0
230
1
100
AcDbArc
50
-4.3958980229471629e-05
51
90.000043956838638
0
LINE
5
111
100
AcDbEntity
8
0
100
AcDbLine
10
129.87181999993172
20
-36.557496
30
0
11
129.87182000000001
21
-44.330196000000008
31
0
0
LINE
5
112
100
AcDbEntity
8
0
100
AcDbLine
10
129.87182000000001
20
-44.330196000000008
30
0
11
130.61554599999999
21
-44.766475999999997
31
0
0
ARC
5
113
100
AcDbEntity
8
0
100
AcDbCircle
10
132.19761424120003
20
-47.604009058735002
30
0
40
3.2487741964500043
210
0
220
-0
230
1
100
AcDbArc
50
22.614945705514668
51
119.14187811440276
0
ARC
5
114
100
AcDbEntity
8
0
100
AcDbCircle
10
135.64640448439999
20
-46.167795440149
30
0
40
0.48711455648663549
210
0
220
0
230
1
100
AcDbArc
50
202.56773357549523
51
270.34822628703125
0
LINE
5
115
100
AcDbEntity
8
0
100
AcDbLine
10
135.64936499999999
20
-46.654900999999505
30
0
11
137.520904
21
-46.654901000000002
31
0
0
ARC
5
116
100
AcDbEntity
8
0
100
AcDbCircle
10
137.5208507122
20
-44.867966014971003
30
0
40
1.7869349858235448
210
0
220
0
230
1
100
AcDbArc
50
270.00170860499361
51
315.36192994920464
0
LINE
5
117
100
AcDbEntity
8
0
100
AcDbLine
10
138.79236099999306
20
-46.123512999993167
30
0
11
141.63302600000003
21
-43.282847000000004
31
0
0
ARC
5
118
100
AcDbEntity
8
0
100
AcDbCircle
10
140.3481192184
20
-42.018435617716001
30
0
40
1.8026984165553086
210
0
220
0
230
1
100
AcDbArc
50
315.46062300019992
51
359.03131258467727
0
LINE
5
119
100
AcDbEntity
8
0
100
AcDbLine
10
142.15055999999845
20
-42.04891199999998
30
0
11
142.15056000000001
21
7.2057039999999972
31
0
0
ARC
5
120
100
AcDbEntity
8
0
100
AcDbCircle
10
141.150006193
20
7.205607249712001
30
0
40
1.0005538116777426
210
0
220
-0
230
1
100
AcDbArc
50
0.005540314812649055
51
89.367001189492314
0
LINE
5
121
100
AcDbEntity
8
0
100
AcDbLine
10
141.16105999999999
20
8.2060999999996582
30
0
11
138.68630400000001
21
8.2061080000000004
31
0
0
ARC
5
122
100
AcDbEntity
8
0
100
AcDbCircle
10
138.68630400000001
20
9.4561039999999998
30
0
40
1.2499959999999999
210
0
220
-0
230
1
100
AcDbArc
50
90
51
270
0
LINE
5
123
100
AcDbEntity
8
0
100
AcDbLine
10
138.68630400000001
20
10.706100000000001
30
0
11
141.150204
21
10.706100000000001
31
0
0
LINE
5
124
100
AcDbEntity
8
0
100
AcDbLine
10
141.150204
20
10.706100000000001
30
0
11
142.15056000000001
21
11.706403999999999
31
0
0
LINE
5
125
100
AcDbEntity
8
0
100
AcDbLine
10
142.15056000000001
20
11.706403999999999
30
0
11
142.15056000000001
21
42.526803999999998
31
0
0
ARC
5
126
100
AcDbEntity
8
0
100
AcDbCircle
10
140.35147174310001
20
42.526849299840002
30
0
40
1.79908825747032
210
0
220
0
230
1
100
AcDbArc
50
-0.0014426693082959549
51
45.012080334555662
0
LINE
5
127
100
AcDbEntity
8
0
100
AcDbLine
10
141.62335099997361
20
43.799264999973573
30
0
11
138.79471000000001
21
46.627909000000002
31
0
0
ARC
5
128
100
AcDbEntity
8
0
100
AcDbCircle
10
137.5225365524
20
45.355873989190002
30
0
40
1.7990270563571022
210
0
220
-0
230
1
100
AcDbArc
50
44.996882392335863
51
90.012884267207724
0
LINE
5
129
100
AcDbEntity
8
0
100
AcDbLine
10
137.522132
20
47.154900999995569
30
0
11
133.64780400000001
21
47.154901000000002
31
0
0
ARC
5
130
100
AcDbEntity
8
0
100
AcDbCircle
10
133.64779384689999
20
46.65501303848
30
0
40
0.49988796162311105
210
0
220
-0
230
1
100
AcDbArc
50
89.998836279676866
51
157.4194460910976
0
ARC
5
131
100
AcDbEntity
8
0
100
AcDbCircle
10
130.1998715
20
48.089660558399999
30
0
40
3.234597558405008
210
0
220
0
230
1
100
AcDbArc
50
202.59345451405684
51
337.40654548594296
0
ARC
5
132
100
AcDbEntity
8
0
100
AcDbCircle
10
126.7520050761
20
46.655104958540001
30
0
40
0.49980103393440839
210
0
220
-0
230
1
100
AcDbArc
50
22.573285900484578
51
89.743908418114358
0
LINE
5
133
100
AcDbEntity
8
0
100
AcDbLine
10
126.754239
20
47.154900999999434
30
0
11
120.11140400000001
21
47.154901000000002
31
0
0
ARC
5
134
100
AcDbEntity
8
0
100
AcDbCircle
10
120.11139332660001
20
46.654510941540003
30
0
40
0.50039005857383345
210
0
220
-0
230
1
100
AcDbArc
50
89.998777871857087
51
168.42657176620594
0
ARC
5
135
100
AcDbEntity
8
0
100
AcDbCircle
10
116.68178900000001
20
47.356727044789999
30
0
40
3.0003660447910008
210
0
220
0
230
1
100
AcDbArc
50
191.57112395797435
51
348.42887604202554
0
ARC
5
136
100
AcDbEntity
8
0
100
AcDbCircle
10
113.25199071520001
20
46.65436694145
30
0
40
0.50060897351687761
210
0
220
-0
230
1
100
AcDbArc
50
11.585120637443621
51
89.008762231981564
0
LINE
5
137
100
AcDbEntity
8
0
100
AcDbLine
10
113.26065099999991
20
47.154900999994311
30
0
11
95.822604000000013
21
47.154901000000002
31
0
0
ARC
5
138
100
AcDbEntity
8
0
100
AcDbCircle
10
95.822658834890007
20
46.654370594200003
30
0
40
0.50053040880367805
210
0
220
0
230
1
100
AcDbArc
50
90.00627695683967
51
168.41346255699756
0
ARC
5
139
100
AcDbEntity
8
0
100
AcDbCircle
10
92.392939999999996
20
47.356727044789999
30
0
40
3.0003660447910008
210
0
220
0
230
1
100
AcDbArc
50
191.57112395797429
51
348.42887604202548
0
LINE
5
140
100
AcDbEntity
8
0
100
AcDbLine
10
89.453551999999462
20
46.754900999999897
30
0
11
88.963403999999997
21
47.154901000000002
31
0
0
LINE
5
141
100
AcDbEntity
8
0
100
AcDbLine
10
88.963403999999997
20
47.154901000000002
30
0
11
51.054603999999998
21
47.154901000000002
31
0
0
ARC
5
142
100
AcDbEntity
8
0
100
AcDbCircle
10
51.054616403209998
20
46.654496141030002
30
0
40
0.50040485912371568
210
0
220
0
230
1
100
AcDbArc
50
90.001420153247025
51
168.42518899352913
0
ARC
5
143
100
AcDbEntity
8
0
100
AcDbCircle
10
47.625450478929999
20
47.353461624050006
30
0
40
2.9992713404049991
210
0
220
0
230
1
100
AcDbArc
50
226.32439269874394
51
348.48826221390755
0
ARC
5
144
100
AcDbEntity
8
0
100
AcDbCircle
10
45.209108181070008
20
44.822479491700008
30
0
40
0.49995441116960188
210
0
220
-0
230
1
100
AcDbArc
50
46.345617895648154
51
118.98119525081665
0
ARC
5
145
100
AcDbEntity
8
0
100
AcDbCircle
10
43.400502832130002
20
48.091217740480005
30
0
40
3.2357789126530023
210
0
220
0
230
1
100
AcDbArc
50
202.61461650567242
51
298.95201803381747
0
ARC
5
146
100
AcDbEntity
8
0
100
AcDbCircle
10
39.952005076150002
20
46.655104958540001
30
0
40
0.49980103388668262
210
0
220
-0
230
1
100
AcDbArc
50
22.573285902684411
51
89.743908423845582
0
LINE
5
147
100
AcDbEntity
8
0
100
AcDbLine
10
39.954239000000001
20
47.154900999999654
30
0
11
-39.952196000000001
21
47.154901000000002
31
0
0
ARC
5
148
100
AcDbEntity
8
0
100
AcDbCircle
10
-39.952212812291002
20
46.655018523600006
30
0
40
0.49988247668271935
210
0
220
-0
230
1
100
AcDbArc
50
89.998073000428249
51
157.41986554559119
0
ARC
5
149
100
AcDbEntity
8
0
100
AcDbCircle
10
-43.400735237010004
20
48.09114609128001
30
0
40
3.2357258884109976
210
0
220
0
230
1
100
AcDbArc
50
241.04983836459073
51
337.38636676102658
0
ARC
5
150
100
AcDbEntity
8
0
100
AcDbCircle
10
-45.209204466299006
20
44.822422428590009
30
0
40
0.49992877790864021
210
0
220
-0
230
1
100
AcDbArc
50
61.019629460003685
51
133.65444698421533
0
ARC
5
151
100
AcDbEntity
8
0
100
AcDbCircle
10
-47.625484424424009
20
47.353352561329999
30
0
40
2.9992163139399963
210
0
220
0
230
1
100
AcDbArc
50
191.50982562551141
51
313.67542096674816
0
LINE
5
152
100
AcDbEntity
8
0
100
AcDbLine
10
-50.564388000001983
20
46.754900999999606
30
0
11
-51.054595999999997
21
47.154901000000002
31
0
0
LINE
5
153
100
AcDbEntity
8
0
100
AcDbLine
10
-51.054595999999997
20
47.154901000000002
30
0
11
-88.963296
21
47.154901000000002
31
0
0
ARC
5
154
100
AcDbEntity
8
0
100
AcDbCircle
10
-88.963203521851995
20
46.654348973159998
30
0
40
0.50055203538278259
210
0
220
0
230
1
100
AcDbArc
50
90.010585528044004
51
168.41144375199789
0
ARC
5
155
100
AcDbEntity
8
0
100
AcDbCircle
10
-92.392939999999996
20
47.356727044789999
30
0
40
3.0003660447910008
210
0
220
0
230
1
100
AcDbArc
50
191.57112395797435
51
348.42887604202559
0
ARC
5
156
100
AcDbEntity
8
0
100
AcDbCircle
10
-95.822611872533997
20
46.654462162070004
30
0
40
0.50046601865773865
210
0
220
-0
230
1
100
AcDbArc
50
11.577347782655524
51
89.402850779335637
0
LINE
5
157
100
AcDbEntity
8
0
100
AcDbLine
10
-95.817396000000059
20
47.154900999995377
30
0
11
-113.252196
21
47.154901000000002
31
0
0
ARC
5
158
100
AcDbEntity
8
0
100
AcDbCircle
10
-113.25216369367
20
46.654484005070003
30
0
40
0.50041699597282674
210
0
220
0
230
1
100
AcDbArc
50
90.003698947830841
51
168.42405523925277
0
ARC
5
159
100
AcDbEntity
8
0
100
AcDbCircle
10
-116.68178949999999
20
47.356725181130003
30
0
40
3.0003651811320076
210
0
220
0
230
1
100
AcDbArc
50
191.57109100752075
51
348.42890899247931
0
ARC
5
160
100
AcDbEntity
8
0
100
AcDbCircle
10
-120.11139275258002
20
46.654511644910002
30
0
40
0.50038935509554416
210
0
220
-0
230
1
100
AcDbArc
50
11.573362520022247
51
90.000371837365094
0
LINE
5
161
100
AcDbEntity
8
0
100
AcDbLine
10
-120.111396
20
47.154900999995462
30
0
11
-126.752196
21
47.154901000000002
31
0
0
ARC
5
162
100
AcDbEntity
8
0
100
AcDbCircle
10
-126.75220615301001
20
46.65501303848
30
0
40
0.49988796162310922
210
0
220
-0
230
1
100
AcDbArc
50
89.998836289993747
51
157.41944609505887
0
ARC
5
163
100
AcDbEntity
8
0
100
AcDbCircle
10
-130.20012850000001
20
48.089660558399999
30
0
40
3.234597558405008
210
0
220
0
230
1
100
AcDbArc
50
202.59345451405684
51
337.4065454859433
0
ARC
5
164
100
AcDbEntity
8
0
100
AcDbCircle
10
-133.64799492384003
20
46.655104958540001
30
0
40
0.49980103387901659
210
0
220
-0
230
1
100
AcDbArc
50
22.573285903123544
51
89.74390842498758
0
LINE
5
165
100
AcDbEntity
8
0
100
AcDbLine
10
-133.64576099999999
20
47.154900999999697
30
0
11
-137.522436
21
47.154901000000002
31
0
0
ARC
5
166
100
AcDbEntity
8
0
100
AcDbCircle
10
-137.52243565164002
20
45.355635075210003
30
0
40
1.7992659247900349
210
0
220
0
230
1
100
AcDbArc
50
90.000011093166435
51
135.00000953756384
0
LINE
5
167
100
AcDbEntity
8
0
100
AcDbLine
10
-138.79470899999552
20
46.627907999995514
30
0
11
-141.62335200000001
21
43.799264999999998
31
0
0
ARC
5
168
100
AcDbEntity
8
0
100
AcDbCircle
10
-140.35128255997
20
42.526771882030005
30
0
40
1.7992774648561656
210
0
220
0
230
1
100
AcDbArc
50
134.99046006649226
51
180.0095175309485
0
LINE
5
169
100
AcDbEntity
8
0
100
AcDbLine
10
-142.15056000000004
20
42.526473000000003
30
0
11
-142.15056000000001
21
11.705465999999998
31
0
0
ARC
5
170
100
AcDbEntity
8
0
100
AcDbCircle
10
-141.15019030490001
20
11.705466695089999
30
0
40
1.0003696951002468
210
0
220
0
230
1
100
AcDbArc
50
180.00003980819764
51
270.00001746302706
0
LINE
5
171
100
AcDbEntity
8
0
100
AcDbLine
10
-141.15019000000001
20
10.705096999994046
30
0
11
-138.75436000000002
21
10.705097000000002
31
0
0
ARC
5
172
100
AcDbEntity
8
0
100
AcDbCircle
10
-138.75436000000002
20
9.4550970000000021
30
0
40
1.25
210
0
220
0
230
1
100
AcDbArc
50
-90
51
90
0
LINE
5
173
100
AcDbEntity
8
0
100
AcDbLine
10
-138.75436000000002
20
8.2050970000000021
30
0
11
-141.15019599999999
21
8.2050970000000021
31
0
0
ARC
5
174
100
AcDbEntity
8
0
100
AcDbCircle
10
-141.15019713333001
20
7.2047341333319999
30
0
40
1.0003628666686428
210
0
220
-0
230
1
100
AcDbArc
50
89.999935088527479
51
180.00000763638363
0
LINE
5
175
100
AcDbEntity
8
0
100
AcDbLine
10
-142.15055999999902
20
7.2047340000000002
30
0
11
-142.15056000000001
21
-42.017291999999998
31
0
0
ARC
5
176
100
AcDbEntity
8
0
100
AcDbCircle
10
-140.35128943055
20
-42.017294727752997
30
0
40
1.7992705694520943
210
0
220
0
230
1
100
AcDbArc
50
179.999913141381
51
225.00003834193524
0
LINE
5
177
100
AcDbEntity
8
0
100
AcDbLine
10
-141.62356499999942
20
-43.289571999999396
30
0
11
-138.79470800000001
21
-46.118428999999999
31
0
0
ARC
5
178
100
AcDbEntity
8
0
100
AcDbCircle
10
-137.52244806792001
20
-44.846178222317008
30
0
40
1.7992407776868564
210
0
220
0
230
1
100
AcDbArc
50
224.99979386673013
51
270.00006585171388
0
LINE
5
179
100
AcDbEntity
8
0
100
AcDbLine
10
-137.522446
20
-46.645418999999819
30
0
11
-133.64849599999999
21
-46.645418999999997
31
0
0
ARC
5
180
100
AcDbEntity
8
0
100
AcDbCircle
10
-133.64854173482999
20
-46.145358018117008
30
0
40
0.50006098397441001
210
0
220
0
230
1
100
AcDbArc
50
270.00524018634354
51
337.41292091435366
0
ARC
5
181
100
AcDbEntity
8
0
100
AcDbCircle
10
-130.20013
20
-47.580269934088008
30
0
40
3.2349779340880009
210
0
220
-0
230
1
100
AcDbArc
50
22.593439919363782
51
157.40656008063644
0
ARC
5
182
100
AcDbEntity
8
0
100
AcDbCircle
10
-126.75179659146002
20
-46.145498133944997
30
0
40
0.49993485873198545
210
0
220
0
230
1
100
AcDbArc
50
202.57570045070824
51
269.57132090568683
0
LINE
5
183
100
AcDbEntity
8
0
100
AcDbLine
10
-126.75553700000002
20
-46.64541900000016
30
0
11
-108.20509600000001
21
-46.645418999999997
31
0
0
ARC
5
184
100
AcDbEntity
8
0
100
AcDbCircle
10
-108.20512502918
20
-46.144979057717002
30
0
40
0.50043994312494555
210
0
220
0
230
1
100
AcDbArc
50
270.00332357462588
51
348.42191156546119
0
ARC
5
185
100
AcDbEntity
8
0
100
AcDbCircle
10
-104.77548
20
-46.847243793876999
30
0
40
3.0003657938770067
210
0
220
-0
230
1
100
AcDbArc
50
11.571100555692386
51
168.42889944430738
0
ARC
5
186
100
AcDbEntity
8
0
100
AcDbCircle
10
-101.34578130919002
20
-46.144957487016001
30
0
40
0.500496842261689
210
0
220
0
230
1
100
AcDbArc
50
191.5792746210827
51
269.31921987531979
0
LINE
5
187
100
AcDbEntity
8
0
100
AcDbLine
10
-101.35172799999999
20
-46.645419000000402
30
0
11
-51.054096000000008
21
-46.645418999999997
31
0
0
ARC
5
188
100
AcDbEntity
8
0
100
AcDbCircle
10
-51.054205890106999
20
-46.144829695265997
30
0
40
0.50058931679561558
210
0
220
0
230
1
100
AcDbArc
50
270.01257765433689
51
348.40796326522172
0
ARC
5
189
100
AcDbEntity
8
0
100
AcDbCircle
10
-47.624973059886997
20
-46.843716858991009
30
0
40
2.9991370107729964
210
0
220
-0
230
1
100
AcDbArc
50
46.331541289152732
51
168.49286246116509
0
ARC
5
190
100
AcDbEntity
8
0
100
AcDbCircle
10
-45.209086930094003
20
-44.312642121198998
30
0
40
0.49984073169864707
210
0
220
0
230
1
100
AcDbArc
50
226.34787951893034
51
298.98549718070768
0
ARC
5
191
100
AcDbEntity
8
0
100
AcDbCircle
10
-43.400788595310004
20
-47.581484742832998
30
0
40
3.2358353426969999
210
0
220
-0
230
1
100
AcDbArc
50
22.610210656497326
51
118.94570311469771
0
ARC
5
192
100
AcDbEntity
8
0
100
AcDbCircle
10
-39.952095885078002
20
-46.145595262218997
30
0
40
0.49983873611592688
210
0
220
0
230
1
100
AcDbArc
50
202.56958956286041
51
269.55614071930836
0
LINE
5
193
100
AcDbEntity
8
0
100
AcDbLine
10
-39.955967999999999
20
-46.645418999999691
30
0
11
6.0959039999999964
21
-46.645418999999997
31
0
0
ARC
5
194
100
AcDbEntity
8
0
100
AcDbCircle
10
6.0957941098930002
20
-46.144829695265997
30
0
40
0.50058931679561558
210
0
220
0
230
1
100
AcDbArc
50
270.01257765433752
51
348.40796326522184
0
ARC
5
195
100
AcDbEntity
8
0
100
AcDbCircle
10
9.5255609999999997
20
-46.847243793876999
30
0
40
3.0003657938770001
210
0
220
-0
230
1
100
AcDbArc
50
11.57110055569267
51
168.42889944430738
0
ARC
5
196
100
AcDbEntity
8
0
100
AcDbCircle
10
12.95520461073
20
-46.144994561653007
30
0
40
0.50043544206008939
210
0
220
0
230
1
100
AcDbArc
50
191.57638207370923
51
269.62004333358328
0
LINE
5
197
100
AcDbEntity
8
0
100
AcDbLine
10
12.951886000000004
20
-46.645418999999706
30
0
11
39.95180400000001
21
-46.645418999999997
31
0
0
ARC
5
198
100
AcDbEntity
8
0
100
AcDbCircle
10
39.951765227629998
20
-46.145463525966008
30
0
40
0.49995547553742126
210
0
220
0
230
1
100
AcDbArc
50
270.00444338200958
51
337.41962129959103
0
ARC
5
199
100
AcDbEntity
8
0
100
AcDbCircle
10
43.400655672719999
20
-47.581844259104003
30
0
40
3.2360899619989967
210
0
220
-0
230
1
100
AcDbArc
50
61.044044609665775
51
157.38477144980774
0
ARC
5
200
100
AcDbEntity
8
0
100
AcDbCircle
10
45.209661865729998
20
-44.312807043241008
30
0
40
0.50009900458169876
210
0
220
0
230
1
100
AcDbArc
50
241.02068729336096
51
313.64179485008066
0
ARC
5
201
100
AcDbEntity
8
0
100
AcDbCircle
10
47.626005725790002
20
-46.844001306818008
30
0
40
2.9992813050850002
210
0
220
-0
230
1
100
AcDbArc
50
11.512121730143159
51
133.67493023272991
0
ARC
5
202
100
AcDbEntity
8
0
100
AcDbCircle
10
51.055204610730001
20
-46.144994561653007
30
0
40
0.50043544206433477
210
0
220
0
230
1
100
AcDbArc
50
191.5763820737094
51
269.62004333358385
0
LINE
5
203
100
AcDbEntity
8
0
100
AcDbLine
10
51.05188600000001
20
-46.645418999999706
30
0
11
101.34580400000002
21
-46.645418999999997
31
0
0
ARC
5
204
100
AcDbEntity
8
0
100
AcDbCircle
10
101.34573075669999
20
-46.144851320583001
30
0
40
0.50056768477548941
210
0
220
0
230
1
100
AcDbArc
50
270.00838354554537
51
348.40998216744697
0
ARC
5
205
100
AcDbEntity
8
0
100
AcDbCircle
10
104.77548
20
-46.847243793876999
30
0
40
3.000365793877009
210
0
220
-0
230
1
100
AcDbArc
50
11.57110055569264
51
168.42889944430735
0
LINE
5
206
100
AcDbEntity
8
0
100
AcDbLine
10
107.7148679999997
20
-46.245419000000055
30
0
11
108.205089
21
-46.645418999999997
31
0
0
LINE
5
207
100
AcDbEntity
8
0
100
AcDbLine
10
108.205089
20
-46.645418999999997
30
0
11
117.359089
21
-46.645696000000001
31
0
0
LINE
5
208
100
AcDbEntity
8
0
100
AcDbLine
10
117.359089
20
-46.645696000000001
30
0
11
117.84641999999999
21
-46.158396000000003
31
0
0
LINE
5
209
100
AcDbEntity
8
0
100
AcDbLine
10
117.84641999999999
20
-46.158396000000003
30
0
11
117.84641999999999
21
-36.549275000000002
31
0
0
ARC
5
210
100
AcDbEntity
8
0
100
AcDbCircle
10
118.85960353430001
20
-36.557795359667999
30
0
40
1.013219359668001
210
0
220
-0
230
1
100
AcDbArc
50
89.999973665480283
51
179.51818291070018
0
LINE
5
211
100
AcDbEntity
8
0
100
AcDbLine
10
118.85960400000002
20
-35.544576000000106
30
0
11
120.05900400000002
21
-35.544580000000003
31
0
0
ARC
5
212
100
AcDbEntity
8
0
100
AcDbCircle
10
120.0590029249
20
-35.85739707501601
30
0
40
0.31281707501799233
210
0
220
-0
230
1
100
AcDbArc
50
0.0001968998986132948
51
89.999803083979756
0
LINE
5
213
100
AcDbEntity
8
0
100
AcDbLine
10
120.37181999991616
20
-35.857396000000001
30
0
11
120.37182000000001
21
-36.263424000000001
31
0
0
ARC
5
214
100
AcDbEntity
8
0
100
AcDbCircle
10
120.0589073837
20
-36.256997395860999
30
0
40
0.3129786041569983
210
0
220
0
230
1
100
AcDbArc
50
269.99938055916016
51
358.82342380876196
0
LINE
5
215
100
AcDbEntity
8
0
100
AcDbLine
10
120.058904
20
-36.569975999999706
30
0
11
119.15890400000002
21
-36.569975999999997
31
0
0
LINE
5
216
100
AcDbEntity
8
0
100
AcDbLine
10
119.15890400000002
20
-36.569975999999997
30
0
11
118.87182000000001
21
-36.856996000000002
31
0
0
LINE
5
217
100
AcDbEntity
8
0
100
AcDbLine
10
118.87182000000001
20
-36.856996000000002
30
0
11
118.87181999999191
21
-46.654696000000008
31
0
0
ENDSEC
0
SECTION
2
OBJECTS
0
DICTIONARY
5
C
100
AcDbDictionary
3
ACAD_GROUP
350
D
3
ACAD_MLINESTYLE
350
17
0
DICTIONARY
5
D
100
AcDbDictionary
0
DICTIONARY
5
1A
330
C
100
AcDbDictionary
0
DICTIONARY
5
17
100
AcDbDictionary
0
ENDSEC
0
EOF
