<?xml version="1.0" standalone="no"?>
 <!DOCTYPE svg PUBLIC "-//W3C//DTD SVG 1.1//EN" 
 "http://www.w3.org/Graphics/SVG/1.1/DTD/svg11.dtd"> 
<svg
  xmlns:svg="http://www.w3.org/2000/svg"
  xmlns="http://www.w3.org/2000/svg"
  xmlns:xlink="http://www.w3.org/1999/xlink"
  version="1.1"
  width="349.9866mm" height="149.9870mm" viewBox="0.0000 0.0000 349.9866 149.9870">
<title>SVG Image created as neo60core_rp2040-Edge_Cuts.svg date 2025/05/31 23:41:50 </title>
  <desc>Image generated by PCBNEW </desc>
<g style="fill:#000000; fill-opacity:1.0000;stroke:#000000; stroke-opacity:1.0000;
stroke-linecap:round; stroke-linejoin:round;"
 transform="translate(0 0) scale(1 1)">
</g>
<g style="fill:none; 
stroke:#000000; stroke-width:0.1500; stroke-opacity:1; 
stroke-linecap:round; stroke-linejoin:round;">
<path d="M230.0000 106.0000
L338.0000 106.0000
L338.0000 138.0000
L230.0000 138.0000
L230.0000 106.0000
" />
</g>
<g style="fill:none; 
stroke:#000000; stroke-width:0.1500; stroke-opacity:1; 
stroke-linecap:round; stroke-linejoin:round;">
<path d="M10.0000 10.0000
L340.0000 10.0000
L340.0000 140.0000
L10.0000 140.0000
L10.0000 10.0000
" />
</g>
<g style="fill:none; 
stroke:#000000; stroke-width:0.1500; stroke-opacity:1; 
stroke-linecap:round; stroke-linejoin:round;">
<path d="M12.0000 12.0000
L338.0000 12.0000
L338.0000 138.0000
L12.0000 138.0000
L12.0000 12.0000
" />
</g>
<g style="fill:none; 
stroke:#000000; stroke-width:0.1500; stroke-opacity:1; 
stroke-linecap:round; stroke-linejoin:round;">
<path d="M60.0000 12.0000
L60.0000 10.0000
" />
</g>
<g style="fill:none; 
stroke:#000000; stroke-width:0.1500; stroke-opacity:1; 
stroke-linecap:round; stroke-linejoin:round;">
<path d="M110.0000 12.0000
L110.0000 10.0000
" />
</g>
<g style="fill:none; 
stroke:#000000; stroke-width:0.1500; stroke-opacity:1; 
stroke-linecap:round; stroke-linejoin:round;">
<path d="M160.0000 12.0000
L160.0000 10.0000
" />
</g>
<g style="fill:none; 
stroke:#000000; stroke-width:0.1500; stroke-opacity:1; 
stroke-linecap:round; stroke-linejoin:round;">
<path d="M210.0000 12.0000
L210.0000 10.0000
" />
</g>
<g style="fill:none; 
stroke:#000000; stroke-width:0.1500; stroke-opacity:1; 
stroke-linecap:round; stroke-linejoin:round;">
<path d="M260.0000 12.0000
L260.0000 10.0000
" />
</g>
<g style="fill:none; 
stroke:#000000; stroke-width:0.1500; stroke-opacity:1; 
stroke-linecap:round; stroke-linejoin:round;">
<path d="M310.0000 12.0000
L310.0000 10.0000
" />
</g>
<g style="fill:none; 
stroke:#000000; stroke-width:0.1500; stroke-opacity:1; 
stroke-linecap:round; stroke-linejoin:round;">
<text x="35.0000" y="11.6500"
textLength="1.4281" font-size="1.7333" lengthAdjust="spacingAndGlyphs"
text-anchor="start" opacity="0">1</text>
<g class="stroked-text"><desc>1</desc>
<path d="M36.0892 11.5936
L35.3463 11.5936
" />
<path d="M35.7177 11.5936
L35.7177 10.2936
" />
<path d="M35.7177 10.2936
L35.5939 10.4793
" />
<path d="M35.5939 10.4793
L35.4701 10.6031
" />
<path d="M35.4701 10.6031
L35.3463 10.6650
" />
</g></g>
<g style="fill:none; 
stroke:#000000; stroke-width:0.1500; stroke-opacity:1; 
stroke-linecap:round; stroke-linejoin:round;">
<text x="85.0000" y="11.6500"
textLength="1.4281" font-size="1.7333" lengthAdjust="spacingAndGlyphs"
text-anchor="start" opacity="0">2</text>
<g class="stroked-text"><desc>2</desc>
<path d="M85.3463 10.4174
L85.4082 10.3555
" />
<path d="M85.4082 10.3555
L85.5320 10.2936
" />
<path d="M85.5320 10.2936
L85.8415 10.2936
" />
<path d="M85.8415 10.2936
L85.9654 10.3555
" />
<path d="M85.9654 10.3555
L86.0273 10.4174
" />
<path d="M86.0273 10.4174
L86.0892 10.5412
" />
<path d="M86.0892 10.5412
L86.0892 10.6650
" />
<path d="M86.0892 10.6650
L86.0273 10.8507
" />
<path d="M86.0273 10.8507
L85.2844 11.5936
" />
<path d="M85.2844 11.5936
L86.0892 11.5936
" />
</g></g>
<g style="fill:none; 
stroke:#000000; stroke-width:0.1500; stroke-opacity:1; 
stroke-linecap:round; stroke-linejoin:round;">
<text x="135.0000" y="11.6500"
textLength="1.4281" font-size="1.7333" lengthAdjust="spacingAndGlyphs"
text-anchor="start" opacity="0">3</text>
<g class="stroked-text"><desc>3</desc>
<path d="M135.2844 10.2936
L136.0892 10.2936
" />
<path d="M136.0892 10.2936
L135.6558 10.7888
" />
<path d="M135.6558 10.7888
L135.8415 10.7888
" />
<path d="M135.8415 10.7888
L135.9654 10.8507
" />
<path d="M135.9654 10.8507
L136.0273 10.9127
" />
<path d="M136.0273 10.9127
L136.0892 11.0365
" />
<path d="M136.0892 11.0365
L136.0892 11.3460
" />
<path d="M136.0892 11.3460
L136.0273 11.4698
" />
<path d="M136.0273 11.4698
L135.9654 11.5317
" />
<path d="M135.9654 11.5317
L135.8415 11.5936
" />
<path d="M135.8415 11.5936
L135.4701 11.5936
" />
<path d="M135.4701 11.5936
L135.3463 11.5317
" />
<path d="M135.3463 11.5317
L135.2844 11.4698
" />
</g></g>
<g style="fill:none; 
stroke:#000000; stroke-width:0.1500; stroke-opacity:1; 
stroke-linecap:round; stroke-linejoin:round;">
<text x="185.0000" y="11.6500"
textLength="1.4281" font-size="1.7333" lengthAdjust="spacingAndGlyphs"
text-anchor="start" opacity="0">4</text>
<g class="stroked-text"><desc>4</desc>
<path d="M185.9654 10.7269
L185.9654 11.5936
" />
<path d="M185.6558 10.2317
L185.3463 11.1603
" />
<path d="M185.3463 11.1603
L186.1511 11.1603
" />
</g></g>
<g style="fill:none; 
stroke:#000000; stroke-width:0.1500; stroke-opacity:1; 
stroke-linecap:round; stroke-linejoin:round;">
<text x="235.0000" y="11.6500"
textLength="1.4281" font-size="1.7333" lengthAdjust="spacingAndGlyphs"
text-anchor="start" opacity="0">5</text>
<g class="stroked-text"><desc>5</desc>
<path d="M236.0273 10.2936
L235.4082 10.2936
" />
<path d="M235.4082 10.2936
L235.3463 10.9127
" />
<path d="M235.3463 10.9127
L235.4082 10.8507
" />
<path d="M235.4082 10.8507
L235.5320 10.7888
" />
<path d="M235.5320 10.7888
L235.8415 10.7888
" />
<path d="M235.8415 10.7888
L235.9654 10.8507
" />
<path d="M235.9654 10.8507
L236.0273 10.9127
" />
<path d="M236.0273 10.9127
L236.0892 11.0365
" />
<path d="M236.0892 11.0365
L236.0892 11.3460
" />
<path d="M236.0892 11.3460
L236.0273 11.4698
" />
<path d="M236.0273 11.4698
L235.9654 11.5317
" />
<path d="M235.9654 11.5317
L235.8415 11.5936
" />
<path d="M235.8415 11.5936
L235.5320 11.5936
" />
<path d="M235.5320 11.5936
L235.4082 11.5317
" />
<path d="M235.4082 11.5317
L235.3463 11.4698
" />
</g></g>
<g style="fill:none; 
stroke:#000000; stroke-width:0.1500; stroke-opacity:1; 
stroke-linecap:round; stroke-linejoin:round;">
<text x="285.0000" y="11.6500"
textLength="1.4281" font-size="1.7333" lengthAdjust="spacingAndGlyphs"
text-anchor="start" opacity="0">6</text>
<g class="stroked-text"><desc>6</desc>
<path d="M285.9654 10.2936
L285.7177 10.2936
" />
<path d="M285.7177 10.2936
L285.5939 10.3555
" />
<path d="M285.5939 10.3555
L285.5320 10.4174
" />
<path d="M285.5320 10.4174
L285.4082 10.6031
" />
<path d="M285.4082 10.6031
L285.3463 10.8507
" />
<path d="M285.3463 10.8507
L285.3463 11.3460
" />
<path d="M285.3463 11.3460
L285.4082 11.4698
" />
<path d="M285.4082 11.4698
L285.4701 11.5317
" />
<path d="M285.4701 11.5317
L285.5939 11.5936
" />
<path d="M285.5939 11.5936
L285.8415 11.5936
" />
<path d="M285.8415 11.5936
L285.9654 11.5317
" />
<path d="M285.9654 11.5317
L286.0273 11.4698
" />
<path d="M286.0273 11.4698
L286.0892 11.3460
" />
<path d="M286.0892 11.3460
L286.0892 11.0365
" />
<path d="M286.0892 11.0365
L286.0273 10.9127
" />
<path d="M286.0273 10.9127
L285.9654 10.8507
" />
<path d="M285.9654 10.8507
L285.8415 10.7888
" />
<path d="M285.8415 10.7888
L285.5939 10.7888
" />
<path d="M285.5939 10.7888
L285.4701 10.8507
" />
<path d="M285.4701 10.8507
L285.4082 10.9127
" />
<path d="M285.4082 10.9127
L285.3463 11.0365
" />
</g></g>
<g style="fill:none; 
stroke:#000000; stroke-width:0.1500; stroke-opacity:1; 
stroke-linecap:round; stroke-linejoin:round;">
<text x="335.0000" y="11.6500"
textLength="1.4281" font-size="1.7333" lengthAdjust="spacingAndGlyphs"
text-anchor="start" opacity="0">7</text>
<g class="stroked-text"><desc>7</desc>
<path d="M335.2844 10.2936
L336.1511 10.2936
" />
<path d="M336.1511 10.2936
L335.5939 11.5936
" />
</g></g>
<g style="fill:none; 
stroke:#000000; stroke-width:0.1500; stroke-opacity:1; 
stroke-linecap:round; stroke-linejoin:round;">
<path d="M60.0000 138.0000
L60.0000 140.0000
" />
</g>
<g style="fill:none; 
stroke:#000000; stroke-width:0.1500; stroke-opacity:1; 
stroke-linecap:round; stroke-linejoin:round;">
<path d="M110.0000 138.0000
L110.0000 140.0000
" />
</g>
<g style="fill:none; 
stroke:#000000; stroke-width:0.1500; stroke-opacity:1; 
stroke-linecap:round; stroke-linejoin:round;">
<path d="M160.0000 138.0000
L160.0000 140.0000
" />
</g>
<g style="fill:none; 
stroke:#000000; stroke-width:0.1500; stroke-opacity:1; 
stroke-linecap:round; stroke-linejoin:round;">
<path d="M210.0000 138.0000
L210.0000 140.0000
" />
</g>
<g style="fill:none; 
stroke:#000000; stroke-width:0.1500; stroke-opacity:1; 
stroke-linecap:round; stroke-linejoin:round;">
<path d="M260.0000 138.0000
L260.0000 140.0000
" />
</g>
<g style="fill:none; 
stroke:#000000; stroke-width:0.1500; stroke-opacity:1; 
stroke-linecap:round; stroke-linejoin:round;">
<path d="M310.0000 138.0000
L310.0000 140.0000
" />
</g>
<g style="fill:none; 
stroke:#000000; stroke-width:0.1500; stroke-opacity:1; 
stroke-linecap:round; stroke-linejoin:round;">
<text x="35.0000" y="139.6500"
textLength="1.4281" font-size="1.7333" lengthAdjust="spacingAndGlyphs"
text-anchor="start" opacity="0">1</text>
<g class="stroked-text"><desc>1</desc>
<path d="M36.0892 139.5936
L35.3463 139.5936
" />
<path d="M35.7177 139.5936
L35.7177 138.2936
" />
<path d="M35.7177 138.2936
L35.5939 138.4793
" />
<path d="M35.5939 138.4793
L35.4701 138.6031
" />
<path d="M35.4701 138.6031
L35.3463 138.6650
" />
</g></g>
<g style="fill:none; 
stroke:#000000; stroke-width:0.1500; stroke-opacity:1; 
stroke-linecap:round; stroke-linejoin:round;">
<text x="85.0000" y="139.6500"
textLength="1.4281" font-size="1.7333" lengthAdjust="spacingAndGlyphs"
text-anchor="start" opacity="0">2</text>
<g class="stroked-text"><desc>2</desc>
<path d="M85.3463 138.4174
L85.4082 138.3555
" />
<path d="M85.4082 138.3555
L85.5320 138.2936
" />
<path d="M85.5320 138.2936
L85.8415 138.2936
" />
<path d="M85.8415 138.2936
L85.9654 138.3555
" />
<path d="M85.9654 138.3555
L86.0273 138.4174
" />
<path d="M86.0273 138.4174
L86.0892 138.5412
" />
<path d="M86.0892 138.5412
L86.0892 138.6650
" />
<path d="M86.0892 138.6650
L86.0273 138.8507
" />
<path d="M86.0273 138.8507
L85.2844 139.5936
" />
<path d="M85.2844 139.5936
L86.0892 139.5936
" />
</g></g>
<g style="fill:none; 
stroke:#000000; stroke-width:0.1500; stroke-opacity:1; 
stroke-linecap:round; stroke-linejoin:round;">
<text x="135.0000" y="139.6500"
textLength="1.4281" font-size="1.7333" lengthAdjust="spacingAndGlyphs"
text-anchor="start" opacity="0">3</text>
<g class="stroked-text"><desc>3</desc>
<path d="M135.2844 138.2936
L136.0892 138.2936
" />
<path d="M136.0892 138.2936
L135.6558 138.7888
" />
<path d="M135.6558 138.7888
L135.8415 138.7888
" />
<path d="M135.8415 138.7888
L135.9654 138.8507
" />
<path d="M135.9654 138.8507
L136.0273 138.9127
" />
<path d="M136.0273 138.9127
L136.0892 139.0365
" />
<path d="M136.0892 139.0365
L136.0892 139.3460
" />
<path d="M136.0892 139.3460
L136.0273 139.4698
" />
<path d="M136.0273 139.4698
L135.9654 139.5317
" />
<path d="M135.9654 139.5317
L135.8415 139.5936
" />
<path d="M135.8415 139.5936
L135.4701 139.5936
" />
<path d="M135.4701 139.5936
L135.3463 139.5317
" />
<path d="M135.3463 139.5317
L135.2844 139.4698
" />
</g></g>
<g style="fill:none; 
stroke:#000000; stroke-width:0.1500; stroke-opacity:1; 
stroke-linecap:round; stroke-linejoin:round;">
<text x="185.0000" y="139.6500"
textLength="1.4281" font-size="1.7333" lengthAdjust="spacingAndGlyphs"
text-anchor="start" opacity="0">4</text>
<g class="stroked-text"><desc>4</desc>
<path d="M185.9654 138.7269
L185.9654 139.5936
" />
<path d="M185.6558 138.2317
L185.3463 139.1603
" />
<path d="M185.3463 139.1603
L186.1511 139.1603
" />
</g></g>
<g style="fill:none; 
stroke:#000000; stroke-width:0.1500; stroke-opacity:1; 
stroke-linecap:round; stroke-linejoin:round;">
<text x="235.0000" y="139.6500"
textLength="1.4281" font-size="1.7333" lengthAdjust="spacingAndGlyphs"
text-anchor="start" opacity="0">5</text>
<g class="stroked-text"><desc>5</desc>
<path d="M236.0273 138.2936
L235.4082 138.2936
" />
<path d="M235.4082 138.2936
L235.3463 138.9127
" />
<path d="M235.3463 138.9127
L235.4082 138.8507
" />
<path d="M235.4082 138.8507
L235.5320 138.7888
" />
<path d="M235.5320 138.7888
L235.8415 138.7888
" />
<path d="M235.8415 138.7888
L235.9654 138.8507
" />
<path d="M235.9654 138.8507
L236.0273 138.9127
" />
<path d="M236.0273 138.9127
L236.0892 139.0365
" />
<path d="M236.0892 139.0365
L236.0892 139.3460
" />
<path d="M236.0892 139.3460
L236.0273 139.4698
" />
<path d="M236.0273 139.4698
L235.9654 139.5317
" />
<path d="M235.9654 139.5317
L235.8415 139.5936
" />
<path d="M235.8415 139.5936
L235.5320 139.5936
" />
<path d="M235.5320 139.5936
L235.4082 139.5317
" />
<path d="M235.4082 139.5317
L235.3463 139.4698
" />
</g></g>
<g style="fill:none; 
stroke:#000000; stroke-width:0.1500; stroke-opacity:1; 
stroke-linecap:round; stroke-linejoin:round;">
<text x="285.0000" y="139.6500"
textLength="1.4281" font-size="1.7333" lengthAdjust="spacingAndGlyphs"
text-anchor="start" opacity="0">6</text>
<g class="stroked-text"><desc>6</desc>
<path d="M285.9654 138.2936
L285.7177 138.2936
" />
<path d="M285.7177 138.2936
L285.5939 138.3555
" />
<path d="M285.5939 138.3555
L285.5320 138.4174
" />
<path d="M285.5320 138.4174
L285.4082 138.6031
" />
<path d="M285.4082 138.6031
L285.3463 138.8507
" />
<path d="M285.3463 138.8507
L285.3463 139.3460
" />
<path d="M285.3463 139.3460
L285.4082 139.4698
" />
<path d="M285.4082 139.4698
L285.4701 139.5317
" />
<path d="M285.4701 139.5317
L285.5939 139.5936
" />
<path d="M285.5939 139.5936
L285.8415 139.5936
" />
<path d="M285.8415 139.5936
L285.9654 139.5317
" />
<path d="M285.9654 139.5317
L286.0273 139.4698
" />
<path d="M286.0273 139.4698
L286.0892 139.3460
" />
<path d="M286.0892 139.3460
L286.0892 139.0365
" />
<path d="M286.0892 139.0365
L286.0273 138.9127
" />
<path d="M286.0273 138.9127
L285.9654 138.8507
" />
<path d="M285.9654 138.8507
L285.8415 138.7888
" />
<path d="M285.8415 138.7888
L285.5939 138.7888
" />
<path d="M285.5939 138.7888
L285.4701 138.8507
" />
<path d="M285.4701 138.8507
L285.4082 138.9127
" />
<path d="M285.4082 138.9127
L285.3463 139.0365
" />
</g></g>
<g style="fill:none; 
stroke:#000000; stroke-width:0.1500; stroke-opacity:1; 
stroke-linecap:round; stroke-linejoin:round;">
<text x="335.0000" y="139.6500"
textLength="1.4281" font-size="1.7333" lengthAdjust="spacingAndGlyphs"
text-anchor="start" opacity="0">7</text>
<g class="stroked-text"><desc>7</desc>
<path d="M335.2844 138.2936
L336.1511 138.2936
" />
<path d="M336.1511 138.2936
L335.5939 139.5936
" />
</g></g>
<g style="fill:none; 
stroke:#000000; stroke-width:0.1500; stroke-opacity:1; 
stroke-linecap:round; stroke-linejoin:round;">
<path d="M10.0000 60.0000
L12.0000 60.0000
" />
</g>
<g style="fill:none; 
stroke:#000000; stroke-width:0.1500; stroke-opacity:1; 
stroke-linecap:round; stroke-linejoin:round;">
<path d="M10.0000 110.0000
L12.0000 110.0000
" />
</g>
<g style="fill:none; 
stroke:#000000; stroke-width:0.1500; stroke-opacity:1; 
stroke-linecap:round; stroke-linejoin:round;">
<text x="11.0000" y="35.6500"
textLength="1.3043" font-size="1.7333" lengthAdjust="spacingAndGlyphs"
text-anchor="middle" opacity="0">A</text>
<g class="stroked-text"><desc>A</desc>
<path d="M10.6905 35.2222
L11.3095 35.2222
" />
<path d="M10.5667 35.5936
L11.0000 34.2936
" />
<path d="M11.0000 34.2936
L11.4333 35.5936
" />
</g></g>
<g style="fill:none; 
stroke:#000000; stroke-width:0.1500; stroke-opacity:1; 
stroke-linecap:round; stroke-linejoin:round;">
<text x="11.0000" y="85.6500"
textLength="1.4900" font-size="1.7333" lengthAdjust="spacingAndGlyphs"
text-anchor="middle" opacity="0">B</text>
<g class="stroked-text"><desc>B</desc>
<path d="M11.0929 84.9127
L11.2786 84.9746
" />
<path d="M11.2786 84.9746
L11.3405 85.0365
" />
<path d="M11.3405 85.0365
L11.4024 85.1603
" />
<path d="M11.4024 85.1603
L11.4024 85.3460
" />
<path d="M11.4024 85.3460
L11.3405 85.4698
" />
<path d="M11.3405 85.4698
L11.2786 85.5317
" />
<path d="M11.2786 85.5317
L11.1548 85.5936
" />
<path d="M11.1548 85.5936
L10.6595 85.5936
" />
<path d="M10.6595 85.5936
L10.6595 84.2936
" />
<path d="M10.6595 84.2936
L11.0929 84.2936
" />
<path d="M11.0929 84.2936
L11.2167 84.3555
" />
<path d="M11.2167 84.3555
L11.2786 84.4174
" />
<path d="M11.2786 84.4174
L11.3405 84.5412
" />
<path d="M11.3405 84.5412
L11.3405 84.6650
" />
<path d="M11.3405 84.6650
L11.2786 84.7888
" />
<path d="M11.2786 84.7888
L11.2167 84.8507
" />
<path d="M11.2167 84.8507
L11.0929 84.9127
" />
<path d="M11.0929 84.9127
L10.6595 84.9127
" />
</g></g>
<g style="fill:none; 
stroke:#000000; stroke-width:0.1500; stroke-opacity:1; 
stroke-linecap:round; stroke-linejoin:round;">
<text x="11.0000" y="135.6500"
textLength="1.4900" font-size="1.7333" lengthAdjust="spacingAndGlyphs"
text-anchor="middle" opacity="0">C</text>
<g class="stroked-text"><desc>C</desc>
<path d="M11.4024 135.4698
L11.3405 135.5317
" />
<path d="M11.3405 135.5317
L11.1548 135.5936
" />
<path d="M11.1548 135.5936
L11.0310 135.5936
" />
<path d="M11.0310 135.5936
L10.8452 135.5317
" />
<path d="M10.8452 135.5317
L10.7214 135.4079
" />
<path d="M10.7214 135.4079
L10.6595 135.2841
" />
<path d="M10.6595 135.2841
L10.5976 135.0365
" />
<path d="M10.5976 135.0365
L10.5976 134.8507
" />
<path d="M10.5976 134.8507
L10.6595 134.6031
" />
<path d="M10.6595 134.6031
L10.7214 134.4793
" />
<path d="M10.7214 134.4793
L10.8452 134.3555
" />
<path d="M10.8452 134.3555
L11.0310 134.2936
" />
<path d="M11.0310 134.2936
L11.1548 134.2936
" />
<path d="M11.1548 134.2936
L11.3405 134.3555
" />
<path d="M11.3405 134.3555
L11.4024 134.4174
" />
</g></g>
<g style="fill:none; 
stroke:#000000; stroke-width:0.1500; stroke-opacity:1; 
stroke-linecap:round; stroke-linejoin:round;">
<path d="M340.0000 60.0000
L338.0000 60.0000
" />
</g>
<g style="fill:none; 
stroke:#000000; stroke-width:0.1500; stroke-opacity:1; 
stroke-linecap:round; stroke-linejoin:round;">
<path d="M340.0000 110.0000
L338.0000 110.0000
" />
</g>
<g style="fill:none; 
stroke:#000000; stroke-width:0.1500; stroke-opacity:1; 
stroke-linecap:round; stroke-linejoin:round;">
<text x="339.0000" y="35.6500"
textLength="1.3043" font-size="1.7333" lengthAdjust="spacingAndGlyphs"
text-anchor="middle" opacity="0">A</text>
<g class="stroked-text"><desc>A</desc>
<path d="M338.6905 35.2222
L339.3095 35.2222
" />
<path d="M338.5667 35.5936
L339.0000 34.2936
" />
<path d="M339.0000 34.2936
L339.4333 35.5936
" />
</g></g>
<g style="fill:none; 
stroke:#000000; stroke-width:0.1500; stroke-opacity:1; 
stroke-linecap:round; stroke-linejoin:round;">
<text x="339.0000" y="85.6500"
textLength="1.4900" font-size="1.7333" lengthAdjust="spacingAndGlyphs"
text-anchor="middle" opacity="0">B</text>
<g class="stroked-text"><desc>B</desc>
<path d="M339.0929 84.9127
L339.2786 84.9746
" />
<path d="M339.2786 84.9746
L339.3405 85.0365
" />
<path d="M339.3405 85.0365
L339.4024 85.1603
" />
<path d="M339.4024 85.1603
L339.4024 85.3460
" />
<path d="M339.4024 85.3460
L339.3405 85.4698
" />
<path d="M339.3405 85.4698
L339.2786 85.5317
" />
<path d="M339.2786 85.5317
L339.1548 85.5936
" />
<path d="M339.1548 85.5936
L338.6595 85.5936
" />
<path d="M338.6595 85.5936
L338.6595 84.2936
" />
<path d="M338.6595 84.2936
L339.0929 84.2936
" />
<path d="M339.0929 84.2936
L339.2167 84.3555
" />
<path d="M339.2167 84.3555
L339.2786 84.4174
" />
<path d="M339.2786 84.4174
L339.3405 84.5412
" />
<path d="M339.3405 84.5412
L339.3405 84.6650
" />
<path d="M339.3405 84.6650
L339.2786 84.7888
" />
<path d="M339.2786 84.7888
L339.2167 84.8507
" />
<path d="M339.2167 84.8507
L339.0929 84.9127
" />
<path d="M339.0929 84.9127
L338.6595 84.9127
" />
</g></g>
<g style="fill:none; 
stroke:#000000; stroke-width:0.1500; stroke-opacity:1; 
stroke-linecap:round; stroke-linejoin:round;">
<text x="339.0000" y="135.6500"
textLength="1.4900" font-size="1.7333" lengthAdjust="spacingAndGlyphs"
text-anchor="middle" opacity="0">C</text>
<g class="stroked-text"><desc>C</desc>
<path d="M339.4024 135.4698
L339.3405 135.5317
" />
<path d="M339.3405 135.5317
L339.1548 135.5936
" />
<path d="M339.1548 135.5936
L339.0310 135.5936
" />
<path d="M339.0310 135.5936
L338.8452 135.5317
" />
<path d="M338.8452 135.5317
L338.7214 135.4079
" />
<path d="M338.7214 135.4079
L338.6595 135.2841
" />
<path d="M338.6595 135.2841
L338.5976 135.0365
" />
<path d="M338.5976 135.0365
L338.5976 134.8507
" />
<path d="M338.5976 134.8507
L338.6595 134.6031
" />
<path d="M338.6595 134.6031
L338.7214 134.4793
" />
<path d="M338.7214 134.4793
L338.8452 134.3555
" />
<path d="M338.8452 134.3555
L339.0310 134.2936
" />
<path d="M339.0310 134.2936
L339.1548 134.2936
" />
<path d="M339.1548 134.2936
L339.3405 134.3555
" />
<path d="M339.3405 134.3555
L339.4024 134.4174
" />
</g></g>
<g style="fill:none; 
stroke:#000000; stroke-width:0.1500; stroke-opacity:1; 
stroke-linecap:round; stroke-linejoin:round;">
<text x="253.0000" y="133.8500"
textLength="7.0071" font-size="2.0000" lengthAdjust="spacingAndGlyphs"
text-anchor="start" opacity="0">Date: </text>
<g class="stroked-text"><desc>Date: </desc>
<path d="M253.4558 133.7861
L253.4558 132.2861
" />
<path d="M253.4558 132.2861
L253.8130 132.2861
" />
<path d="M253.8130 132.2861
L254.0273 132.3576
" />
<path d="M254.0273 132.3576
L254.1701 132.5004
" />
<path d="M254.1701 132.5004
L254.2415 132.6433
" />
<path d="M254.2415 132.6433
L254.3130 132.9290
" />
<path d="M254.3130 132.9290
L254.3130 133.1433
" />
<path d="M254.3130 133.1433
L254.2415 133.4290
" />
<path d="M254.2415 133.4290
L254.1701 133.5718
" />
<path d="M254.1701 133.5718
L254.0273 133.7147
" />
<path d="M254.0273 133.7147
L253.8130 133.7861
" />
<path d="M253.8130 133.7861
L253.4558 133.7861
" />
<path d="M255.5987 133.7861
L255.5987 133.0004
" />
<path d="M255.5987 133.0004
L255.5273 132.8576
" />
<path d="M255.5273 132.8576
L255.3844 132.7861
" />
<path d="M255.3844 132.7861
L255.0987 132.7861
" />
<path d="M255.0987 132.7861
L254.9558 132.8576
" />
<path d="M255.5987 133.7147
L255.4558 133.7861
" />
<path d="M255.4558 133.7861
L255.0987 133.7861
" />
<path d="M255.0987 133.7861
L254.9558 133.7147
" />
<path d="M254.9558 133.7147
L254.8844 133.5718
" />
<path d="M254.8844 133.5718
L254.8844 133.4290
" />
<path d="M254.8844 133.4290
L254.9558 133.2861
" />
<path d="M254.9558 133.2861
L255.0987 133.2147
" />
<path d="M255.0987 133.2147
L255.4558 133.2147
" />
<path d="M255.4558 133.2147
L255.5987 133.1433
" />
<path d="M256.0987 132.7861
L256.6701 132.7861
" />
<path d="M256.3130 132.2861
L256.3130 133.5718
" />
<path d="M256.3130 133.5718
L256.3844 133.7147
" />
<path d="M256.3844 133.7147
L256.5273 133.7861
" />
<path d="M256.5273 133.7861
L256.6701 133.7861
" />
<path d="M257.7415 133.7147
L257.5987 133.7861
" />
<path d="M257.5987 133.7861
L257.3130 133.7861
" />
<path d="M257.3130 133.7861
L257.1701 133.7147
" />
<path d="M257.1701 133.7147
L257.0987 133.5718
" />
<path d="M257.0987 133.5718
L257.0987 133.0004
" />
<path d="M257.0987 133.0004
L257.1701 132.8576
" />
<path d="M257.1701 132.8576
L257.3130 132.7861
" />
<path d="M257.3130 132.7861
L257.5987 132.7861
" />
<path d="M257.5987 132.7861
L257.7415 132.8576
" />
<path d="M257.7415 132.8576
L257.8130 133.0004
" />
<path d="M257.8130 133.0004
L257.8130 133.1433
" />
<path d="M257.8130 133.1433
L257.0987 133.2861
" />
<path d="M258.4558 133.6433
L258.5273 133.7147
" />
<path d="M258.5273 133.7147
L258.4558 133.7861
" />
<path d="M258.4558 133.7861
L258.3844 133.7147
" />
<path d="M258.3844 133.7147
L258.4558 133.6433
" />
<path d="M258.4558 133.6433
L258.4558 133.7861
" />
<path d="M258.4558 132.8576
L258.5273 132.9290
" />
<path d="M258.5273 132.9290
L258.4558 133.0004
" />
<path d="M258.4558 133.0004
L258.3844 132.9290
" />
<path d="M258.3844 132.9290
L258.4558 132.8576
" />
<path d="M258.4558 132.8576
L258.4558 133.0004
" />
</g></g>
<g style="fill:none; 
stroke:#000000; stroke-width:0.1500; stroke-opacity:1; 
stroke-linecap:round; stroke-linejoin:round;">
<path d="M230.0000 134.5000
L338.0000 134.5000
" />
</g>
<g style="fill:none; 
stroke:#000000; stroke-width:0.1500; stroke-opacity:1; 
stroke-linecap:round; stroke-linejoin:round;">
<text x="231.0000" y="136.6500"
textLength="20.8643" font-size="2.0000" lengthAdjust="spacingAndGlyphs"
text-anchor="start" opacity="0">KiCad E.D.A. 8.0.1</text>
<g class="stroked-text"><desc>KiCad E.D.A. 8.0.1</desc>
<path d="M231.4558 136.5861
L231.4558 135.0861
" />
<path d="M232.3130 136.5861
L231.6701 135.7290
" />
<path d="M232.3130 135.0861
L231.4558 135.9433
" />
<path d="M232.9558 136.5861
L232.9558 135.5861
" />
<path d="M232.9558 135.0861
L232.8844 135.1576
" />
<path d="M232.8844 135.1576
L232.9558 135.2290
" />
<path d="M232.9558 135.2290
L233.0273 135.1576
" />
<path d="M233.0273 135.1576
L232.9558 135.0861
" />
<path d="M232.9558 135.0861
L232.9558 135.2290
" />
<path d="M234.5273 136.4433
L234.4558 136.5147
" />
<path d="M234.4558 136.5147
L234.2415 136.5861
" />
<path d="M234.2415 136.5861
L234.0987 136.5861
" />
<path d="M234.0987 136.5861
L233.8844 136.5147
" />
<path d="M233.8844 136.5147
L233.7415 136.3718
" />
<path d="M233.7415 136.3718
L233.6701 136.2290
" />
<path d="M233.6701 136.2290
L233.5987 135.9433
" />
<path d="M233.5987 135.9433
L233.5987 135.7290
" />
<path d="M233.5987 135.7290
L233.6701 135.4433
" />
<path d="M233.6701 135.4433
L233.7415 135.3004
" />
<path d="M233.7415 135.3004
L233.8844 135.1576
" />
<path d="M233.8844 135.1576
L234.0987 135.0861
" />
<path d="M234.0987 135.0861
L234.2415 135.0861
" />
<path d="M234.2415 135.0861
L234.4558 135.1576
" />
<path d="M234.4558 135.1576
L234.5273 135.2290
" />
<path d="M235.8130 136.5861
L235.8130 135.8004
" />
<path d="M235.8130 135.8004
L235.7415 135.6576
" />
<path d="M235.7415 135.6576
L235.5987 135.5861
" />
<path d="M235.5987 135.5861
L235.3130 135.5861
" />
<path d="M235.3130 135.5861
L235.1701 135.6576
" />
<path d="M235.8130 136.5147
L235.6701 136.5861
" />
<path d="M235.6701 136.5861
L235.3130 136.5861
" />
<path d="M235.3130 136.5861
L235.1701 136.5147
" />
<path d="M235.1701 136.5147
L235.0987 136.3718
" />
<path d="M235.0987 136.3718
L235.0987 136.2290
" />
<path d="M235.0987 136.2290
L235.1701 136.0861
" />
<path d="M235.1701 136.0861
L235.3130 136.0147
" />
<path d="M235.3130 136.0147
L235.6701 136.0147
" />
<path d="M235.6701 136.0147
L235.8130 135.9433
" />
<path d="M237.1701 136.5861
L237.1701 135.0861
" />
<path d="M237.1701 136.5147
L237.0273 136.5861
" />
<path d="M237.0273 136.5861
L236.7415 136.5861
" />
<path d="M236.7415 136.5861
L236.5987 136.5147
" />
<path d="M236.5987 136.5147
L236.5273 136.4433
" />
<path d="M236.5273 136.4433
L236.4558 136.3004
" />
<path d="M236.4558 136.3004
L236.4558 135.8718
" />
<path d="M236.4558 135.8718
L236.5273 135.7290
" />
<path d="M236.5273 135.7290
L236.5987 135.6576
" />
<path d="M236.5987 135.6576
L236.7415 135.5861
" />
<path d="M236.7415 135.5861
L237.0273 135.5861
" />
<path d="M237.0273 135.5861
L237.1701 135.6576
" />
<path d="M239.0273 135.8004
L239.5273 135.8004
" />
<path d="M239.7415 136.5861
L239.0273 136.5861
" />
<path d="M239.0273 136.5861
L239.0273 135.0861
" />
<path d="M239.0273 135.0861
L239.7415 135.0861
" />
<path d="M240.3844 136.4433
L240.4558 136.5147
" />
<path d="M240.4558 136.5147
L240.3844 136.5861
" />
<path d="M240.3844 136.5861
L240.3130 136.5147
" />
<path d="M240.3130 136.5147
L240.3844 136.4433
" />
<path d="M240.3844 136.4433
L240.3844 136.5861
" />
<path d="M241.0987 136.5861
L241.0987 135.0861
" />
<path d="M241.0987 135.0861
L241.4558 135.0861
" />
<path d="M241.4558 135.0861
L241.6701 135.1576
" />
<path d="M241.6701 135.1576
L241.8130 135.3004
" />
<path d="M241.8130 135.3004
L241.8844 135.4433
" />
<path d="M241.8844 135.4433
L241.9558 135.7290
" />
<path d="M241.9558 135.7290
L241.9558 135.9433
" />
<path d="M241.9558 135.9433
L241.8844 136.2290
" />
<path d="M241.8844 136.2290
L241.8130 136.3718
" />
<path d="M241.8130 136.3718
L241.6701 136.5147
" />
<path d="M241.6701 136.5147
L241.4558 136.5861
" />
<path d="M241.4558 136.5861
L241.0987 136.5861
" />
<path d="M242.5987 136.4433
L242.6701 136.5147
" />
<path d="M242.6701 136.5147
L242.5987 136.5861
" />
<path d="M242.5987 136.5861
L242.5273 136.5147
" />
<path d="M242.5273 136.5147
L242.5987 136.4433
" />
<path d="M242.5987 136.4433
L242.5987 136.5861
" />
<path d="M243.2415 136.1576
L243.9558 136.1576
" />
<path d="M243.0987 136.5861
L243.5987 135.0861
" />
<path d="M243.5987 135.0861
L244.0987 136.5861
" />
<path d="M244.5987 136.4433
L244.6701 136.5147
" />
<path d="M244.6701 136.5147
L244.5987 136.5861
" />
<path d="M244.5987 136.5861
L244.5273 136.5147
" />
<path d="M244.5273 136.5147
L244.5987 136.4433
" />
<path d="M244.5987 136.4433
L244.5987 136.5861
" />
<path d="M246.6701 135.7290
L246.5273 135.6576
" />
<path d="M246.5273 135.6576
L246.4558 135.5861
" />
<path d="M246.4558 135.5861
L246.3844 135.4433
" />
<path d="M246.3844 135.4433
L246.3844 135.3718
" />
<path d="M246.3844 135.3718
L246.4558 135.2290
" />
<path d="M246.4558 135.2290
L246.5273 135.1576
" />
<path d="M246.5273 135.1576
L246.6701 135.0861
" />
<path d="M246.6701 135.0861
L246.9558 135.0861
" />
<path d="M246.9558 135.0861
L247.0987 135.1576
" />
<path d="M247.0987 135.1576
L247.1701 135.2290
" />
<path d="M247.1701 135.2290
L247.2415 135.3718
" />
<path d="M247.2415 135.3718
L247.2415 135.4433
" />
<path d="M247.2415 135.4433
L247.1701 135.5861
" />
<path d="M247.1701 135.5861
L247.0987 135.6576
" />
<path d="M247.0987 135.6576
L246.9558 135.7290
" />
<path d="M246.9558 135.7290
L246.6701 135.7290
" />
<path d="M246.6701 135.7290
L246.5273 135.8004
" />
<path d="M246.5273 135.8004
L246.4558 135.8718
" />
<path d="M246.4558 135.8718
L246.3844 136.0147
" />
<path d="M246.3844 136.0147
L246.3844 136.3004
" />
<path d="M246.3844 136.3004
L246.4558 136.4433
" />
<path d="M246.4558 136.4433
L246.5273 136.5147
" />
<path d="M246.5273 136.5147
L246.6701 136.5861
" />
<path d="M246.6701 136.5861
L246.9558 136.5861
" />
<path d="M246.9558 136.5861
L247.0987 136.5147
" />
<path d="M247.0987 136.5147
L247.1701 136.4433
" />
<path d="M247.1701 136.4433
L247.2415 136.3004
" />
<path d="M247.2415 136.3004
L247.2415 136.0147
" />
<path d="M247.2415 136.0147
L247.1701 135.8718
" />
<path d="M247.1701 135.8718
L247.0987 135.8004
" />
<path d="M247.0987 135.8004
L246.9558 135.7290
" />
<path d="M247.8844 136.4433
L247.9558 136.5147
" />
<path d="M247.9558 136.5147
L247.8844 136.5861
" />
<path d="M247.8844 136.5861
L247.8130 136.5147
" />
<path d="M247.8130 136.5147
L247.8844 136.4433
" />
<path d="M247.8844 136.4433
L247.8844 136.5861
" />
<path d="M248.8844 135.0861
L249.0273 135.0861
" />
<path d="M249.0273 135.0861
L249.1701 135.1576
" />
<path d="M249.1701 135.1576
L249.2415 135.2290
" />
<path d="M249.2415 135.2290
L249.3130 135.3718
" />
<path d="M249.3130 135.3718
L249.3844 135.6576
" />
<path d="M249.3844 135.6576
L249.3844 136.0147
" />
<path d="M249.3844 136.0147
L249.3130 136.3004
" />
<path d="M249.3130 136.3004
L249.2415 136.4433
" />
<path d="M249.2415 136.4433
L249.1701 136.5147
" />
<path d="M249.1701 136.5147
L249.0273 136.5861
" />
<path d="M249.0273 136.5861
L248.8844 136.5861
" />
<path d="M248.8844 136.5861
L248.7415 136.5147
" />
<path d="M248.7415 136.5147
L248.6701 136.4433
" />
<path d="M248.6701 136.4433
L248.5987 136.3004
" />
<path d="M248.5987 136.3004
L248.5273 136.0147
" />
<path d="M248.5273 136.0147
L248.5273 135.6576
" />
<path d="M248.5273 135.6576
L248.5987 135.3718
" />
<path d="M248.5987 135.3718
L248.6701 135.2290
" />
<path d="M248.6701 135.2290
L248.7415 135.1576
" />
<path d="M248.7415 135.1576
L248.8844 135.0861
" />
<path d="M250.0273 136.4433
L250.0987 136.5147
" />
<path d="M250.0987 136.5147
L250.0273 136.5861
" />
<path d="M250.0273 136.5861
L249.9558 136.5147
" />
<path d="M249.9558 136.5147
L250.0273 136.4433
" />
<path d="M250.0273 136.4433
L250.0273 136.5861
" />
<path d="M251.5273 136.5861
L250.6701 136.5861
" />
<path d="M251.0987 136.5861
L251.0987 135.0861
" />
<path d="M251.0987 135.0861
L250.9558 135.3004
" />
<path d="M250.9558 135.3004
L250.8130 135.4433
" />
<path d="M250.8130 135.4433
L250.6701 135.5147
" />
</g></g>
<g style="fill:none; 
stroke:#000000; stroke-width:0.1500; stroke-opacity:1; 
stroke-linecap:round; stroke-linejoin:round;">
<path d="M230.0000 131.5000
L338.0000 131.5000
" />
</g>
<g style="fill:none; 
stroke:#000000; stroke-width:0.3000; stroke-opacity:1; 
stroke-linecap:round; stroke-linejoin:round;">
<text x="316.0000" y="133.8500"
textLength="6.3857" font-size="2.0000" lengthAdjust="spacingAndGlyphs"
text-anchor="start" opacity="0">Rev: </text>
<g class="stroked-text"><desc>Rev: </desc>
<path d="M317.4117 133.7783
L316.9117 133.0640
" />
<path d="M316.5545 133.7783
L316.5545 132.2783
" />
<path d="M316.5545 132.2783
L317.1259 132.2783
" />
<path d="M317.1259 132.2783
L317.2688 132.3498
" />
<path d="M317.2688 132.3498
L317.3402 132.4212
" />
<path d="M317.3402 132.4212
L317.4117 132.5640
" />
<path d="M317.4117 132.5640
L317.4117 132.7783
" />
<path d="M317.4117 132.7783
L317.3402 132.9212
" />
<path d="M317.3402 132.9212
L317.2688 132.9926
" />
<path d="M317.2688 132.9926
L317.1259 133.0640
" />
<path d="M317.1259 133.0640
L316.5545 133.0640
" />
<path d="M318.6259 133.7069
L318.4831 133.7783
" />
<path d="M318.4831 133.7783
L318.1974 133.7783
" />
<path d="M318.1974 133.7783
L318.0545 133.7069
" />
<path d="M318.0545 133.7069
L317.9831 133.5640
" />
<path d="M317.9831 133.5640
L317.9831 132.9926
" />
<path d="M317.9831 132.9926
L318.0545 132.8498
" />
<path d="M318.0545 132.8498
L318.1974 132.7783
" />
<path d="M318.1974 132.7783
L318.4831 132.7783
" />
<path d="M318.4831 132.7783
L318.6259 132.8498
" />
<path d="M318.6259 132.8498
L318.6974 132.9926
" />
<path d="M318.6974 132.9926
L318.6974 133.1355
" />
<path d="M318.6974 133.1355
L317.9831 133.2783
" />
<path d="M319.1974 132.7783
L319.5545 133.7783
" />
<path d="M319.5545 133.7783
L319.9117 132.7783
" />
<path d="M320.4831 133.6355
L320.5545 133.7069
" />
<path d="M320.5545 133.7069
L320.4831 133.7783
" />
<path d="M320.4831 133.7783
L320.4117 133.7069
" />
<path d="M320.4117 133.7069
L320.4831 133.6355
" />
<path d="M320.4831 133.6355
L320.4831 133.7783
" />
<path d="M320.4831 132.8498
L320.5545 132.9212
" />
<path d="M320.5545 132.9212
L320.4831 132.9926
" />
<path d="M320.4831 132.9926
L320.4117 132.9212
" />
<path d="M320.4117 132.9212
L320.4831 132.8498
" />
<path d="M320.4831 132.8498
L320.4831 132.9926
" />
</g></g>
<g style="fill:none; 
stroke:#000000; stroke-width:0.1500; stroke-opacity:1; 
stroke-linecap:round; stroke-linejoin:round;">
<text x="231.0000" y="133.8500"
textLength="11.6500" font-size="2.0000" lengthAdjust="spacingAndGlyphs"
text-anchor="start" opacity="0">Size: User</text>
<g class="stroked-text"><desc>Size: User</desc>
<path d="M231.3844 133.7147
L231.5987 133.7861
" />
<path d="M231.5987 133.7861
L231.9558 133.7861
" />
<path d="M231.9558 133.7861
L232.0987 133.7147
" />
<path d="M232.0987 133.7147
L232.1701 133.6433
" />
<path d="M232.1701 133.6433
L232.2415 133.5004
" />
<path d="M232.2415 133.5004
L232.2415 133.3576
" />
<path d="M232.2415 133.3576
L232.1701 133.2147
" />
<path d="M232.1701 133.2147
L232.0987 133.1433
" />
<path d="M232.0987 133.1433
L231.9558 133.0718
" />
<path d="M231.9558 133.0718
L231.6701 133.0004
" />
<path d="M231.6701 133.0004
L231.5273 132.9290
" />
<path d="M231.5273 132.9290
L231.4558 132.8576
" />
<path d="M231.4558 132.8576
L231.3844 132.7147
" />
<path d="M231.3844 132.7147
L231.3844 132.5718
" />
<path d="M231.3844 132.5718
L231.4558 132.4290
" />
<path d="M231.4558 132.4290
L231.5273 132.3576
" />
<path d="M231.5273 132.3576
L231.6701 132.2861
" />
<path d="M231.6701 132.2861
L232.0273 132.2861
" />
<path d="M232.0273 132.2861
L232.2415 132.3576
" />
<path d="M232.8844 133.7861
L232.8844 132.7861
" />
<path d="M232.8844 132.2861
L232.8130 132.3576
" />
<path d="M232.8130 132.3576
L232.8844 132.4290
" />
<path d="M232.8844 132.4290
L232.9558 132.3576
" />
<path d="M232.9558 132.3576
L232.8844 132.2861
" />
<path d="M232.8844 132.2861
L232.8844 132.4290
" />
<path d="M233.4558 132.7861
L234.2415 132.7861
" />
<path d="M234.2415 132.7861
L233.4558 133.7861
" />
<path d="M233.4558 133.7861
L234.2415 133.7861
" />
<path d="M235.3844 133.7147
L235.2415 133.7861
" />
<path d="M235.2415 133.7861
L234.9558 133.7861
" />
<path d="M234.9558 133.7861
L234.8130 133.7147
" />
<path d="M234.8130 133.7147
L234.7415 133.5718
" />
<path d="M234.7415 133.5718
L234.7415 133.0004
" />
<path d="M234.7415 133.0004
L234.8130 132.8576
" />
<path d="M234.8130 132.8576
L234.9558 132.7861
" />
<path d="M234.9558 132.7861
L235.2415 132.7861
" />
<path d="M235.2415 132.7861
L235.3844 132.8576
" />
<path d="M235.3844 132.8576
L235.4558 133.0004
" />
<path d="M235.4558 133.0004
L235.4558 133.1433
" />
<path d="M235.4558 133.1433
L234.7415 133.2861
" />
<path d="M236.0987 133.6433
L236.1701 133.7147
" />
<path d="M236.1701 133.7147
L236.0987 133.7861
" />
<path d="M236.0987 133.7861
L236.0273 133.7147
" />
<path d="M236.0273 133.7147
L236.0987 133.6433
" />
<path d="M236.0987 133.6433
L236.0987 133.7861
" />
<path d="M236.0987 132.8576
L236.1701 132.9290
" />
<path d="M236.1701 132.9290
L236.0987 133.0004
" />
<path d="M236.0987 133.0004
L236.0273 132.9290
" />
<path d="M236.0273 132.9290
L236.0987 132.8576
" />
<path d="M236.0987 132.8576
L236.0987 133.0004
" />
<path d="M237.9558 132.2861
L237.9558 133.5004
" />
<path d="M237.9558 133.5004
L238.0273 133.6433
" />
<path d="M238.0273 133.6433
L238.0987 133.7147
" />
<path d="M238.0987 133.7147
L238.2415 133.7861
" />
<path d="M238.2415 133.7861
L238.5273 133.7861
" />
<path d="M238.5273 133.7861
L238.6701 133.7147
" />
<path d="M238.6701 133.7147
L238.7415 133.6433
" />
<path d="M238.7415 133.6433
L238.8130 133.5004
" />
<path d="M238.8130 133.5004
L238.8130 132.2861
" />
<path d="M239.4558 133.7147
L239.5987 133.7861
" />
<path d="M239.5987 133.7861
L239.8844 133.7861
" />
<path d="M239.8844 133.7861
L240.0273 133.7147
" />
<path d="M240.0273 133.7147
L240.0987 133.5718
" />
<path d="M240.0987 133.5718
L240.0987 133.5004
" />
<path d="M240.0987 133.5004
L240.0273 133.3576
" />
<path d="M240.0273 133.3576
L239.8844 133.2861
" />
<path d="M239.8844 133.2861
L239.6701 133.2861
" />
<path d="M239.6701 133.2861
L239.5273 133.2147
" />
<path d="M239.5273 133.2147
L239.4558 133.0718
" />
<path d="M239.4558 133.0718
L239.4558 133.0004
" />
<path d="M239.4558 133.0004
L239.5273 132.8576
" />
<path d="M239.5273 132.8576
L239.6701 132.7861
" />
<path d="M239.6701 132.7861
L239.8844 132.7861
" />
<path d="M239.8844 132.7861
L240.0273 132.8576
" />
<path d="M241.3130 133.7147
L241.1701 133.7861
" />
<path d="M241.1701 133.7861
L240.8844 133.7861
" />
<path d="M240.8844 133.7861
L240.7415 133.7147
" />
<path d="M240.7415 133.7147
L240.6701 133.5718
" />
<path d="M240.6701 133.5718
L240.6701 133.0004
" />
<path d="M240.6701 133.0004
L240.7415 132.8576
" />
<path d="M240.7415 132.8576
L240.8844 132.7861
" />
<path d="M240.8844 132.7861
L241.1701 132.7861
" />
<path d="M241.1701 132.7861
L241.3130 132.8576
" />
<path d="M241.3130 132.8576
L241.3844 133.0004
" />
<path d="M241.3844 133.0004
L241.3844 133.1433
" />
<path d="M241.3844 133.1433
L240.6701 133.2861
" />
<path d="M242.0273 133.7861
L242.0273 132.7861
" />
<path d="M242.0273 133.0718
L242.0987 132.9290
" />
<path d="M242.0987 132.9290
L242.1701 132.8576
" />
<path d="M242.1701 132.8576
L242.3130 132.7861
" />
<path d="M242.3130 132.7861
L242.4558 132.7861
" />
</g></g>
<g style="fill:none; 
stroke:#000000; stroke-width:0.1500; stroke-opacity:1; 
stroke-linecap:round; stroke-linejoin:round;">
<text x="316.0000" y="136.6500"
textLength="8.5071" font-size="2.0000" lengthAdjust="spacingAndGlyphs"
text-anchor="start" opacity="0">Id: 1/1</text>
<g class="stroked-text"><desc>Id: 1/1</desc>
<path d="M316.4558 136.5861
L316.4558 135.0861
" />
<path d="M317.8130 136.5861
L317.8130 135.0861
" />
<path d="M317.8130 136.5147
L317.6701 136.5861
" />
<path d="M317.6701 136.5861
L317.3844 136.5861
" />
<path d="M317.3844 136.5861
L317.2415 136.5147
" />
<path d="M317.2415 136.5147
L317.1701 136.4433
" />
<path d="M317.1701 136.4433
L317.0987 136.3004
" />
<path d="M317.0987 136.3004
L317.0987 135.8718
" />
<path d="M317.0987 135.8718
L317.1701 135.7290
" />
<path d="M317.1701 135.7290
L317.2415 135.6576
" />
<path d="M317.2415 135.6576
L317.3844 135.5861
" />
<path d="M317.3844 135.5861
L317.6701 135.5861
" />
<path d="M317.6701 135.5861
L317.8130 135.6576
" />
<path d="M318.5273 136.4433
L318.5987 136.5147
" />
<path d="M318.5987 136.5147
L318.5273 136.5861
" />
<path d="M318.5273 136.5861
L318.4558 136.5147
" />
<path d="M318.4558 136.5147
L318.5273 136.4433
" />
<path d="M318.5273 136.4433
L318.5273 136.5861
" />
<path d="M318.5273 135.6576
L318.5987 135.7290
" />
<path d="M318.5987 135.7290
L318.5273 135.8004
" />
<path d="M318.5273 135.8004
L318.4558 135.7290
" />
<path d="M318.4558 135.7290
L318.5273 135.6576
" />
<path d="M318.5273 135.6576
L318.5273 135.8004
" />
<path d="M321.1701 136.5861
L320.3130 136.5861
" />
<path d="M320.7415 136.5861
L320.7415 135.0861
" />
<path d="M320.7415 135.0861
L320.5987 135.3004
" />
<path d="M320.5987 135.3004
L320.4558 135.4433
" />
<path d="M320.4558 135.4433
L320.3130 135.5147
" />
<path d="M322.8844 135.0147
L321.5987 136.9433
" />
<path d="M324.1701 136.5861
L323.3130 136.5861
" />
<path d="M323.7415 136.5861
L323.7415 135.0861
" />
<path d="M323.7415 135.0861
L323.5987 135.3004
" />
<path d="M323.5987 135.3004
L323.4558 135.4433
" />
<path d="M323.4558 135.4433
L323.3130 135.5147
" />
</g></g>
<g style="fill:none; 
stroke:#000000; stroke-width:0.1500; stroke-opacity:1; 
stroke-linecap:round; stroke-linejoin:round;">
<path d="M230.0000 127.5000
L338.0000 127.5000
" />
</g>
<g style="fill:none; 
stroke:#000000; stroke-width:0.4000; stroke-opacity:1; 
stroke-linecap:round; stroke-linejoin:round;">
<text x="231.0000" y="130.3000"
textLength="9.6571" font-size="2.6667" lengthAdjust="spacingAndGlyphs"
text-anchor="start" opacity="0">Title: </text>
<g class="stroked-text"><desc>Title: </desc>
<path d="M231.6917 128.2044
L232.8346 128.2044
" />
<path d="M232.0132 130.2044
L232.2632 128.2044
" />
<path d="M233.2513 130.2044
L233.4179 128.8711
" />
<path d="M233.5013 128.2044
L233.3941 128.2997
" />
<path d="M233.3941 128.2997
L233.4774 128.3949
" />
<path d="M233.4774 128.3949
L233.5846 128.2997
" />
<path d="M233.5846 128.2997
L233.5013 128.2044
" />
<path d="M233.5013 128.2044
L233.4774 128.3949
" />
<path d="M234.0846 128.8711
L234.8465 128.8711
" />
<path d="M234.4536 128.2044
L234.2393 129.9187
" />
<path d="M234.2393 129.9187
L234.3108 130.1092
" />
<path d="M234.3108 130.1092
L234.4893 130.2044
" />
<path d="M234.4893 130.2044
L234.6798 130.2044
" />
<path d="M235.6322 130.2044
L235.4536 130.1092
" />
<path d="M235.4536 130.1092
L235.3822 129.9187
" />
<path d="M235.3822 129.9187
L235.5965 128.2044
" />
<path d="M237.1679 130.1092
L236.9655 130.2044
" />
<path d="M236.9655 130.2044
L236.5846 130.2044
" />
<path d="M236.5846 130.2044
L236.4060 130.1092
" />
<path d="M236.4060 130.1092
L236.3346 129.9187
" />
<path d="M236.3346 129.9187
L236.4298 129.1568
" />
<path d="M236.4298 129.1568
L236.5489 128.9663
" />
<path d="M236.5489 128.9663
L236.7513 128.8711
" />
<path d="M236.7513 128.8711
L237.1322 128.8711
" />
<path d="M237.1322 128.8711
L237.3108 128.9663
" />
<path d="M237.3108 128.9663
L237.3822 129.1568
" />
<path d="M237.3822 129.1568
L237.3584 129.3473
" />
<path d="M237.3584 129.3473
L236.3822 129.5378
" />
<path d="M238.1322 130.0140
L238.2155 130.1092
" />
<path d="M238.2155 130.1092
L238.1084 130.2044
" />
<path d="M238.1084 130.2044
L238.0251 130.1092
" />
<path d="M238.0251 130.1092
L238.1322 130.0140
" />
<path d="M238.1322 130.0140
L238.1084 130.2044
" />
<path d="M238.2632 128.9663
L238.3465 129.0616
" />
<path d="M238.3465 129.0616
L238.2393 129.1568
" />
<path d="M238.2393 129.1568
L238.1560 129.0616
" />
<path d="M238.1560 129.0616
L238.2632 128.9663
" />
<path d="M238.2632 128.9663
L238.2393 129.1568
" />
</g></g>
<g style="fill:none; 
stroke:#000000; stroke-width:0.1500; stroke-opacity:1; 
stroke-linecap:round; stroke-linejoin:round;">
<text x="231.0000" y="126.4500"
textLength="38.7214" font-size="2.0000" lengthAdjust="spacingAndGlyphs"
text-anchor="start" opacity="0">File: neo60core_rp2040.kicad_pcb</text>
<g class="stroked-text"><desc>File: neo60core_rp2040.kicad_pcb</desc>
<path d="M231.9558 125.6004
L231.4558 125.6004
" />
<path d="M231.4558 126.3861
L231.4558 124.8861
" />
<path d="M231.4558 124.8861
L232.1701 124.8861
" />
<path d="M232.7415 126.3861
L232.7415 125.3861
" />
<path d="M232.7415 124.8861
L232.6701 124.9576
" />
<path d="M232.6701 124.9576
L232.7415 125.0290
" />
<path d="M232.7415 125.0290
L232.8130 124.9576
" />
<path d="M232.8130 124.9576
L232.7415 124.8861
" />
<path d="M232.7415 124.8861
L232.7415 125.0290
" />
<path d="M233.6701 126.3861
L233.5273 126.3147
" />
<path d="M233.5273 126.3147
L233.4558 126.1718
" />
<path d="M233.4558 126.1718
L233.4558 124.8861
" />
<path d="M234.8130 126.3147
L234.6701 126.3861
" />
<path d="M234.6701 126.3861
L234.3844 126.3861
" />
<path d="M234.3844 126.3861
L234.2415 126.3147
" />
<path d="M234.2415 126.3147
L234.1701 126.1718
" />
<path d="M234.1701 126.1718
L234.1701 125.6004
" />
<path d="M234.1701 125.6004
L234.2415 125.4576
" />
<path d="M234.2415 125.4576
L234.3844 125.3861
" />
<path d="M234.3844 125.3861
L234.6701 125.3861
" />
<path d="M234.6701 125.3861
L234.8130 125.4576
" />
<path d="M234.8130 125.4576
L234.8844 125.6004
" />
<path d="M234.8844 125.6004
L234.8844 125.7433
" />
<path d="M234.8844 125.7433
L234.1701 125.8861
" />
<path d="M235.5273 126.2433
L235.5987 126.3147
" />
<path d="M235.5987 126.3147
L235.5273 126.3861
" />
<path d="M235.5273 126.3861
L235.4558 126.3147
" />
<path d="M235.4558 126.3147
L235.5273 126.2433
" />
<path d="M235.5273 126.2433
L235.5273 126.3861
" />
<path d="M235.5273 125.4576
L235.5987 125.5290
" />
<path d="M235.5987 125.5290
L235.5273 125.6004
" />
<path d="M235.5273 125.6004
L235.4558 125.5290
" />
<path d="M235.4558 125.5290
L235.5273 125.4576
" />
<path d="M235.5273 125.4576
L235.5273 125.6004
" />
<path d="M237.3844 125.3861
L237.3844 126.3861
" />
<path d="M237.3844 125.5290
L237.4558 125.4576
" />
<path d="M237.4558 125.4576
L237.5987 125.3861
" />
<path d="M237.5987 125.3861
L237.8130 125.3861
" />
<path d="M237.8130 125.3861
L237.9558 125.4576
" />
<path d="M237.9558 125.4576
L238.0273 125.6004
" />
<path d="M238.0273 125.6004
L238.0273 126.3861
" />
<path d="M239.3130 126.3147
L239.1701 126.3861
" />
<path d="M239.1701 126.3861
L238.8844 126.3861
" />
<path d="M238.8844 126.3861
L238.7415 126.3147
" />
<path d="M238.7415 126.3147
L238.6701 126.1718
" />
<path d="M238.6701 126.1718
L238.6701 125.6004
" />
<path d="M238.6701 125.6004
L238.7415 125.4576
" />
<path d="M238.7415 125.4576
L238.8844 125.3861
" />
<path d="M238.8844 125.3861
L239.1701 125.3861
" />
<path d="M239.1701 125.3861
L239.3130 125.4576
" />
<path d="M239.3130 125.4576
L239.3844 125.6004
" />
<path d="M239.3844 125.6004
L239.3844 125.7433
" />
<path d="M239.3844 125.7433
L238.6701 125.8861
" />
<path d="M240.2415 126.3861
L240.0987 126.3147
" />
<path d="M240.0987 126.3147
L240.0273 126.2433
" />
<path d="M240.0273 126.2433
L239.9558 126.1004
" />
<path d="M239.9558 126.1004
L239.9558 125.6718
" />
<path d="M239.9558 125.6718
L240.0273 125.5290
" />
<path d="M240.0273 125.5290
L240.0987 125.4576
" />
<path d="M240.0987 125.4576
L240.2415 125.3861
" />
<path d="M240.2415 125.3861
L240.4558 125.3861
" />
<path d="M240.4558 125.3861
L240.5987 125.4576
" />
<path d="M240.5987 125.4576
L240.6701 125.5290
" />
<path d="M240.6701 125.5290
L240.7415 125.6718
" />
<path d="M240.7415 125.6718
L240.7415 126.1004
" />
<path d="M240.7415 126.1004
L240.6701 126.2433
" />
<path d="M240.6701 126.2433
L240.5987 126.3147
" />
<path d="M240.5987 126.3147
L240.4558 126.3861
" />
<path d="M240.4558 126.3861
L240.2415 126.3861
" />
<path d="M242.0273 124.8861
L241.7415 124.8861
" />
<path d="M241.7415 124.8861
L241.5987 124.9576
" />
<path d="M241.5987 124.9576
L241.5273 125.0290
" />
<path d="M241.5273 125.0290
L241.3844 125.2433
" />
<path d="M241.3844 125.2433
L241.3130 125.5290
" />
<path d="M241.3130 125.5290
L241.3130 126.1004
" />
<path d="M241.3130 126.1004
L241.3844 126.2433
" />
<path d="M241.3844 126.2433
L241.4558 126.3147
" />
<path d="M241.4558 126.3147
L241.5987 126.3861
" />
<path d="M241.5987 126.3861
L241.8844 126.3861
" />
<path d="M241.8844 126.3861
L242.0273 126.3147
" />
<path d="M242.0273 126.3147
L242.0987 126.2433
" />
<path d="M242.0987 126.2433
L242.1701 126.1004
" />
<path d="M242.1701 126.1004
L242.1701 125.7433
" />
<path d="M242.1701 125.7433
L242.0987 125.6004
" />
<path d="M242.0987 125.6004
L242.0273 125.5290
" />
<path d="M242.0273 125.5290
L241.8844 125.4576
" />
<path d="M241.8844 125.4576
L241.5987 125.4576
" />
<path d="M241.5987 125.4576
L241.4558 125.5290
" />
<path d="M241.4558 125.5290
L241.3844 125.6004
" />
<path d="M241.3844 125.6004
L241.3130 125.7433
" />
<path d="M243.0987 124.8861
L243.2415 124.8861
" />
<path d="M243.2415 124.8861
L243.3844 124.9576
" />
<path d="M243.3844 124.9576
L243.4558 125.0290
" />
<path d="M243.4558 125.0290
L243.5273 125.1718
" />
<path d="M243.5273 125.1718
L243.5987 125.4576
" />
<path d="M243.5987 125.4576
L243.5987 125.8147
" />
<path d="M243.5987 125.8147
L243.5273 126.1004
" />
<path d="M243.5273 126.1004
L243.4558 126.2433
" />
<path d="M243.4558 126.2433
L243.3844 126.3147
" />
<path d="M243.3844 126.3147
L243.2415 126.3861
" />
<path d="M243.2415 126.3861
L243.0987 126.3861
" />
<path d="M243.0987 126.3861
L242.9558 126.3147
" />
<path d="M242.9558 126.3147
L242.8844 126.2433
" />
<path d="M242.8844 126.2433
L242.8130 126.1004
" />
<path d="M242.8130 126.1004
L242.7415 125.8147
" />
<path d="M242.7415 125.8147
L242.7415 125.4576
" />
<path d="M242.7415 125.4576
L242.8130 125.1718
" />
<path d="M242.8130 125.1718
L242.8844 125.0290
" />
<path d="M242.8844 125.0290
L242.9558 124.9576
" />
<path d="M242.9558 124.9576
L243.0987 124.8861
" />
<path d="M244.8844 126.3147
L244.7415 126.3861
" />
<path d="M244.7415 126.3861
L244.4558 126.3861
" />
<path d="M244.4558 126.3861
L244.3130 126.3147
" />
<path d="M244.3130 126.3147
L244.2415 126.2433
" />
<path d="M244.2415 126.2433
L244.1701 126.1004
" />
<path d="M244.1701 126.1004
L244.1701 125.6718
" />
<path d="M244.1701 125.6718
L244.2415 125.5290
" />
<path d="M244.2415 125.5290
L244.3130 125.4576
" />
<path d="M244.3130 125.4576
L244.4558 125.3861
" />
<path d="M244.4558 125.3861
L244.7415 125.3861
" />
<path d="M244.7415 125.3861
L244.8844 125.4576
" />
<path d="M245.7415 126.3861
L245.5987 126.3147
" />
<path d="M245.5987 126.3147
L245.5273 126.2433
" />
<path d="M245.5273 126.2433
L245.4558 126.1004
" />
<path d="M245.4558 126.1004
L245.4558 125.6718
" />
<path d="M245.4558 125.6718
L245.5273 125.5290
" />
<path d="M245.5273 125.5290
L245.5987 125.4576
" />
<path d="M245.5987 125.4576
L245.7415 125.3861
" />
<path d="M245.7415 125.3861
L245.9558 125.3861
" />
<path d="M245.9558 125.3861
L246.0987 125.4576
" />
<path d="M246.0987 125.4576
L246.1701 125.5290
" />
<path d="M246.1701 125.5290
L246.2415 125.6718
" />
<path d="M246.2415 125.6718
L246.2415 126.1004
" />
<path d="M246.2415 126.1004
L246.1701 126.2433
" />
<path d="M246.1701 126.2433
L246.0987 126.3147
" />
<path d="M246.0987 126.3147
L245.9558 126.3861
" />
<path d="M245.9558 126.3861
L245.7415 126.3861
" />
<path d="M246.8844 126.3861
L246.8844 125.3861
" />
<path d="M246.8844 125.6718
L246.9558 125.5290
" />
<path d="M246.9558 125.5290
L247.0273 125.4576
" />
<path d="M247.0273 125.4576
L247.1701 125.3861
" />
<path d="M247.1701 125.3861
L247.3130 125.3861
" />
<path d="M248.3844 126.3147
L248.2415 126.3861
" />
<path d="M248.2415 126.3861
L247.9558 126.3861
" />
<path d="M247.9558 126.3861
L247.8130 126.3147
" />
<path d="M247.8130 126.3147
L247.7415 126.1718
" />
<path d="M247.7415 126.1718
L247.7415 125.6004
" />
<path d="M247.7415 125.6004
L247.8130 125.4576
" />
<path d="M247.8130 125.4576
L247.9558 125.3861
" />
<path d="M247.9558 125.3861
L248.2415 125.3861
" />
<path d="M248.2415 125.3861
L248.3844 125.4576
" />
<path d="M248.3844 125.4576
L248.4558 125.6004
" />
<path d="M248.4558 125.6004
L248.4558 125.7433
" />
<path d="M248.4558 125.7433
L247.7415 125.8861
" />
<path d="M248.7415 126.5290
L249.8844 126.5290
" />
<path d="M250.2415 126.3861
L250.2415 125.3861
" />
<path d="M250.2415 125.6718
L250.3130 125.5290
" />
<path d="M250.3130 125.5290
L250.3844 125.4576
" />
<path d="M250.3844 125.4576
L250.5273 125.3861
" />
<path d="M250.5273 125.3861
L250.6701 125.3861
" />
<path d="M251.1701 125.3861
L251.1701 126.8861
" />
<path d="M251.1701 125.4576
L251.3130 125.3861
" />
<path d="M251.3130 125.3861
L251.5987 125.3861
" />
<path d="M251.5987 125.3861
L251.7415 125.4576
" />
<path d="M251.7415 125.4576
L251.8130 125.5290
" />
<path d="M251.8130 125.5290
L251.8844 125.6718
" />
<path d="M251.8844 125.6718
L251.8844 126.1004
" />
<path d="M251.8844 126.1004
L251.8130 126.2433
" />
<path d="M251.8130 126.2433
L251.7415 126.3147
" />
<path d="M251.7415 126.3147
L251.5987 126.3861
" />
<path d="M251.5987 126.3861
L251.3130 126.3861
" />
<path d="M251.3130 126.3861
L251.1701 126.3147
" />
<path d="M252.4558 125.0290
L252.5273 124.9576
" />
<path d="M252.5273 124.9576
L252.6701 124.8861
" />
<path d="M252.6701 124.8861
L253.0273 124.8861
" />
<path d="M253.0273 124.8861
L253.1701 124.9576
" />
<path d="M253.1701 124.9576
L253.2415 125.0290
" />
<path d="M253.2415 125.0290
L253.3130 125.1718
" />
<path d="M253.3130 125.1718
L253.3130 125.3147
" />
<path d="M253.3130 125.3147
L253.2415 125.5290
" />
<path d="M253.2415 125.5290
L252.3844 126.3861
" />
<path d="M252.3844 126.3861
L253.3130 126.3861
" />
<path d="M254.2415 124.8861
L254.3844 124.8861
" />
<path d="M254.3844 124.8861
L254.5273 124.9576
" />
<path d="M254.5273 124.9576
L254.5987 125.0290
" />
<path d="M254.5987 125.0290
L254.6701 125.1718
" />
<path d="M254.6701 125.1718
L254.7415 125.4576
" />
<path d="M254.7415 125.4576
L254.7415 125.8147
" />
<path d="M254.7415 125.8147
L254.6701 126.1004
" />
<path d="M254.6701 126.1004
L254.5987 126.2433
" />
<path d="M254.5987 126.2433
L254.5273 126.3147
" />
<path d="M254.5273 126.3147
L254.3844 126.3861
" />
<path d="M254.3844 126.3861
L254.2415 126.3861
" />
<path d="M254.2415 126.3861
L254.0987 126.3147
" />
<path d="M254.0987 126.3147
L254.0273 126.2433
" />
<path d="M254.0273 126.2433
L253.9558 126.1004
" />
<path d="M253.9558 126.1004
L253.8844 125.8147
" />
<path d="M253.8844 125.8147
L253.8844 125.4576
" />
<path d="M253.8844 125.4576
L253.9558 125.1718
" />
<path d="M253.9558 125.1718
L254.0273 125.0290
" />
<path d="M254.0273 125.0290
L254.0987 124.9576
" />
<path d="M254.0987 124.9576
L254.2415 124.8861
" />
<path d="M256.0273 125.3861
L256.0273 126.3861
" />
<path d="M255.6701 124.8147
L255.3130 125.8861
" />
<path d="M255.3130 125.8861
L256.2415 125.8861
" />
<path d="M257.0987 124.8861
L257.2415 124.8861
" />
<path d="M257.2415 124.8861
L257.3844 124.9576
" />
<path d="M257.3844 124.9576
L257.4558 125.0290
" />
<path d="M257.4558 125.0290
L257.5273 125.1718
" />
<path d="M257.5273 125.1718
L257.5987 125.4576
" />
<path d="M257.5987 125.4576
L257.5987 125.8147
" />
<path d="M257.5987 125.8147
L257.5273 126.1004
" />
<path d="M257.5273 126.1004
L257.4558 126.2433
" />
<path d="M257.4558 126.2433
L257.3844 126.3147
" />
<path d="M257.3844 126.3147
L257.2415 126.3861
" />
<path d="M257.2415 126.3861
L257.0987 126.3861
" />
<path d="M257.0987 126.3861
L256.9558 126.3147
" />
<path d="M256.9558 126.3147
L256.8844 126.2433
" />
<path d="M256.8844 126.2433
L256.8130 126.1004
" />
<path d="M256.8130 126.1004
L256.7415 125.8147
" />
<path d="M256.7415 125.8147
L256.7415 125.4576
" />
<path d="M256.7415 125.4576
L256.8130 125.1718
" />
<path d="M256.8130 125.1718
L256.8844 125.0290
" />
<path d="M256.8844 125.0290
L256.9558 124.9576
" />
<path d="M256.9558 124.9576
L257.0987 124.8861
" />
<path d="M258.2415 126.2433
L258.3130 126.3147
" />
<path d="M258.3130 126.3147
L258.2415 126.3861
" />
<path d="M258.2415 126.3861
L258.1701 126.3147
" />
<path d="M258.1701 126.3147
L258.2415 126.2433
" />
<path d="M258.2415 126.2433
L258.2415 126.3861
" />
<path d="M258.9558 126.3861
L258.9558 124.8861
" />
<path d="M259.0987 125.8147
L259.5273 126.3861
" />
<path d="M259.5273 125.3861
L258.9558 125.9576
" />
<path d="M260.1701 126.3861
L260.1701 125.3861
" />
<path d="M260.1701 124.8861
L260.0987 124.9576
" />
<path d="M260.0987 124.9576
L260.1701 125.0290
" />
<path d="M260.1701 125.0290
L260.2415 124.9576
" />
<path d="M260.2415 124.9576
L260.1701 124.8861
" />
<path d="M260.1701 124.8861
L260.1701 125.0290
" />
<path d="M261.5273 126.3147
L261.3844 126.3861
" />
<path d="M261.3844 126.3861
L261.0987 126.3861
" />
<path d="M261.0987 126.3861
L260.9558 126.3147
" />
<path d="M260.9558 126.3147
L260.8844 126.2433
" />
<path d="M260.8844 126.2433
L260.8130 126.1004
" />
<path d="M260.8130 126.1004
L260.8130 125.6718
" />
<path d="M260.8130 125.6718
L260.8844 125.5290
" />
<path d="M260.8844 125.5290
L260.9558 125.4576
" />
<path d="M260.9558 125.4576
L261.0987 125.3861
" />
<path d="M261.0987 125.3861
L261.3844 125.3861
" />
<path d="M261.3844 125.3861
L261.5273 125.4576
" />
<path d="M262.8130 126.3861
L262.8130 125.6004
" />
<path d="M262.8130 125.6004
L262.7415 125.4576
" />
<path d="M262.7415 125.4576
L262.5987 125.3861
" />
<path d="M262.5987 125.3861
L262.3130 125.3861
" />
<path d="M262.3130 125.3861
L262.1701 125.4576
" />
<path d="M262.8130 126.3147
L262.6701 126.3861
" />
<path d="M262.6701 126.3861
L262.3130 126.3861
" />
<path d="M262.3130 126.3861
L262.1701 126.3147
" />
<path d="M262.1701 126.3147
L262.0987 126.1718
" />
<path d="M262.0987 126.1718
L262.0987 126.0290
" />
<path d="M262.0987 126.0290
L262.1701 125.8861
" />
<path d="M262.1701 125.8861
L262.3130 125.8147
" />
<path d="M262.3130 125.8147
L262.6701 125.8147
" />
<path d="M262.6701 125.8147
L262.8130 125.7433
" />
<path d="M264.1701 126.3861
L264.1701 124.8861
" />
<path d="M264.1701 126.3147
L264.0273 126.3861
" />
<path d="M264.0273 126.3861
L263.7415 126.3861
" />
<path d="M263.7415 126.3861
L263.5987 126.3147
" />
<path d="M263.5987 126.3147
L263.5273 126.2433
" />
<path d="M263.5273 126.2433
L263.4558 126.1004
" />
<path d="M263.4558 126.1004
L263.4558 125.6718
" />
<path d="M263.4558 125.6718
L263.5273 125.5290
" />
<path d="M263.5273 125.5290
L263.5987 125.4576
" />
<path d="M263.5987 125.4576
L263.7415 125.3861
" />
<path d="M263.7415 125.3861
L264.0273 125.3861
" />
<path d="M264.0273 125.3861
L264.1701 125.4576
" />
<path d="M264.5273 126.5290
L265.6701 126.5290
" />
<path d="M266.0273 125.3861
L266.0273 126.8861
" />
<path d="M266.0273 125.4576
L266.1701 125.3861
" />
<path d="M266.1701 125.3861
L266.4558 125.3861
" />
<path d="M266.4558 125.3861
L266.5987 125.4576
" />
<path d="M266.5987 125.4576
L266.6701 125.5290
" />
<path d="M266.6701 125.5290
L266.7415 125.6718
" />
<path d="M266.7415 125.6718
L266.7415 126.1004
" />
<path d="M266.7415 126.1004
L266.6701 126.2433
" />
<path d="M266.6701 126.2433
L266.5987 126.3147
" />
<path d="M266.5987 126.3147
L266.4558 126.3861
" />
<path d="M266.4558 126.3861
L266.1701 126.3861
" />
<path d="M266.1701 126.3861
L266.0273 126.3147
" />
<path d="M268.0273 126.3147
L267.8844 126.3861
" />
<path d="M267.8844 126.3861
L267.5987 126.3861
" />
<path d="M267.5987 126.3861
L267.4558 126.3147
" />
<path d="M267.4558 126.3147
L267.3844 126.2433
" />
<path d="M267.3844 126.2433
L267.3130 126.1004
" />
<path d="M267.3130 126.1004
L267.3130 125.6718
" />
<path d="M267.3130 125.6718
L267.3844 125.5290
" />
<path d="M267.3844 125.5290
L267.4558 125.4576
" />
<path d="M267.4558 125.4576
L267.5987 125.3861
" />
<path d="M267.5987 125.3861
L267.8844 125.3861
" />
<path d="M267.8844 125.3861
L268.0273 125.4576
" />
<path d="M268.6701 126.3861
L268.6701 124.8861
" />
<path d="M268.6701 125.4576
L268.8130 125.3861
" />
<path d="M268.8130 125.3861
L269.0987 125.3861
" />
<path d="M269.0987 125.3861
L269.2415 125.4576
" />
<path d="M269.2415 125.4576
L269.3130 125.5290
" />
<path d="M269.3130 125.5290
L269.3844 125.6718
" />
<path d="M269.3844 125.6718
L269.3844 126.1004
" />
<path d="M269.3844 126.1004
L269.3130 126.2433
" />
<path d="M269.3130 126.2433
L269.2415 126.3147
" />
<path d="M269.2415 126.3147
L269.0987 126.3861
" />
<path d="M269.0987 126.3861
L268.8130 126.3861
" />
<path d="M268.8130 126.3861
L268.6701 126.3147
" />
</g></g>
<g style="fill:none; 
stroke:#000000; stroke-width:0.1500; stroke-opacity:1; 
stroke-linecap:round; stroke-linejoin:round;">
<path d="M230.0000 121.5000
L338.0000 121.5000
" />
</g>
<g style="fill:none; 
stroke:#000000; stroke-width:0.1500; stroke-opacity:1; 
stroke-linecap:round; stroke-linejoin:round;">
<text x="231.0000" y="123.7500"
textLength="8.2214" font-size="2.0000" lengthAdjust="spacingAndGlyphs"
text-anchor="start" opacity="0">Sheet: </text>
<g class="stroked-text"><desc>Sheet: </desc>
<path d="M231.3844 123.6147
L231.5987 123.6861
" />
<path d="M231.5987 123.6861
L231.9558 123.6861
" />
<path d="M231.9558 123.6861
L232.0987 123.6147
" />
<path d="M232.0987 123.6147
L232.1701 123.5433
" />
<path d="M232.1701 123.5433
L232.2415 123.4004
" />
<path d="M232.2415 123.4004
L232.2415 123.2576
" />
<path d="M232.2415 123.2576
L232.1701 123.1147
" />
<path d="M232.1701 123.1147
L232.0987 123.0433
" />
<path d="M232.0987 123.0433
L231.9558 122.9718
" />
<path d="M231.9558 122.9718
L231.6701 122.9004
" />
<path d="M231.6701 122.9004
L231.5273 122.8290
" />
<path d="M231.5273 122.8290
L231.4558 122.7576
" />
<path d="M231.4558 122.7576
L231.3844 122.6147
" />
<path d="M231.3844 122.6147
L231.3844 122.4718
" />
<path d="M231.3844 122.4718
L231.4558 122.3290
" />
<path d="M231.4558 122.3290
L231.5273 122.2576
" />
<path d="M231.5273 122.2576
L231.6701 122.1861
" />
<path d="M231.6701 122.1861
L232.0273 122.1861
" />
<path d="M232.0273 122.1861
L232.2415 122.2576
" />
<path d="M232.8844 123.6861
L232.8844 122.1861
" />
<path d="M233.5273 123.6861
L233.5273 122.9004
" />
<path d="M233.5273 122.9004
L233.4558 122.7576
" />
<path d="M233.4558 122.7576
L233.3130 122.6861
" />
<path d="M233.3130 122.6861
L233.0987 122.6861
" />
<path d="M233.0987 122.6861
L232.9558 122.7576
" />
<path d="M232.9558 122.7576
L232.8844 122.8290
" />
<path d="M234.8130 123.6147
L234.6701 123.6861
" />
<path d="M234.6701 123.6861
L234.3844 123.6861
" />
<path d="M234.3844 123.6861
L234.2415 123.6147
" />
<path d="M234.2415 123.6147
L234.1701 123.4718
" />
<path d="M234.1701 123.4718
L234.1701 122.9004
" />
<path d="M234.1701 122.9004
L234.2415 122.7576
" />
<path d="M234.2415 122.7576
L234.3844 122.6861
" />
<path d="M234.3844 122.6861
L234.6701 122.6861
" />
<path d="M234.6701 122.6861
L234.8130 122.7576
" />
<path d="M234.8130 122.7576
L234.8844 122.9004
" />
<path d="M234.8844 122.9004
L234.8844 123.0433
" />
<path d="M234.8844 123.0433
L234.1701 123.1861
" />
<path d="M236.0987 123.6147
L235.9558 123.6861
" />
<path d="M235.9558 123.6861
L235.6701 123.6861
" />
<path d="M235.6701 123.6861
L235.5273 123.6147
" />
<path d="M235.5273 123.6147
L235.4558 123.4718
" />
<path d="M235.4558 123.4718
L235.4558 122.9004
" />
<path d="M235.4558 122.9004
L235.5273 122.7576
" />
<path d="M235.5273 122.7576
L235.6701 122.6861
" />
<path d="M235.6701 122.6861
L235.9558 122.6861
" />
<path d="M235.9558 122.6861
L236.0987 122.7576
" />
<path d="M236.0987 122.7576
L236.1701 122.9004
" />
<path d="M236.1701 122.9004
L236.1701 123.0433
" />
<path d="M236.1701 123.0433
L235.4558 123.1861
" />
<path d="M236.5987 122.6861
L237.1701 122.6861
" />
<path d="M236.8130 122.1861
L236.8130 123.4718
" />
<path d="M236.8130 123.4718
L236.8844 123.6147
" />
<path d="M236.8844 123.6147
L237.0273 123.6861
" />
<path d="M237.0273 123.6861
L237.1701 123.6861
" />
<path d="M237.6701 123.5433
L237.7415 123.6147
" />
<path d="M237.7415 123.6147
L237.6701 123.6861
" />
<path d="M237.6701 123.6861
L237.5987 123.6147
" />
<path d="M237.5987 123.6147
L237.6701 123.5433
" />
<path d="M237.6701 123.5433
L237.6701 123.6861
" />
<path d="M237.6701 122.7576
L237.7415 122.8290
" />
<path d="M237.7415 122.8290
L237.6701 122.9004
" />
<path d="M237.6701 122.9004
L237.5987 122.8290
" />
<path d="M237.5987 122.8290
L237.6701 122.7576
" />
<path d="M237.6701 122.7576
L237.6701 122.9004
" />
</g></g>
<g style="fill:none; 
stroke:#000000; stroke-width:0.3000; stroke-opacity:1; 
stroke-linecap:round; stroke-linejoin:round;">
<text x="231.0000" y="120.7500"
textLength="0.9000" font-size="2.0000" lengthAdjust="spacingAndGlyphs"
text-anchor="start" opacity="0"></text>
<g class="stroked-text"><desc></desc>
</g></g>
<g style="fill:none; 
stroke:#000000; stroke-width:0.1500; stroke-opacity:1; 
stroke-linecap:round; stroke-linejoin:round;">
<text x="231.0000" y="117.7500"
textLength="0.4500" font-size="2.0000" lengthAdjust="spacingAndGlyphs"
text-anchor="start" opacity="0"></text>
<g class="stroked-text"><desc></desc>
</g></g>
<g style="fill:none; 
stroke:#000000; stroke-width:0.1500; stroke-opacity:1; 
stroke-linecap:round; stroke-linejoin:round;">
<text x="231.0000" y="114.7500"
textLength="0.4500" font-size="2.0000" lengthAdjust="spacingAndGlyphs"
text-anchor="start" opacity="0"></text>
<g class="stroked-text"><desc></desc>
</g></g>
<g style="fill:none; 
stroke:#000000; stroke-width:0.1500; stroke-opacity:1; 
stroke-linecap:round; stroke-linejoin:round;">
<text x="231.0000" y="111.7500"
textLength="0.4500" font-size="2.0000" lengthAdjust="spacingAndGlyphs"
text-anchor="start" opacity="0"></text>
<g class="stroked-text"><desc></desc>
</g></g>
<g style="fill:none; 
stroke:#000000; stroke-width:0.1500; stroke-opacity:1; 
stroke-linecap:round; stroke-linejoin:round;">
<text x="231.0000" y="108.7500"
textLength="0.4500" font-size="2.0000" lengthAdjust="spacingAndGlyphs"
text-anchor="start" opacity="0"></text>
<g class="stroked-text"><desc></desc>
</g></g>
<g style="fill:none; 
stroke:#000000; stroke-width:0.1500; stroke-opacity:1; 
stroke-linecap:round; stroke-linejoin:round;">
<path d="M250.0000 131.5000
L250.0000 134.5000
" />
</g>
<g style="fill:none; 
stroke:#000000; stroke-width:0.1500; stroke-opacity:1; 
stroke-linecap:round; stroke-linejoin:round;">
<path d="M314.0000 131.5000
L314.0000 138.0000
" />
</g>
<g style="fill:none; 
stroke:#D0D2CD; stroke-width:1.0000; stroke-opacity:1; 
stroke-linecap:round; stroke-linejoin:round;">
<path d="M277.7270 24.3125
L272.9910 24.3125
" />
<path d="M314.7063 24.3125
L300.9922 24.3125
" />
<path d="M277.7270 24.3125 A1.5500 1.5500 0.0 1 0 279.3355 24.3125" />
</g>
<g style="fill:none; 
stroke:#D0D2CD; stroke-width:0.0500; stroke-opacity:1; 
stroke-linecap:round; stroke-linejoin:round;">
<path d="M58.9000 51.1375 A0.8000 0.8000 0.0 0 0 58.1000 50.3375" />
</g>
<g style="fill:none; 
stroke:#D0D2CD; stroke-width:1.0000; stroke-opacity:1; 
stroke-linecap:round; stroke-linejoin:round;">
<path d="M176.4766 117.7852 A1.5000 1.5000 0.0 0 0 177.7910 118.5625" />
</g>
<g style="fill:none; 
stroke:#D0D2CD; stroke-width:0.0500; stroke-opacity:1; 
stroke-linecap:round; stroke-linejoin:round;">
<path d="M291.4625 57.8375 A0.8000 0.8000 0.0 0 0 292.2625 57.0375" />
</g>
<g style="fill:none; 
stroke:#D0D2CD; stroke-width:1.0000; stroke-opacity:1; 
stroke-linecap:round; stroke-linejoin:round;">
<path d="M295.5167 25.1513 A2.3000 2.3000 0.0 0 0 299.6458 25.1513" />
<path d="M272.9910 24.3125 A1.5000 1.5000 0.0 0 0 271.6766 25.0898" />
<path d="M299.6458 117.7237 A1.5000 1.5000 0.0 0 0 300.9922 118.5625" />
<path d="M266.3906 25.0982 A1.5000 1.5000 0.0 0 0 264.8467 24.3496" />
<path d="M248.1003 116.2108 A2.9000 2.9000 0.0 0 0 242.4373 116.2108" />
</g>
<g style="fill:none; 
stroke:#D0D2CD; stroke-width:0.0500; stroke-opacity:1; 
stroke-linecap:round; stroke-linejoin:round;">
<path d="M58.9000 51.1375
L58.9000 57.0375
" />
</g>
<g style="fill:none; 
stroke:#D0D2CD; stroke-width:1.0000; stroke-opacity:1; 
stroke-linecap:round; stroke-linejoin:round;">
<path d="M310.5766 117.7852 A1.5000 1.5000 0.0 0 0 311.8910 118.5625" />
</g>
<g style="fill:none; 
stroke:#D0D2CD; stroke-width:0.0500; stroke-opacity:1; 
stroke-linecap:round; stroke-linejoin:round;">
<circle cx="57.1500" cy="46.6250" r="1.2000" /> 
</g>
<g style="fill:none; 
stroke:#D0D2CD; stroke-width:1.0000; stroke-opacity:1; 
stroke-linecap:round; stroke-linejoin:round;">
<path d="M172.2813 117.1375 A1.2500 1.2500 0.0 0 0 171.1859 117.7852" />
<path d="M56.9809 118.5625
L96.6331 118.5625
" />
<path d="M169.8715 24.3125
L146.1355 24.3125
" />
<path d="M171.1859 25.0898 A1.5000 1.5000 0.0 0 0 169.8715 24.3125" />
<path d="M46.6703 24.3125
L32.9562 24.3125
" />
<path d="M105.2252 116.2108 A2.9000 2.9000 0.0 0 0 99.5622 116.2108" />
<path d="M38.1813 117.1375
L41.2812 117.1375
" />
<path d="M56.9809 118.5625 A1.5500 1.5500 0.0 1 0 55.0816 118.5625" />
<path d="M264.8467 24.3496 A3.0000 3.0000 0.0 0 0 262.3878 26.6642" />
<path d="M169.8757 118.5625 A1.5000 1.5000 0.0 0 0 171.1859 117.7852" />
<path d="M105.2252 116.2108 A3.0000 3.0000 0.0 0 0 108.1544 118.5625" />
<path d="M80.1813 25.7375 A1.2500 1.2500 0.0 0 0 81.2719 25.0982" />
</g>
<g style="fill:none; 
stroke:#D0D2CD; stroke-width:0.0500; stroke-opacity:1; 
stroke-linecap:round; stroke-linejoin:round;">
<circle cx="290.5125" cy="46.6250" r="1.2000" /> 
</g>
<g style="fill:none; 
stroke:#D0D2CD; stroke-width:1.0000; stroke-opacity:1; 
stroke-linecap:round; stroke-linejoin:round;">
<path d="M219.3667 25.1514 A2.3000 2.3000 0.0 0 0 223.4958 25.1513" />
</g>
<g style="fill:none; 
stroke:#D0D2CD; stroke-width:0.0500; stroke-opacity:1; 
stroke-linecap:round; stroke-linejoin:round;">
<circle cx="291.6312" cy="104.4500" r="3.2000" /> 
</g>
<g style="fill:none; 
stroke:#D0D2CD; stroke-width:1.0000; stroke-opacity:1; 
stroke-linecap:round; stroke-linejoin:round;">
<path d="M144.5270 24.3125
L129.6422 24.3125
" />
<path d="M306.3813 117.1375 A1.2500 1.2500 0.0 0 0 305.2859 117.7852" />
<path d="M48.0167 25.1513 A2.3000 2.3000 0.0 0 0 52.1458 25.1513" />
<path d="M75.9859 25.0898 A1.5000 1.5000 0.0 0 0 74.6715 24.3125" />
<path d="M270.5812 25.7375 A1.2500 1.2500 0.0 0 0 271.6766 25.0898" />
</g>
<g style="fill:none; 
stroke:#D0D2CD; stroke-width:0.0500; stroke-opacity:1; 
stroke-linecap:round; stroke-linejoin:round;">
<path d="M56.2000 50.3375 A0.8000 0.8000 0.0 0 0 55.4000 51.1375" />
</g>
<g style="fill:none; 
stroke:#D0D2CD; stroke-width:1.0000; stroke-opacity:1; 
stroke-linecap:round; stroke-linejoin:round;">
<path d="M300.9922 118.5625
L303.9715 118.5625
" />
<path d="M316.2063 61.1061
L316.2063 25.8125
" />
<path d="M144.5270 24.3125 A1.5500 1.5500 0.0 1 0 146.1355 24.3125" />
</g>
<g style="fill:none; 
stroke:#D0D2CD; stroke-width:0.0500; stroke-opacity:1; 
stroke-linecap:round; stroke-linejoin:round;">
<path d="M291.4625 57.8375
L289.5625 57.8375
" />
</g>
<g style="fill:none; 
stroke:#D0D2CD; stroke-width:1.0000; stroke-opacity:1; 
stroke-linecap:round; stroke-linejoin:round;">
<path d="M292.5809 118.5625
L294.1703 118.5625
" />
<path d="M108.1544 118.5625
L125.2816 118.5625
" />
<path d="M201.5270 24.3125
L177.7910 24.3125
" />
<path d="M292.5809 118.5625 A1.5500 1.5500 0.0 1 0 290.6816 118.5625" />
</g>
<g style="fill:none; 
stroke:#D0D2CD; stroke-width:0.0500; stroke-opacity:1; 
stroke-linecap:round; stroke-linejoin:round;">
<path d="M288.7625 57.0375 A0.8000 0.8000 0.0 0 0 289.5625 57.8375" />
</g>
<g style="fill:none; 
stroke:#D0D2CD; stroke-width:1.0000; stroke-opacity:1; 
stroke-linecap:round; stroke-linejoin:round;">
<path d="M38.1813 117.1375 A1.2500 1.2500 0.0 0 0 37.0859 117.7852" />
<path d="M68.3270 24.3125
L53.4780 24.3125
" />
<path d="M177.7910 118.5625
L220.4816 118.5625
" />
<path d="M314.7063 118.5625 A1.5000 1.5000 0.0 0 0 316.2062 117.0625" />
<path d="M124.1668 25.1513 A2.3000 2.3000 0.0 0 0 128.2958 25.1513" />
<path d="M43.6909 118.5625
L46.6703 118.5625
" />
<path d="M96.6331 118.5625 A3.0000 3.0000 0.0 0 0 99.5622 116.2108" />
<path d="M299.6457 117.7237 A2.3000 2.3000 0.0 0 0 295.5167 117.7237" />
<path d="M82.8158 24.3496 A1.4998 1.4998 0.0 0 0 81.2719 25.0982" />
<path d="M172.2813 117.1375
L175.3812 117.1375
" />
<path d="M31.4562 117.0625 A1.5000 1.5000 0.0 0 0 32.9562 118.5625" />
<path d="M46.6703 118.5625 A1.5000 1.5000 0.0 0 0 48.0167 117.7237" />
<path d="M127.1809 118.5625 A1.5500 1.5500 0.0 1 0 125.2816 118.5625" />
<path d="M311.8910 118.5625
L314.7063 118.5625
" />
<path d="M171.1859 25.0898 A1.2500 1.2500 0.0 0 0 172.2813 25.7375" />
<path d="M85.2747 26.6642 A2.9999 2.9999 0.0 0 0 82.8158 24.3496" />
<path d="M239.5082 118.5625 A3.0000 3.0000 0.0 0 0 242.4373 116.2108" />
<path d="M295.5167 25.1513 A1.5000 1.5000 0.0 0 0 294.1703 24.3125" />
<path d="M248.1003 116.2108 A3.0000 3.0000 0.0 0 0 251.0294 118.5625" />
<path d="M85.2747 26.6642 A2.9000 2.9000 0.0 0 0 90.9377 26.6642" />
<path d="M35.7715 118.5625 A1.5001 1.5001 0.0 0 0 37.0859 117.7852" />
<path d="M48.0167 25.1513 A1.5000 1.5000 0.0 0 0 46.6703 24.3125" />
<path d="M74.6715 24.3125
L69.9355 24.3125
" />
<path d="M129.6422 24.3125 A1.5000 1.5000 0.0 0 0 128.2958 25.1513" />
<path d="M175.3812 25.7375 A1.2500 1.2500 0.0 0 0 176.4766 25.0898" />
<path d="M32.9562 118.5625
L35.7715 118.5625
" />
<path d="M42.3766 117.7852 A1.2500 1.2500 0.0 0 0 41.2812 117.1375" />
<path d="M52.1458 117.7237 A2.3000 2.3000 0.0 0 0 48.0167 117.7237" />
</g>
<g style="fill:none; 
stroke:#D0D2CD; stroke-width:0.0500; stroke-opacity:1; 
stroke-linecap:round; stroke-linejoin:round;">
<path d="M292.2625 51.1375 A0.8000 0.8000 0.0 0 0 291.4625 50.3375" />
</g>
<g style="fill:none; 
stroke:#D0D2CD; stroke-width:1.0000; stroke-opacity:1; 
stroke-linecap:round; stroke-linejoin:round;">
<path d="M31.4563 62.8689
L31.4563 117.0625
" />
<path d="M75.9859 25.0898 A1.2500 1.2500 0.0 0 0 77.0813 25.7375" />
</g>
<g style="fill:none; 
stroke:#D0D2CD; stroke-width:0.0500; stroke-opacity:1; 
stroke-linecap:round; stroke-linejoin:round;">
<path d="M55.4000 57.0375 A0.8000 0.8000 0.0 0 0 56.2000 57.8375" />
</g>
<g style="fill:none; 
stroke:#D0D2CD; stroke-width:1.0000; stroke-opacity:1; 
stroke-linecap:round; stroke-linejoin:round;">
<path d="M270.5812 25.7375
L267.4813 25.7375
" />
<path d="M218.0203 24.3125
L203.1355 24.3125
" />
</g>
<g style="fill:none; 
stroke:#D0D2CD; stroke-width:0.0500; stroke-opacity:1; 
stroke-linecap:round; stroke-linejoin:round;">
<path d="M289.5625 50.3375 A0.8000 0.8000 0.0 0 0 288.7625 51.1375" />
</g>
<g style="fill:none; 
stroke:#D0D2CD; stroke-width:1.0000; stroke-opacity:1; 
stroke-linecap:round; stroke-linejoin:round;">
<path d="M177.7910 24.3125 A1.5000 1.5000 0.0 0 0 176.4766 25.0898" />
<path d="M222.3809 118.5625 A1.5500 1.5500 0.0 1 0 220.4816 118.5625" />
<path d="M175.3812 25.7375
L172.2813 25.7375
" />
<path d="M256.7248 26.6642 A3.0000 3.0000 0.0 0 0 253.7957 24.3125" />
<path d="M122.8203 24.3125
L93.8668 24.3125
" />
<path d="M68.3270 24.3125 A1.5500 1.5500 0.0 1 0 69.9355 24.3125" />
</g>
<g style="fill:none; 
stroke:#D0D2CD; stroke-width:0.0500; stroke-opacity:1; 
stroke-linecap:round; stroke-linejoin:round;">
<path d="M288.7625 57.0375
L288.7625 51.1375
" />
</g>
<g style="fill:none; 
stroke:#D0D2CD; stroke-width:1.0000; stroke-opacity:1; 
stroke-linecap:round; stroke-linejoin:round;">
<path d="M303.9715 118.5625 A1.5000 1.5000 0.0 0 0 305.2859 117.7852" />
<path d="M219.3667 25.1513 A1.5000 1.5000 0.0 0 0 218.0203 24.3125" />
</g>
<g style="fill:none; 
stroke:#D0D2CD; stroke-width:0.0500; stroke-opacity:1; 
stroke-linecap:round; stroke-linejoin:round;">
<path d="M55.4000 57.0375
L55.4000 51.1375
" />
<path d="M289.5625 50.3375
L291.4625 50.3375
" />
</g>
<g style="fill:none; 
stroke:#D0D2CD; stroke-width:1.0000; stroke-opacity:1; 
stroke-linecap:round; stroke-linejoin:round;">
<path d="M31.4563 25.8125
L31.4563 61.1061
" />
<path d="M32.9562 24.3125 A1.5000 1.5000 0.0 0 0 31.4563 25.8125" />
<path d="M224.8422 24.3125 A1.5000 1.5000 0.0 0 0 223.4958 25.1513" />
<path d="M310.5765 117.7852 A1.2500 1.2500 0.0 0 0 309.4812 117.1375" />
<path d="M294.1703 24.3125
L279.3355 24.3125
" />
<path d="M53.4780 24.3125 A1.5003 1.5003 0.0 0 0 52.1458 25.1513" />
<path d="M266.3906 25.0982 A1.2500 1.2500 0.0 0 0 267.4813 25.7375" />
<path d="M316.2063 117.0625
L316.2063 62.8689
" />
</g>
<g style="fill:none; 
stroke:#D0D2CD; stroke-width:0.0500; stroke-opacity:1; 
stroke-linecap:round; stroke-linejoin:round;">
<path d="M292.2625 51.1375
L292.2625 57.0375
" />
<path d="M56.2000 50.3375
L58.1000 50.3375
" />
</g>
<g style="fill:none; 
stroke:#D0D2CD; stroke-width:1.0000; stroke-opacity:1; 
stroke-linecap:round; stroke-linejoin:round;">
<path d="M201.5269 24.3125 A1.5500 1.5500 0.0 1 0 203.1355 24.3125" />
<path d="M253.7957 24.3125
L224.8422 24.3125
" />
<path d="M52.1458 117.7237 A1.5000 1.5000 0.0 0 0 53.4921 118.5625" />
</g>
<g style="fill:none; 
stroke:#D0D2CD; stroke-width:0.0500; stroke-opacity:1; 
stroke-linecap:round; stroke-linejoin:round;">
<path d="M58.1000 57.8375
L56.2000 57.8375
" />
</g>
<g style="fill:none; 
stroke:#D0D2CD; stroke-width:1.0000; stroke-opacity:1; 
stroke-linecap:round; stroke-linejoin:round;">
<path d="M53.4921 118.5625
L55.0816 118.5625
" />
<path d="M31.4563 62.8689 A1.5500 1.5500 0.0 1 0 31.4563 61.1061" />
<path d="M294.1703 118.5625 A1.5000 1.5000 0.0 0 0 295.5167 117.7237" />
<path d="M256.7248 26.6642 A2.9000 2.9000 0.0 0 0 262.3878 26.6642" />
<path d="M93.8668 24.3125 A3.0000 3.0000 0.0 0 0 90.9377 26.6642" />
<path d="M124.1667 25.1513 A1.5000 1.5000 0.0 0 0 122.8203 24.3125" />
<path d="M176.4765 117.7852 A1.2500 1.2500 0.0 0 0 175.3812 117.1375" />
<path d="M42.3766 117.7852 A1.4999 1.4999 0.0 0 0 43.6909 118.5625" />
</g>
<g style="fill:none; 
stroke:#D0D2CD; stroke-width:0.0500; stroke-opacity:1; 
stroke-linecap:round; stroke-linejoin:round;">
<path d="M58.1000 57.8375 A0.8000 0.8000 0.0 0 0 58.9000 57.0375" />
</g>
<g style="fill:none; 
stroke:#D0D2CD; stroke-width:1.0000; stroke-opacity:1; 
stroke-linecap:round; stroke-linejoin:round;">
<path d="M80.1813 25.7375
L77.0813 25.7375
" />
<path d="M316.2063 25.8125 A1.5000 1.5000 0.0 0 0 314.7063 24.3125" />
<path d="M222.3809 118.5625
L239.5082 118.5625
" />
<path d="M300.9922 24.3125 A1.5000 1.5000 0.0 0 0 299.6458 25.1513" />
<path d="M306.3813 117.1375
L309.4812 117.1375
" />
<path d="M251.0294 118.5625
L290.6816 118.5625
" />
<path d="M127.1809 118.5625
L169.8757 118.5625
" />
<path d="M316.2063 61.1061 A1.5500 1.5500 0.0 1 0 316.2063 62.8689" />
</g>
<g style="fill:none; 
stroke:#D0D2CD; stroke-width:0.0500; stroke-opacity:1; 
stroke-linecap:round; stroke-linejoin:round;">
<circle cx="56.0313" cy="104.4500" r="3.2000" /> 
<path style="fill:none; 
stroke:#D0D2CD; stroke-width:0.0500; stroke-opacity:1; 
stroke-linecap:round; stroke-linejoin:round;fill:none"
d="M 48.3250,77.1750
46.9250,77.1750
46.9250,75.7750
48.3250,75.7750
Z" /> 
</g>
<g style="fill:none; 
stroke:#D0D2CD; stroke-width:1.0000; stroke-opacity:1; 
stroke-linecap:round; stroke-linejoin:round;">
<path d="M277.7270 24.3125
L272.9910 24.3125
" />
<path d="M314.7063 24.3125
L300.9922 24.3125
" />
<path d="M277.7270 24.3125 A1.5500 1.5500 0.0 1 0 279.3355 24.3125" />
</g>
<g style="fill:none; 
stroke:#D0D2CD; stroke-width:0.0500; stroke-opacity:1; 
stroke-linecap:round; stroke-linejoin:round;">
<path d="M58.9000 51.1375 A0.8000 0.8000 0.0 0 0 58.1000 50.3375" />
</g>
<g style="fill:none; 
stroke:#D0D2CD; stroke-width:1.0000; stroke-opacity:1; 
stroke-linecap:round; stroke-linejoin:round;">
<path d="M176.4766 117.7852 A1.5000 1.5000 0.0 0 0 177.7910 118.5625" />
</g>
<g style="fill:none; 
stroke:#D0D2CD; stroke-width:0.0500; stroke-opacity:1; 
stroke-linecap:round; stroke-linejoin:round;">
<path d="M291.4625 57.8375 A0.8000 0.8000 0.0 0 0 292.2625 57.0375" />
</g>
<g style="fill:none; 
stroke:#D0D2CD; stroke-width:1.0000; stroke-opacity:1; 
stroke-linecap:round; stroke-linejoin:round;">
<path d="M295.5167 25.1513 A2.3000 2.3000 0.0 0 0 299.6458 25.1513" />
<path d="M272.9910 24.3125 A1.5000 1.5000 0.0 0 0 271.6766 25.0898" />
<path d="M299.6458 117.7237 A1.5000 1.5000 0.0 0 0 300.9922 118.5625" />
<path d="M266.3906 25.0982 A1.5000 1.5000 0.0 0 0 264.8467 24.3496" />
<path d="M248.1003 116.2108 A2.9000 2.9000 0.0 0 0 242.4373 116.2108" />
</g>
<g style="fill:none; 
stroke:#D0D2CD; stroke-width:0.0500; stroke-opacity:1; 
stroke-linecap:round; stroke-linejoin:round;">
<path d="M58.9000 51.1375
L58.9000 57.0375
" />
</g>
<g style="fill:none; 
stroke:#D0D2CD; stroke-width:1.0000; stroke-opacity:1; 
stroke-linecap:round; stroke-linejoin:round;">
<path d="M310.5766 117.7852 A1.5000 1.5000 0.0 0 0 311.8910 118.5625" />
</g>
<g style="fill:none; 
stroke:#D0D2CD; stroke-width:0.0500; stroke-opacity:1; 
stroke-linecap:round; stroke-linejoin:round;">
<circle cx="57.1500" cy="46.6250" r="1.2000" /> 
</g>
<g style="fill:none; 
stroke:#D0D2CD; stroke-width:1.0000; stroke-opacity:1; 
stroke-linecap:round; stroke-linejoin:round;">
<path d="M172.2813 117.1375 A1.2500 1.2500 0.0 0 0 171.1859 117.7852" />
<path d="M56.9809 118.5625
L96.6331 118.5625
" />
<path d="M169.8715 24.3125
L146.1355 24.3125
" />
<path d="M171.1859 25.0898 A1.5000 1.5000 0.0 0 0 169.8715 24.3125" />
<path d="M46.6703 24.3125
L32.9562 24.3125
" />
<path d="M105.2252 116.2108 A2.9000 2.9000 0.0 0 0 99.5622 116.2108" />
<path d="M38.1813 117.1375
L41.2812 117.1375
" />
<path d="M56.9809 118.5625 A1.5500 1.5500 0.0 1 0 55.0816 118.5625" />
<path d="M264.8467 24.3496 A3.0000 3.0000 0.0 0 0 262.3878 26.6642" />
<path d="M169.8757 118.5625 A1.5000 1.5000 0.0 0 0 171.1859 117.7852" />
<path d="M105.2252 116.2108 A3.0000 3.0000 0.0 0 0 108.1544 118.5625" />
<path d="M80.1813 25.7375 A1.2500 1.2500 0.0 0 0 81.2719 25.0982" />
</g>
<g style="fill:none; 
stroke:#D0D2CD; stroke-width:0.0500; stroke-opacity:1; 
stroke-linecap:round; stroke-linejoin:round;">
<circle cx="290.5125" cy="46.6250" r="1.2000" /> 
</g>
<g style="fill:none; 
stroke:#D0D2CD; stroke-width:1.0000; stroke-opacity:1; 
stroke-linecap:round; stroke-linejoin:round;">
<path d="M219.3667 25.1514 A2.3000 2.3000 0.0 0 0 223.4958 25.1513" />
</g>
<g style="fill:none; 
stroke:#D0D2CD; stroke-width:0.0500; stroke-opacity:1; 
stroke-linecap:round; stroke-linejoin:round;">
<circle cx="291.6312" cy="104.4500" r="3.2000" /> 
</g>
<g style="fill:none; 
stroke:#D0D2CD; stroke-width:1.0000; stroke-opacity:1; 
stroke-linecap:round; stroke-linejoin:round;">
<path d="M144.5270 24.3125
L129.6422 24.3125
" />
<path d="M306.3813 117.1375 A1.2500 1.2500 0.0 0 0 305.2859 117.7852" />
<path d="M48.0167 25.1513 A2.3000 2.3000 0.0 0 0 52.1458 25.1513" />
<path d="M75.9859 25.0898 A1.5000 1.5000 0.0 0 0 74.6715 24.3125" />
<path d="M270.5812 25.7375 A1.2500 1.2500 0.0 0 0 271.6766 25.0898" />
</g>
<g style="fill:none; 
stroke:#D0D2CD; stroke-width:0.0500; stroke-opacity:1; 
stroke-linecap:round; stroke-linejoin:round;">
<path d="M56.2000 50.3375 A0.8000 0.8000 0.0 0 0 55.4000 51.1375" />
</g>
<g style="fill:none; 
stroke:#D0D2CD; stroke-width:1.0000; stroke-opacity:1; 
stroke-linecap:round; stroke-linejoin:round;">
<path d="M300.9922 118.5625
L303.9715 118.5625
" />
<path d="M316.2063 61.1061
L316.2063 25.8125
" />
<path d="M144.5270 24.3125 A1.5500 1.5500 0.0 1 0 146.1355 24.3125" />
</g>
<g style="fill:none; 
stroke:#D0D2CD; stroke-width:0.0500; stroke-opacity:1; 
stroke-linecap:round; stroke-linejoin:round;">
<path d="M291.4625 57.8375
L289.5625 57.8375
" />
</g>
<g style="fill:none; 
stroke:#D0D2CD; stroke-width:1.0000; stroke-opacity:1; 
stroke-linecap:round; stroke-linejoin:round;">
<path d="M292.5809 118.5625
L294.1703 118.5625
" />
<path d="M108.1544 118.5625
L125.2816 118.5625
" />
<path d="M201.5270 24.3125
L177.7910 24.3125
" />
<path d="M292.5809 118.5625 A1.5500 1.5500 0.0 1 0 290.6816 118.5625" />
</g>
<g style="fill:none; 
stroke:#D0D2CD; stroke-width:0.0500; stroke-opacity:1; 
stroke-linecap:round; stroke-linejoin:round;">
<path d="M288.7625 57.0375 A0.8000 0.8000 0.0 0 0 289.5625 57.8375" />
</g>
<g style="fill:none; 
stroke:#D0D2CD; stroke-width:1.0000; stroke-opacity:1; 
stroke-linecap:round; stroke-linejoin:round;">
<path d="M38.1813 117.1375 A1.2500 1.2500 0.0 0 0 37.0859 117.7852" />
<path d="M68.3270 24.3125
L53.4780 24.3125
" />
<path d="M177.7910 118.5625
L220.4816 118.5625
" />
<path d="M314.7063 118.5625 A1.5000 1.5000 0.0 0 0 316.2062 117.0625" />
<path d="M124.1668 25.1513 A2.3000 2.3000 0.0 0 0 128.2958 25.1513" />
<path d="M43.6909 118.5625
L46.6703 118.5625
" />
<path d="M96.6331 118.5625 A3.0000 3.0000 0.0 0 0 99.5622 116.2108" />
<path d="M299.6457 117.7237 A2.3000 2.3000 0.0 0 0 295.5167 117.7237" />
<path d="M82.8158 24.3496 A1.4998 1.4998 0.0 0 0 81.2719 25.0982" />
<path d="M172.2813 117.1375
L175.3812 117.1375
" />
<path d="M31.4562 117.0625 A1.5000 1.5000 0.0 0 0 32.9562 118.5625" />
<path d="M46.6703 118.5625 A1.5000 1.5000 0.0 0 0 48.0167 117.7237" />
<path d="M127.1809 118.5625 A1.5500 1.5500 0.0 1 0 125.2816 118.5625" />
<path d="M311.8910 118.5625
L314.7063 118.5625
" />
<path d="M171.1859 25.0898 A1.2500 1.2500 0.0 0 0 172.2813 25.7375" />
<path d="M85.2747 26.6642 A2.9999 2.9999 0.0 0 0 82.8158 24.3496" />
<path d="M239.5082 118.5625 A3.0000 3.0000 0.0 0 0 242.4373 116.2108" />
<path d="M295.5167 25.1513 A1.5000 1.5000 0.0 0 0 294.1703 24.3125" />
<path d="M248.1003 116.2108 A3.0000 3.0000 0.0 0 0 251.0294 118.5625" />
<path d="M85.2747 26.6642 A2.9000 2.9000 0.0 0 0 90.9377 26.6642" />
<path d="M35.7715 118.5625 A1.5001 1.5001 0.0 0 0 37.0859 117.7852" />
<path d="M48.0167 25.1513 A1.5000 1.5000 0.0 0 0 46.6703 24.3125" />
<path d="M74.6715 24.3125
L69.9355 24.3125
" />
<path d="M129.6422 24.3125 A1.5000 1.5000 0.0 0 0 128.2958 25.1513" />
<path d="M175.3812 25.7375 A1.2500 1.2500 0.0 0 0 176.4766 25.0898" />
<path d="M32.9562 118.5625
L35.7715 118.5625
" />
<path d="M42.3766 117.7852 A1.2500 1.2500 0.0 0 0 41.2812 117.1375" />
<path d="M52.1458 117.7237 A2.3000 2.3000 0.0 0 0 48.0167 117.7237" />
</g>
<g style="fill:none; 
stroke:#D0D2CD; stroke-width:0.0500; stroke-opacity:1; 
stroke-linecap:round; stroke-linejoin:round;">
<path d="M292.2625 51.1375 A0.8000 0.8000 0.0 0 0 291.4625 50.3375" />
</g>
<g style="fill:none; 
stroke:#D0D2CD; stroke-width:1.0000; stroke-opacity:1; 
stroke-linecap:round; stroke-linejoin:round;">
<path d="M31.4563 62.8689
L31.4563 117.0625
" />
<path d="M75.9859 25.0898 A1.2500 1.2500 0.0 0 0 77.0813 25.7375" />
</g>
<g style="fill:none; 
stroke:#D0D2CD; stroke-width:0.0500; stroke-opacity:1; 
stroke-linecap:round; stroke-linejoin:round;">
<path d="M55.4000 57.0375 A0.8000 0.8000 0.0 0 0 56.2000 57.8375" />
</g>
<g style="fill:none; 
stroke:#D0D2CD; stroke-width:1.0000; stroke-opacity:1; 
stroke-linecap:round; stroke-linejoin:round;">
<path d="M270.5812 25.7375
L267.4813 25.7375
" />
<path d="M218.0203 24.3125
L203.1355 24.3125
" />
</g>
<g style="fill:none; 
stroke:#D0D2CD; stroke-width:0.0500; stroke-opacity:1; 
stroke-linecap:round; stroke-linejoin:round;">
<path d="M289.5625 50.3375 A0.8000 0.8000 0.0 0 0 288.7625 51.1375" />
</g>
<g style="fill:none; 
stroke:#D0D2CD; stroke-width:1.0000; stroke-opacity:1; 
stroke-linecap:round; stroke-linejoin:round;">
<path d="M177.7910 24.3125 A1.5000 1.5000 0.0 0 0 176.4766 25.0898" />
<path d="M222.3809 118.5625 A1.5500 1.5500 0.0 1 0 220.4816 118.5625" />
<path d="M175.3812 25.7375
L172.2813 25.7375
" />
<path d="M256.7248 26.6642 A3.0000 3.0000 0.0 0 0 253.7957 24.3125" />
<path d="M122.8203 24.3125
L93.8668 24.3125
" />
<path d="M68.3270 24.3125 A1.5500 1.5500 0.0 1 0 69.9355 24.3125" />
</g>
<g style="fill:none; 
stroke:#D0D2CD; stroke-width:0.0500; stroke-opacity:1; 
stroke-linecap:round; stroke-linejoin:round;">
<path d="M288.7625 57.0375
L288.7625 51.1375
" />
</g>
<g style="fill:none; 
stroke:#D0D2CD; stroke-width:1.0000; stroke-opacity:1; 
stroke-linecap:round; stroke-linejoin:round;">
<path d="M303.9715 118.5625 A1.5000 1.5000 0.0 0 0 305.2859 117.7852" />
<path d="M219.3667 25.1513 A1.5000 1.5000 0.0 0 0 218.0203 24.3125" />
</g>
<g style="fill:none; 
stroke:#D0D2CD; stroke-width:0.0500; stroke-opacity:1; 
stroke-linecap:round; stroke-linejoin:round;">
<path d="M55.4000 57.0375
L55.4000 51.1375
" />
<path d="M289.5625 50.3375
L291.4625 50.3375
" />
</g>
<g style="fill:none; 
stroke:#D0D2CD; stroke-width:1.0000; stroke-opacity:1; 
stroke-linecap:round; stroke-linejoin:round;">
<path d="M31.4563 25.8125
L31.4563 61.1061
" />
<path d="M32.9562 24.3125 A1.5000 1.5000 0.0 0 0 31.4563 25.8125" />
<path d="M224.8422 24.3125 A1.5000 1.5000 0.0 0 0 223.4958 25.1513" />
<path d="M310.5765 117.7852 A1.2500 1.2500 0.0 0 0 309.4812 117.1375" />
<path d="M294.1703 24.3125
L279.3355 24.3125
" />
<path d="M53.4780 24.3125 A1.5003 1.5003 0.0 0 0 52.1458 25.1513" />
<path d="M266.3906 25.0982 A1.2500 1.2500 0.0 0 0 267.4813 25.7375" />
<path d="M316.2063 117.0625
L316.2063 62.8689
" />
</g>
<g style="fill:none; 
stroke:#D0D2CD; stroke-width:0.0500; stroke-opacity:1; 
stroke-linecap:round; stroke-linejoin:round;">
<path d="M292.2625 51.1375
L292.2625 57.0375
" />
<path d="M56.2000 50.3375
L58.1000 50.3375
" />
</g>
<g style="fill:none; 
stroke:#D0D2CD; stroke-width:1.0000; stroke-opacity:1; 
stroke-linecap:round; stroke-linejoin:round;">
<path d="M201.5269 24.3125 A1.5500 1.5500 0.0 1 0 203.1355 24.3125" />
<path d="M253.7957 24.3125
L224.8422 24.3125
" />
<path d="M52.1458 117.7237 A1.5000 1.5000 0.0 0 0 53.4921 118.5625" />
</g>
<g style="fill:none; 
stroke:#D0D2CD; stroke-width:0.0500; stroke-opacity:1; 
stroke-linecap:round; stroke-linejoin:round;">
<path d="M58.1000 57.8375
L56.2000 57.8375
" />
</g>
<g style="fill:none; 
stroke:#D0D2CD; stroke-width:1.0000; stroke-opacity:1; 
stroke-linecap:round; stroke-linejoin:round;">
<path d="M53.4921 118.5625
L55.0816 118.5625
" />
<path d="M31.4563 62.8689 A1.5500 1.5500 0.0 1 0 31.4563 61.1061" />
<path d="M294.1703 118.5625 A1.5000 1.5000 0.0 0 0 295.5167 117.7237" />
<path d="M256.7248 26.6642 A2.9000 2.9000 0.0 0 0 262.3878 26.6642" />
<path d="M93.8668 24.3125 A3.0000 3.0000 0.0 0 0 90.9377 26.6642" />
<path d="M124.1667 25.1513 A1.5000 1.5000 0.0 0 0 122.8203 24.3125" />
<path d="M176.4765 117.7852 A1.2500 1.2500 0.0 0 0 175.3812 117.1375" />
<path d="M42.3766 117.7852 A1.4999 1.4999 0.0 0 0 43.6909 118.5625" />
</g>
<g style="fill:none; 
stroke:#D0D2CD; stroke-width:0.0500; stroke-opacity:1; 
stroke-linecap:round; stroke-linejoin:round;">
<path d="M58.1000 57.8375 A0.8000 0.8000 0.0 0 0 58.9000 57.0375" />
</g>
<g style="fill:none; 
stroke:#D0D2CD; stroke-width:1.0000; stroke-opacity:1; 
stroke-linecap:round; stroke-linejoin:round;">
<path d="M80.1813 25.7375
L77.0813 25.7375
" />
<path d="M316.2063 25.8125 A1.5000 1.5000 0.0 0 0 314.7063 24.3125" />
<path d="M222.3809 118.5625
L239.5082 118.5625
" />
<path d="M300.9922 24.3125 A1.5000 1.5000 0.0 0 0 299.6458 25.1513" />
<path d="M306.3813 117.1375
L309.4812 117.1375
" />
<path d="M251.0294 118.5625
L290.6816 118.5625
" />
<path d="M127.1809 118.5625
L169.8757 118.5625
" />
<path d="M316.2063 61.1061 A1.5500 1.5500 0.0 1 0 316.2063 62.8689" />
</g>
<g style="fill:none; 
stroke:#D0D2CD; stroke-width:0.0500; stroke-opacity:1; 
stroke-linecap:round; stroke-linejoin:round;">
<circle cx="56.0313" cy="104.4500" r="3.2000" /> 
<path style="fill:none; 
stroke:#D0D2CD; stroke-width:0.0500; stroke-opacity:1; 
stroke-linecap:round; stroke-linejoin:round;fill:none"
d="M 48.3250,77.1750
46.9250,77.1750
46.9250,75.7750
48.3250,75.7750
Z" /> 
</g> 
</svg>
