M48
; DRILL file {KiCad 8.0.1} date 2025-05-08T03:48:14+0900
; FORMAT={-:-/ absolute / metric / decimal}
; #@! TF.CreationDate,2025-05-08T03:48:14+09:00
; #@! TF.GenerationSoftware,Kicad,Pcbnew,8.0.1
; #@! TF.FileFunction,Plated,1,2,PTH
FMAT,2
METRIC
; #@! TA.AperFunction,Plated,PTH,ViaDrill
T1C0.300
; #@! TA.AperFunction,Plated,PTH,ComponentDrill
T2C1.000
; #@! TA.AperFunction,Plated,PTH,ComponentDrill
T3C1.500
; #@! TA.AperFunction,Plated,PTH,ComponentDrill
T4C2.500
%
G90
G05
T1
X47.054Y-95.875
X63.025Y-95.275
X69.24Y-97.565
X92.756Y-97.231
X103.475Y-111.6
X104.175Y-111.6
X104.875Y-111.6
X111.45Y-105.925
X111.45Y-111.925
X118.3Y-96.0
X119.0Y-96.0
X119.7Y-96.0
X121.72Y-109.35
X124.15Y-106.15
X124.85Y-106.15
X125.55Y-106.15
X128.5Y-97.75
X129.2Y-97.75
X129.9Y-97.75
X130.925Y-97.75
X131.0Y-103.925
X131.1Y-114.875
X131.8Y-114.875
X132.061Y-36.369
X132.5Y-114.875
X133.95Y-98.95
X134.928Y-98.35
X135.2Y-97.05
X135.813Y-51.287
X135.9Y-99.35
X138.475Y-55.419
X139.126Y-105.422
X140.275Y-106.571
X140.386Y-74.469
X142.65Y-113.425
X142.925Y-96.275
X143.075Y-97.175
X143.526Y-102.721
X144.675Y-113.425
X145.199Y-82.825
X150.225Y-97.675
X153.475Y-98.0
X153.475Y-98.7
X153.475Y-99.4
X156.874Y-94.519
X160.5Y-96.575
X161.2Y-96.575
X161.9Y-96.575
X174.775Y-94.8
X176.95Y-112.569
X176.95Y-116.025
X180.894Y-113.519
X181.238Y-114.319
X184.55Y-113.575
X185.25Y-113.575
X185.95Y-113.575
X193.525Y-95.3
X200.212Y-92.219
X200.912Y-92.219
X201.612Y-92.219
X206.475Y-113.55
X207.175Y-113.55
X207.875Y-113.55
X210.45Y-92.225
X211.15Y-92.225
X211.85Y-92.225
X212.9Y-95.7
X228.303Y-96.1
X251.259Y-96.475
X276.622Y-96.897
X298.609Y-100.725
X299.759Y-101.368
T2
X168.751Y-42.862
X171.291Y-42.862
X173.831Y-42.862
X176.371Y-42.862
X178.911Y-42.862
T3
X36.671Y-30.797
X39.052Y-68.897
X39.052Y-87.947
X39.052Y-106.997
X41.434Y-49.847
X41.434Y-106.997
X43.021Y-28.258
X43.815Y-68.897
X45.402Y-66.358
X45.402Y-85.407
X45.402Y-104.457
X47.784Y-47.307
X47.784Y-104.457
X48.578Y-87.947
X50.165Y-66.358
X54.927Y-85.407
X55.721Y-30.797
X60.484Y-87.947
X62.071Y-28.258
X62.865Y-106.997
X65.246Y-49.847
X65.246Y-106.997
X66.834Y-85.407
X69.215Y-104.457
X70.009Y-68.897
X71.596Y-47.307
X71.596Y-104.457
X74.771Y-30.797
X76.359Y-66.358
X79.534Y-87.947
X81.121Y-28.258
X84.296Y-49.847
X85.884Y-85.407
X86.677Y-106.997
X89.059Y-68.897
X89.059Y-106.997
X90.646Y-47.307
X93.027Y-104.457
X93.821Y-30.797
X95.409Y-66.358
X95.409Y-104.457
X98.584Y-87.947
X100.171Y-28.258
X103.346Y-49.847
X104.934Y-85.407
X108.109Y-68.897
X109.696Y-47.307
X112.871Y-30.797
X114.459Y-66.358
X117.634Y-87.947
X119.221Y-28.258
X122.396Y-49.847
X123.984Y-85.407
X127.159Y-68.897
X128.746Y-47.307
X131.921Y-30.797
X133.509Y-66.358
X136.684Y-87.947
X138.271Y-28.258
X141.446Y-49.847
X143.034Y-85.407
X146.209Y-68.897
X147.796Y-47.307
X150.971Y-30.797
X152.559Y-66.358
X155.734Y-87.947
X157.321Y-28.258
X158.115Y-106.997
X160.496Y-49.847
X162.084Y-85.407
X164.465Y-104.457
X165.259Y-68.897
X166.846Y-47.307
X170.021Y-30.797
X170.021Y-106.997
X171.609Y-66.358
X174.784Y-87.947
X176.371Y-28.258
X176.371Y-104.457
X179.546Y-49.847
X181.134Y-85.407
X184.309Y-68.897
X185.896Y-47.307
X189.071Y-30.797
X190.659Y-66.358
X193.834Y-87.947
X195.421Y-28.258
X198.596Y-49.847
X200.184Y-85.407
X203.359Y-68.897
X204.946Y-47.307
X208.121Y-30.797
X209.709Y-66.358
X212.884Y-87.947
X214.471Y-28.258
X217.646Y-49.847
X219.234Y-85.407
X222.409Y-68.897
X223.996Y-47.307
X227.171Y-30.797
X228.759Y-66.358
X229.552Y-106.997
X231.934Y-87.947
X233.521Y-28.258
X235.903Y-104.457
X236.696Y-49.847
X238.284Y-85.407
X241.459Y-68.897
X243.046Y-47.307
X246.221Y-30.797
X247.809Y-66.358
X250.984Y-87.947
X250.984Y-106.997
X252.571Y-28.258
X253.365Y-106.997
X255.746Y-49.847
X257.334Y-85.407
X257.334Y-104.457
X259.715Y-104.457
X260.509Y-68.897
X262.096Y-47.307
X265.271Y-30.797
X266.859Y-66.358
X271.621Y-28.258
X274.796Y-49.847
X274.796Y-106.997
X277.178Y-87.947
X277.178Y-106.997
X279.559Y-68.897
X281.146Y-47.307
X281.146Y-104.457
X283.527Y-85.407
X283.527Y-104.457
X284.321Y-30.797
X285.909Y-66.358
X286.702Y-87.947
X290.671Y-28.258
X291.465Y-68.897
X293.053Y-85.407
X293.846Y-30.797
X297.815Y-66.358
X298.609Y-49.847
X298.609Y-106.997
X299.72Y-59.372
X300.196Y-28.258
X300.99Y-106.997
X302.26Y-65.722
X303.371Y-30.797
X303.371Y-87.947
X304.959Y-47.307
X304.959Y-104.457
X307.34Y-104.457
X309.721Y-28.258
X309.721Y-85.407
T4
X141.176Y-103.937
M30
