%TF.GenerationSoftware,KiCad,Pcbnew,8.0.1*%
%TF.CreationDate,2025-05-08T03:48:04+09:00*%
%TF.ProjectId,neo60core_rp2040,6e656f36-3063-46f7-9265-5f7270323034,rev?*%
%TF.SameCoordinates,Original*%
%TF.FileFunction,Legend,Top*%
%TF.FilePolarity,Positive*%
%FSLAX46Y46*%
G04 Gerber Fmt 4.6, Leading zero omitted, Abs format (unit mm)*
G04 Created by KiCad (PCBNEW 8.0.1) date 2025-05-08 03:48:04*
%MOMM*%
%LPD*%
G01*
G04 APERTURE LIST*
%ADD10C,2.000000*%
%ADD11C,6.000000*%
G04 APERTURE END LIST*
D10*
X48016748Y-117723684D02*
G75*
G02*
X46670333Y-118562529I-1346448J661184D01*
G01*
X292580917Y-118562501D02*
X294170326Y-118562501D01*
X306381252Y-117137500D02*
X309481247Y-117137500D01*
X31456251Y-62868896D02*
X31456251Y-117062500D01*
X271676588Y-25089774D02*
G75*
G02*
X272990993Y-24312496I1314412J-722726D01*
G01*
X172281261Y-117137501D02*
X175381248Y-117137501D01*
X32956250Y-118562501D02*
X35771450Y-118562501D01*
X277726968Y-24312500D02*
X272990993Y-24312501D01*
X242437296Y-116210787D02*
G75*
G02*
X248100254Y-116210787I2831479J-626678D01*
G01*
X90937663Y-26664190D02*
G75*
G02*
X85274717Y-26664190I-2831473J626705D01*
G01*
X46670350Y-24312501D02*
X32956250Y-24312501D01*
X267481251Y-25737503D02*
G75*
G02*
X266390623Y-25098182I49J1250003D01*
G01*
X53492150Y-118562501D02*
G75*
G02*
X52145778Y-117723675I50J1500001D01*
G01*
X262387784Y-26664190D02*
G75*
G02*
X256724836Y-26664190I-2831474J626702D01*
G01*
X125281585Y-118562500D02*
G75*
G02*
X127180915Y-118562500I949665J1225001D01*
G01*
X175381248Y-117137501D02*
G75*
G02*
X176476549Y-117785248I-48J-1249999D01*
G01*
X68326973Y-24312501D02*
X53477968Y-24312501D01*
X99562248Y-116210788D02*
G75*
G02*
X105225155Y-116210799I2831452J-626712D01*
G01*
X316206251Y-62868899D02*
G75*
G02*
X316206252Y-61106103I-1275051J881399D01*
G01*
X175381247Y-25737502D02*
X172281251Y-25737502D01*
X242437294Y-116210787D02*
G75*
G02*
X239508178Y-118562478I-2929094J648287D01*
G01*
X299645753Y-25151316D02*
G75*
G02*
X295516745Y-25151315I-2064504J1013817D01*
G01*
X128295757Y-25151316D02*
G75*
G02*
X129642172Y-24312476I1346443J-661184D01*
G01*
X171185915Y-117785227D02*
G75*
G02*
X169875743Y-118562501I-1314415J722727D01*
G01*
X270581248Y-25737503D02*
X267481251Y-25737503D01*
X223495752Y-25151317D02*
G75*
G02*
X219366667Y-25151354I-2064552J1013817D01*
G01*
X53492150Y-118562501D02*
X55081585Y-118562500D01*
X295516742Y-117723685D02*
G75*
G02*
X294170326Y-118562524I-1346442J661185D01*
G01*
X290681580Y-118562501D02*
G75*
G02*
X292580917Y-118562501I949669J1225001D01*
G01*
X222380919Y-118562502D02*
X239508178Y-118562502D01*
X69935534Y-24312502D02*
G75*
G02*
X68326974Y-24312502I-804280J-1325002D01*
G01*
X176476587Y-25089773D02*
G75*
G02*
X175381247Y-25737542I-1095387J602273D01*
G01*
X144526972Y-24312501D02*
X129642172Y-24312501D01*
X108154351Y-118562501D02*
G75*
G02*
X105225184Y-116210792I-51J3000001D01*
G01*
X99562246Y-116210788D02*
G75*
G02*
X96633130Y-118562529I-2929146J648288D01*
G01*
X305285915Y-117785228D02*
G75*
G02*
X306381252Y-117137460I1095385J-602272D01*
G01*
X127180915Y-118562500D02*
X169875743Y-118562502D01*
X169871511Y-24312500D02*
X146135533Y-24312500D01*
X31456251Y-61106103D02*
G75*
G02*
X31456251Y-62868896I1274999J-881397D01*
G01*
X299645754Y-25151316D02*
G75*
G02*
X300992167Y-24312473I1346446J-661184D01*
G01*
X169871511Y-24312500D02*
G75*
G02*
X171185909Y-25089776I-11J-1500000D01*
G01*
X203135531Y-24312501D02*
G75*
G02*
X201526996Y-24312545I-804231J-1324999D01*
G01*
X253795726Y-24312501D02*
X224842170Y-24312500D01*
X46670350Y-24312501D02*
G75*
G02*
X48016721Y-25151330I-50J-1499999D01*
G01*
X56980922Y-118562501D02*
X96633130Y-118562501D01*
X251029370Y-118562502D02*
G75*
G02*
X248100280Y-116210781I30J3000002D01*
G01*
X201526969Y-24312501D02*
X177790994Y-24312500D01*
X253795726Y-24312501D02*
G75*
G02*
X256724812Y-26664195I-26J-2999999D01*
G01*
X52145757Y-25151317D02*
G75*
G02*
X48016744Y-25151319I-2064507J1013817D01*
G01*
X32956250Y-118562501D02*
G75*
G02*
X31456199Y-117062500I-50J1500001D01*
G01*
X271676586Y-25089774D02*
G75*
G02*
X270581248Y-25737542I-1095386J602274D01*
G01*
X316206250Y-117062500D02*
G75*
G02*
X314706250Y-118562550I-1500050J0D01*
G01*
X305285913Y-117785228D02*
G75*
G02*
X303971507Y-118562506I-1314413J722728D01*
G01*
X176476587Y-25089773D02*
G75*
G02*
X177790994Y-24312495I1314413J-722727D01*
G01*
X294170326Y-24312501D02*
X279335527Y-24312501D01*
X90937665Y-26664190D02*
G75*
G02*
X93866776Y-24312477I2929135J-648310D01*
G01*
X43690949Y-118562501D02*
G75*
G02*
X42376636Y-117785200I51J1499901D01*
G01*
X122820350Y-24312501D02*
X93866776Y-24312501D01*
X52145758Y-25151317D02*
G75*
G02*
X53477968Y-24312534I1346642J-661483D01*
G01*
X82815810Y-24349579D02*
G75*
G02*
X85274716Y-26664190I-470110J-2962821D01*
G01*
X300992167Y-118562501D02*
X303971507Y-118562502D01*
X177790994Y-118562501D02*
G75*
G02*
X176476591Y-117785225I6J1500001D01*
G01*
X172281251Y-25737502D02*
G75*
G02*
X171185872Y-25089797I-51J1250002D01*
G01*
X279335527Y-24312502D02*
G75*
G02*
X277726943Y-24312459I-804327J-1324998D01*
G01*
X48016749Y-117723684D02*
G75*
G02*
X52145752Y-117723687I2064501J-1013816D01*
G01*
X43690949Y-118562501D02*
X46670333Y-118562501D01*
X177790994Y-118562501D02*
X220481580Y-118562501D01*
X294170326Y-24312501D02*
G75*
G02*
X295516720Y-25151328I-26J-1499999D01*
G01*
X311890994Y-118562501D02*
X314706250Y-118562500D01*
X223495752Y-25151317D02*
G75*
G02*
X224842170Y-24312472I1346448J-661183D01*
G01*
X108154351Y-118562501D02*
X125281585Y-118562500D01*
X37085916Y-117785228D02*
G75*
G02*
X38181253Y-117137461I1095384J-602272D01*
G01*
X77081251Y-25737503D02*
G75*
G02*
X75985871Y-25089797I-51J1250003D01*
G01*
X309481247Y-117137500D02*
G75*
G02*
X310576550Y-117785247I-47J-1250000D01*
G01*
X295516743Y-117723685D02*
G75*
G02*
X299645675Y-117723722I2064457J-1013815D01*
G01*
X171185915Y-117785227D02*
G75*
G02*
X172281261Y-117137460I1095385J-602273D01*
G01*
X37085915Y-117785228D02*
G75*
G02*
X35771450Y-118562543I-1314515J722828D01*
G01*
X264846690Y-24349580D02*
G75*
G02*
X266390577Y-25098208I235110J-1481420D01*
G01*
X316206250Y-117062500D02*
X316206251Y-62868899D01*
X316206251Y-61106103D02*
X316206251Y-25812503D01*
X74671550Y-24312501D02*
X69935534Y-24312501D01*
X80181251Y-25737503D02*
X77081251Y-25737503D01*
X128295756Y-25151316D02*
G75*
G02*
X124166826Y-25151279I-2064456J1013816D01*
G01*
X218020328Y-24312501D02*
X203135531Y-24312500D01*
X311890994Y-118562501D02*
G75*
G02*
X310576591Y-117785225I6J1500001D01*
G01*
X262387784Y-26664190D02*
G75*
G02*
X264846689Y-24349575I2929116J-648310D01*
G01*
X55081585Y-118562500D02*
G75*
G02*
X56980919Y-118562497I949665J1225000D01*
G01*
X31456251Y-25812500D02*
X31456251Y-61106103D01*
X251029370Y-118562502D02*
X290681580Y-118562501D01*
X220481580Y-118562500D02*
G75*
G02*
X222380956Y-118562550I949720J1225000D01*
G01*
X38181253Y-117137500D02*
X41281250Y-117137500D01*
X122820350Y-24312501D02*
G75*
G02*
X124166722Y-25151330I-50J-1499999D01*
G01*
X146135533Y-24312501D02*
G75*
G02*
X144526998Y-24312543I-804233J-1324999D01*
G01*
X314706250Y-24312500D02*
G75*
G02*
X316206300Y-25812503I50J-1500000D01*
G01*
X300992167Y-118562501D02*
G75*
G02*
X299645777Y-117723672I33J1500001D01*
G01*
X314706250Y-24312500D02*
X300992167Y-24312501D01*
X81271911Y-25098201D02*
G75*
G02*
X80181251Y-25737542I-1090711J610701D01*
G01*
X218020328Y-24312501D02*
G75*
G02*
X219366721Y-25151328I-28J-1499999D01*
G01*
X81271911Y-25098201D02*
G75*
G02*
X82815804Y-24349619I1308689J-732699D01*
G01*
X41281250Y-117137500D02*
G75*
G02*
X42376627Y-117785205I50J-1250000D01*
G01*
X31456251Y-25812500D02*
G75*
G02*
X32956250Y-24312451I1500049J0D01*
G01*
X74671550Y-24312501D02*
G75*
G02*
X75985908Y-25089777I-50J-1499999D01*
G01*
D11*
G36*
X132076714Y-51182632D02*
G01*
X132076714Y-92321676D01*
X132676977Y-94507186D01*
X133241752Y-95223281D01*
X135196935Y-96325278D01*
X136110384Y-96421292D01*
X138295894Y-95799204D01*
X139011989Y-95223281D01*
X140105114Y-93237733D01*
X140199010Y-92321676D01*
X140199010Y-73736017D01*
X143540252Y-73736017D01*
X143540252Y-92321676D01*
X144162340Y-94507186D01*
X144738263Y-95223281D01*
X146689743Y-96325278D01*
X147573922Y-96421292D01*
X149759432Y-95799204D01*
X150475527Y-95223281D01*
X151577524Y-93237733D01*
X151673538Y-92321676D01*
X151673538Y-51182632D01*
X151051450Y-49057852D01*
X150475527Y-48346973D01*
X148489980Y-47243101D01*
X147573922Y-47148961D01*
X145449142Y-47766259D01*
X144738263Y-48346973D01*
X143636266Y-50298453D01*
X143540252Y-51182632D01*
X143540252Y-65613721D01*
X140199010Y-65613721D01*
X140199010Y-51182632D01*
X139585793Y-49057852D01*
X139011989Y-48346973D01*
X137026442Y-47243101D01*
X136110384Y-47148961D01*
X133941908Y-47766259D01*
X133241752Y-48346973D01*
X132168245Y-50298453D01*
X132076714Y-51182632D01*
G37*
G36*
X109017746Y-47148961D02*
G01*
X106876984Y-47664161D01*
X105808395Y-48467873D01*
X104664545Y-50348567D01*
X104478493Y-51688215D01*
X104478493Y-83880643D01*
X104690927Y-86186334D01*
X105328916Y-88320978D01*
X106393491Y-90282515D01*
X107885681Y-92068885D01*
X109670505Y-93561075D01*
X111629466Y-94625649D01*
X113763595Y-95263638D01*
X116073922Y-95476072D01*
X125833866Y-95476072D01*
X128026041Y-94853984D01*
X128735471Y-94278061D01*
X129839343Y-92292514D01*
X129933483Y-91376456D01*
X129316185Y-89251676D01*
X128735471Y-88540797D01*
X126756589Y-87438800D01*
X125833866Y-87342786D01*
X117832471Y-87342786D01*
X115664709Y-86762577D01*
X114842938Y-86111802D01*
X113733644Y-84172941D01*
X113611954Y-83122269D01*
X113611954Y-51688215D01*
X113083875Y-49544769D01*
X112260070Y-48467873D01*
X110361452Y-47334433D01*
X109017746Y-47148961D01*
G37*
G36*
X176491054Y-50677049D02*
G01*
X172523329Y-50677049D01*
X170179355Y-50836946D01*
X167969414Y-51316348D01*
X165893071Y-52114819D01*
X163949890Y-53231925D01*
X162139438Y-54667231D01*
X161565374Y-55216303D01*
X160020016Y-56980290D01*
X158796046Y-58872225D01*
X157892595Y-60892540D01*
X157308793Y-63041672D01*
X157043771Y-65320054D01*
X157026120Y-66108312D01*
X157579928Y-68279864D01*
X158312059Y-69229736D01*
X160240707Y-70374267D01*
X161433483Y-70526666D01*
X163637284Y-69915287D01*
X164488961Y-69229736D01*
X165630935Y-67303645D01*
X165785890Y-66108312D01*
X166164562Y-63842593D01*
X167300577Y-61892433D01*
X167764257Y-61393204D01*
X169655832Y-60054310D01*
X171843244Y-59467237D01*
X172523329Y-59436819D01*
X176491054Y-59436819D01*
X178767556Y-59810100D01*
X180742697Y-60933625D01*
X181250126Y-61393204D01*
X182602525Y-63253204D01*
X183197581Y-65428764D01*
X183228493Y-66108312D01*
X182849821Y-68389378D01*
X181713806Y-70360406D01*
X181250126Y-70867384D01*
X179363116Y-72228818D01*
X177171590Y-72825809D01*
X176491054Y-72856742D01*
X174479714Y-72856742D01*
X172275913Y-73448964D01*
X171424236Y-74109708D01*
X170279705Y-76014161D01*
X170127307Y-77198159D01*
X170127307Y-81671467D01*
X170684221Y-83828818D01*
X171424236Y-84759918D01*
X173321927Y-85875372D01*
X174479714Y-86023874D01*
X176643279Y-85481161D01*
X177590147Y-84759918D01*
X178734678Y-82862903D01*
X178887077Y-81671467D01*
X178887077Y-81418675D01*
X181275073Y-80823955D01*
X183476200Y-79919296D01*
X185489765Y-78704008D01*
X187315079Y-77177401D01*
X188273329Y-76165012D01*
X189723782Y-74229954D01*
X190815877Y-72146582D01*
X191550996Y-69914898D01*
X191930518Y-67534901D01*
X191988263Y-66108312D01*
X191829380Y-63786750D01*
X191352442Y-61594583D01*
X190557014Y-59531377D01*
X189442661Y-57596697D01*
X188008948Y-55790109D01*
X187460000Y-55216303D01*
X185688599Y-53675026D01*
X183786497Y-52451805D01*
X181752827Y-51547074D01*
X179586718Y-50961268D01*
X177287301Y-50694821D01*
X176491054Y-50677049D01*
G37*
G36*
X174479714Y-87529631D02*
G01*
X172308162Y-88091427D01*
X171358291Y-88826561D01*
X170216316Y-90777946D01*
X170061361Y-92002939D01*
X170623156Y-94174491D01*
X171358291Y-95124363D01*
X173284382Y-96268894D01*
X174479714Y-96421292D01*
X176698875Y-95864378D01*
X177656093Y-95124363D01*
X178800624Y-93198271D01*
X178953022Y-92002939D01*
X178396108Y-89783779D01*
X177656093Y-88826561D01*
X175704707Y-87684586D01*
X174479714Y-87529631D01*
G37*
G36*
X227244074Y-48177775D02*
G01*
X229522626Y-48442628D01*
X231672506Y-49025681D01*
X233694585Y-49927369D01*
X235589731Y-51148127D01*
X237358814Y-52688389D01*
X237907762Y-53264130D01*
X239341475Y-55075138D01*
X240455827Y-57012498D01*
X241251256Y-59077081D01*
X241728194Y-61269755D01*
X241887077Y-63591390D01*
X241887077Y-66866687D01*
X241869428Y-67655068D01*
X241604575Y-69935045D01*
X241021522Y-72086929D01*
X240119834Y-74110288D01*
X238899076Y-76004685D01*
X237358814Y-77769687D01*
X236783073Y-78318759D01*
X234972065Y-79754065D01*
X233034705Y-80871171D01*
X230970122Y-81669642D01*
X228777448Y-82149043D01*
X226455813Y-82308941D01*
X224565374Y-82308941D01*
X224565374Y-88288005D01*
X240194474Y-88288005D01*
X241110286Y-88384020D01*
X243085088Y-89486017D01*
X243665801Y-90196896D01*
X244283099Y-92321676D01*
X244188959Y-93237733D01*
X243085088Y-95223281D01*
X242375902Y-95799204D01*
X240194474Y-96421292D01*
X199802813Y-96421292D01*
X198886755Y-96325278D01*
X196901208Y-95223281D01*
X196325285Y-94507186D01*
X195703197Y-92321676D01*
X195799211Y-91437497D01*
X196901208Y-89486017D01*
X197617303Y-88910094D01*
X199802813Y-88288005D01*
X215431913Y-88288005D01*
X215431913Y-82308941D01*
X213596428Y-82308941D01*
X212802124Y-82291169D01*
X210507633Y-82024722D01*
X208346451Y-81438916D01*
X206319446Y-80534185D01*
X204427487Y-79310964D01*
X202671445Y-77769687D01*
X202126366Y-77195757D01*
X200701493Y-75387575D01*
X199592501Y-73450142D01*
X198799826Y-71383894D01*
X198323902Y-69189263D01*
X198165164Y-66866687D01*
X198165164Y-65987412D01*
X207232680Y-65987412D01*
X207422834Y-67819282D01*
X208266188Y-70015808D01*
X209628702Y-71779631D01*
X211059019Y-72941059D01*
X213209032Y-73894235D01*
X215431913Y-74175654D01*
X224565374Y-74175654D01*
X226397244Y-73987374D01*
X228593770Y-73147027D01*
X230357593Y-71779631D01*
X231514229Y-70354350D01*
X232469639Y-68204965D01*
X232753615Y-65987412D01*
X232753615Y-64470664D01*
X232563461Y-62638794D01*
X231720107Y-60442268D01*
X230357593Y-58678445D01*
X228932312Y-57521809D01*
X226782927Y-56566399D01*
X224565374Y-56282423D01*
X215431913Y-56282423D01*
X213595007Y-56472577D01*
X211397853Y-57315931D01*
X209628702Y-58678445D01*
X208472066Y-60103726D01*
X207516656Y-62253111D01*
X207232680Y-64470664D01*
X207232680Y-65987412D01*
X198165164Y-65987412D01*
X198165164Y-63591390D01*
X198182807Y-62803129D01*
X198447322Y-60524578D01*
X199028878Y-58374697D01*
X199927040Y-56352619D01*
X201141374Y-54457473D01*
X202671445Y-52688389D01*
X203241637Y-52139441D01*
X205043081Y-50705729D01*
X206980152Y-49591376D01*
X209051979Y-48795948D01*
X211257694Y-48319010D01*
X213596428Y-48160127D01*
X226455813Y-48160127D01*
X227244074Y-48177775D01*
G37*
M02*
