%TF.GenerationSoftware,KiCad,Pcbnew,8.0.1*%
%TF.CreationDate,2025-05-08T03:48:04+09:00*%
%TF.ProjectId,neo60core_rp2040,6e656f36-3063-46f7-9265-5f7270323034,rev?*%
%TF.SameCoordinates,Original*%
%TF.FileFunction,Soldermask,Bot*%
%TF.FilePolarity,Negative*%
%FSLAX46Y46*%
G04 Gerber Fmt 4.6, Leading zero omitted, Abs format (unit mm)*
G04 Created by KiCad (PCBNEW 8.0.1) date 2025-05-08 03:48:04*
%MOMM*%
%LPD*%
G01*
G04 APERTURE LIST*
G04 Aperture macros list*
%AMRoundRect*
0 Rectangle with rounded corners*
0 $1 Rounding radius*
0 $2 $3 $4 $5 $6 $7 $8 $9 X,Y pos of 4 corners*
0 Add a 4 corners polygon primitive as box body*
4,1,4,$2,$3,$4,$5,$6,$7,$8,$9,$2,$3,0*
0 Add four circle primitives for the rounded corners*
1,1,$1+$1,$2,$3*
1,1,$1+$1,$4,$5*
1,1,$1+$1,$6,$7*
1,1,$1+$1,$8,$9*
0 Add four rect primitives between the rounded corners*
20,1,$1+$1,$2,$3,$4,$5,0*
20,1,$1+$1,$4,$5,$6,$7,0*
20,1,$1+$1,$6,$7,$8,$9,0*
20,1,$1+$1,$8,$9,$2,$3,0*%
%AMOutline5P*
0 Free polygon, 5 corners , with rotation*
0 The origin of the aperture is its center*
0 number of corners: always 5*
0 $1 to $10 corner X, Y*
0 $11 Rotation angle, in degrees counterclockwise*
0 create outline with 5 corners*
4,1,5,$1,$2,$3,$4,$5,$6,$7,$8,$9,$10,$1,$2,$11*%
%AMOutline6P*
0 Free polygon, 6 corners , with rotation*
0 The origin of the aperture is its center*
0 number of corners: always 6*
0 $1 to $12 corner X, Y*
0 $13 Rotation angle, in degrees counterclockwise*
0 create outline with 6 corners*
4,1,6,$1,$2,$3,$4,$5,$6,$7,$8,$9,$10,$11,$12,$1,$2,$13*%
%AMOutline7P*
0 Free polygon, 7 corners , with rotation*
0 The origin of the aperture is its center*
0 number of corners: always 7*
0 $1 to $14 corner X, Y*
0 $15 Rotation angle, in degrees counterclockwise*
0 create outline with 7 corners*
4,1,7,$1,$2,$3,$4,$5,$6,$7,$8,$9,$10,$11,$12,$13,$14,$1,$2,$15*%
%AMOutline8P*
0 Free polygon, 8 corners , with rotation*
0 The origin of the aperture is its center*
0 number of corners: always 8*
0 $1 to $16 corner X, Y*
0 $17 Rotation angle, in degrees counterclockwise*
0 create outline with 8 corners*
4,1,8,$1,$2,$3,$4,$5,$6,$7,$8,$9,$10,$11,$12,$13,$14,$15,$16,$1,$2,$17*%
G04 Aperture macros list end*
%ADD10C,1.750000*%
%ADD11C,4.000000*%
%ADD12C,2.500000*%
%ADD13C,2.000000*%
%ADD14R,2.000000X2.000000*%
%ADD15C,3.048000*%
%ADD16C,3.987800*%
%ADD17RoundRect,0.250000X0.250000X0.475000X-0.250000X0.475000X-0.250000X-0.475000X0.250000X-0.475000X0*%
%ADD18RoundRect,0.225000X0.375000X-0.225000X0.375000X0.225000X-0.375000X0.225000X-0.375000X-0.225000X0*%
%ADD19Outline5P,-0.500000X0.450000X0.500000X0.450000X0.500000X-0.225000X0.275000X-0.450000X-0.500000X-0.450000X0.000000*%
%ADD20R,1.000000X0.900000*%
%ADD21R,1.000000X1.400000*%
%ADD22RoundRect,0.250000X-0.475000X0.250000X-0.475000X-0.250000X0.475000X-0.250000X0.475000X0.250000X0*%
%ADD23RoundRect,0.150000X0.150000X-0.587500X0.150000X0.587500X-0.150000X0.587500X-0.150000X-0.587500X0*%
%ADD24RoundRect,0.250000X-0.250000X-0.475000X0.250000X-0.475000X0.250000X0.475000X-0.250000X0.475000X0*%
%ADD25RoundRect,0.250000X0.450000X-0.262500X0.450000X0.262500X-0.450000X0.262500X-0.450000X-0.262500X0*%
%ADD26RoundRect,0.150000X-0.150000X0.650000X-0.150000X-0.650000X0.150000X-0.650000X0.150000X0.650000X0*%
%ADD27RoundRect,0.250000X0.475000X-0.250000X0.475000X0.250000X-0.475000X0.250000X-0.475000X-0.250000X0*%
%ADD28RoundRect,0.225000X-0.375000X0.225000X-0.375000X-0.225000X0.375000X-0.225000X0.375000X0.225000X0*%
%ADD29RoundRect,0.050000X-0.309359X0.238649X0.238649X-0.309359X0.309359X-0.238649X-0.238649X0.309359X0*%
%ADD30RoundRect,0.050000X-0.309359X-0.238649X-0.238649X-0.309359X0.309359X0.238649X0.238649X0.309359X0*%
%ADD31RoundRect,0.144000X-2.059095X0.000000X0.000000X-2.059095X2.059095X0.000000X0.000000X2.059095X0*%
%ADD32RoundRect,0.250000X-0.450000X0.262500X-0.450000X-0.262500X0.450000X-0.262500X0.450000X0.262500X0*%
%ADD33RoundRect,0.250000X-0.262500X-0.450000X0.262500X-0.450000X0.262500X0.450000X-0.262500X0.450000X0*%
%ADD34R,0.750000X1.000000*%
G04 APERTURE END LIST*
D10*
%TO.C,MX47*%
X154463750Y-90487500D03*
D11*
X159543750Y-90487500D03*
D10*
X164623750Y-90487500D03*
D12*
X155733750Y-87947500D03*
X162083750Y-85407500D03*
%TD*%
D10*
%TO.C,MX27*%
X273526250Y-52387500D03*
D11*
X278606250Y-52387500D03*
D10*
X283686250Y-52387500D03*
D12*
X274796250Y-49847500D03*
X281146250Y-47307500D03*
%TD*%
D10*
%TO.C,MX20*%
X140176250Y-52387500D03*
D11*
X145256250Y-52387500D03*
D10*
X150336250Y-52387500D03*
D12*
X141446250Y-49847500D03*
X147796250Y-47307500D03*
%TD*%
D10*
%TO.C,MX28*%
X297338750Y-52387500D03*
D11*
X302418750Y-52387500D03*
D10*
X307498750Y-52387500D03*
D12*
X298608750Y-49847500D03*
X304958750Y-47307500D03*
%TD*%
D10*
%TO.C,MX35*%
X163988750Y-71437500D03*
D11*
X169068750Y-71437500D03*
D10*
X174148750Y-71437500D03*
D12*
X165258750Y-68897500D03*
X171608750Y-66357500D03*
%TD*%
D10*
%TO.C,MX5*%
X111601250Y-33337500D03*
D11*
X116681250Y-33337500D03*
D10*
X121761250Y-33337500D03*
D12*
X112871250Y-30797500D03*
X119221250Y-28257500D03*
%TD*%
D13*
%TO.C,J1*%
X178911249Y-42862500D03*
X176371250Y-42862500D03*
X173831250Y-42862500D03*
X171291250Y-42862500D03*
D14*
X168751251Y-42862500D03*
%TD*%
D10*
%TO.C,MX44*%
X97313750Y-90487500D03*
D11*
X102393750Y-90487500D03*
D10*
X107473750Y-90487500D03*
D12*
X98583750Y-87947500D03*
X104933750Y-85407500D03*
%TD*%
D10*
%TO.C,MX21*%
X159226250Y-52387500D03*
D11*
X164306250Y-52387500D03*
D10*
X169386250Y-52387500D03*
D12*
X160496250Y-49847500D03*
X166846250Y-47307500D03*
%TD*%
D10*
%TO.C,MX8*%
X168751250Y-33337500D03*
D11*
X173831250Y-33337500D03*
D10*
X178911250Y-33337500D03*
D12*
X170021250Y-30797500D03*
X176371250Y-28257500D03*
%TD*%
D10*
%TO.C,MX69*%
X87788750Y-109537500D03*
D11*
X92868750Y-109537500D03*
D10*
X97948750Y-109537500D03*
D12*
X89058750Y-106997500D03*
X95408750Y-104457500D03*
%TD*%
D10*
%TO.C,MX58*%
X228282500Y-109537500D03*
D11*
X233362500Y-109537500D03*
D10*
X238442500Y-109537500D03*
D12*
X229552500Y-106997500D03*
X235902500Y-104457500D03*
%TD*%
D10*
%TO.C,MX34*%
X144938750Y-71437500D03*
D11*
X150018750Y-71437500D03*
D10*
X155098750Y-71437500D03*
D12*
X146208750Y-68897500D03*
X152558750Y-66357500D03*
%TD*%
D10*
%TO.C,MX31*%
X87788750Y-71437500D03*
D11*
X92868750Y-71437500D03*
D10*
X97948750Y-71437500D03*
D12*
X89058750Y-68897500D03*
X95408750Y-66357500D03*
%TD*%
D10*
%TO.C,MX3*%
X73501250Y-33337500D03*
D11*
X78581250Y-33337500D03*
D10*
X83661250Y-33337500D03*
D12*
X74771250Y-30797500D03*
X81121250Y-28257500D03*
%TD*%
D10*
%TO.C,MX7*%
X149701250Y-33337500D03*
D11*
X154781250Y-33337500D03*
D10*
X159861250Y-33337500D03*
D12*
X150971250Y-30797500D03*
X157321250Y-28257500D03*
%TD*%
D10*
%TO.C,MX60*%
X275907500Y-109537500D03*
D11*
X280987500Y-109537500D03*
D10*
X286067500Y-109537500D03*
D12*
X277177500Y-106997500D03*
X283527500Y-104457500D03*
%TD*%
D10*
%TO.C,MX19*%
X121126250Y-52387500D03*
D11*
X126206250Y-52387500D03*
D10*
X131286250Y-52387500D03*
D12*
X122396250Y-49847500D03*
X128746250Y-47307500D03*
%TD*%
D10*
%TO.C,MX13*%
X264001250Y-33337500D03*
D11*
X269081250Y-33337500D03*
D10*
X274161250Y-33337500D03*
D12*
X265271250Y-30797500D03*
X271621250Y-28257500D03*
%TD*%
D10*
%TO.C,MX46*%
X135413750Y-90487500D03*
D11*
X140493750Y-90487500D03*
D10*
X145573750Y-90487500D03*
D12*
X136683750Y-87947500D03*
X143033750Y-85407500D03*
%TD*%
D10*
%TO.C,MX45*%
X116363750Y-90487500D03*
D11*
X121443750Y-90487500D03*
D10*
X126523750Y-90487500D03*
D12*
X117633750Y-87947500D03*
X123983750Y-85407500D03*
%TD*%
D10*
%TO.C,MX71*%
X273526250Y-109537500D03*
D11*
X278606250Y-109537500D03*
D10*
X283686250Y-109537500D03*
D12*
X274796250Y-106997500D03*
X281146250Y-104457500D03*
%TD*%
D10*
%TO.C,MX48*%
X173513750Y-90487500D03*
D11*
X178593750Y-90487500D03*
D10*
X183673750Y-90487500D03*
D12*
X174783750Y-87947500D03*
X181133750Y-85407500D03*
%TD*%
D10*
%TO.C,MX42*%
X47307500Y-90487500D03*
D11*
X52387500Y-90487500D03*
D10*
X57467500Y-90487500D03*
D12*
X48577500Y-87947500D03*
X54927500Y-85407500D03*
%TD*%
D15*
%TO.C,S41*%
X283337000Y-64452500D03*
D16*
X283337000Y-79662500D03*
D15*
X307213000Y-64452500D03*
D16*
X307213000Y-79662500D03*
%TD*%
D10*
%TO.C,MX4*%
X92551250Y-33337500D03*
D11*
X97631250Y-33337500D03*
D10*
X102711250Y-33337500D03*
D12*
X93821250Y-30797500D03*
X100171250Y-28257500D03*
%TD*%
D15*
%TO.C,S53*%
X278574500Y-83502500D03*
D16*
X278574500Y-98712500D03*
D15*
X302450500Y-83502500D03*
D16*
X302450500Y-98712500D03*
%TD*%
D10*
%TO.C,MX26*%
X254476250Y-52387500D03*
D11*
X259556250Y-52387500D03*
D10*
X264636250Y-52387500D03*
D12*
X255746250Y-49847500D03*
X262096250Y-47307500D03*
%TD*%
D10*
%TO.C,MX73*%
X168751250Y-109537500D03*
D11*
X173831250Y-109537500D03*
D10*
X178911250Y-109537500D03*
D12*
X170021250Y-106997500D03*
X176371250Y-104457500D03*
%TD*%
D10*
%TO.C,MX43*%
X78263750Y-90487500D03*
D11*
X83343750Y-90487500D03*
D10*
X88423750Y-90487500D03*
D12*
X79533750Y-87947500D03*
X85883750Y-85407500D03*
%TD*%
D10*
%TO.C,MX6*%
X130651250Y-33337500D03*
D11*
X135731250Y-33337500D03*
D10*
X140811250Y-33337500D03*
D12*
X131921250Y-30797500D03*
X138271250Y-28257500D03*
%TD*%
D10*
%TO.C,MX32*%
X106838750Y-71437500D03*
D11*
X111918750Y-71437500D03*
D10*
X116998750Y-71437500D03*
D12*
X108108750Y-68897500D03*
X114458750Y-66357500D03*
%TD*%
D10*
%TO.C,MX74*%
X278288751Y-71437500D03*
D11*
X283368750Y-71437500D03*
D10*
X288448749Y-71437500D03*
D12*
X279558750Y-68897500D03*
X285908750Y-66357500D03*
%TD*%
D15*
%TO.C,S57*%
X211925000Y-116522500D03*
D16*
X211925000Y-101312500D03*
D15*
X111925000Y-116522500D03*
D16*
X111925000Y-101312500D03*
%TD*%
D10*
%TO.C,MX17*%
X83026250Y-52387500D03*
D11*
X88106250Y-52387500D03*
D10*
X93186250Y-52387500D03*
D12*
X84296250Y-49847500D03*
X90646250Y-47307500D03*
%TD*%
D10*
%TO.C,MX10*%
X206851250Y-33337500D03*
D11*
X211931250Y-33337500D03*
D10*
X217011250Y-33337500D03*
D12*
X208121250Y-30797500D03*
X214471250Y-28257500D03*
%TD*%
D15*
%TO.C,S2*%
X311785000Y-49974500D03*
D16*
X296575000Y-49974500D03*
D15*
X311785000Y-73850500D03*
D16*
X296575000Y-73850500D03*
%TD*%
D10*
%TO.C,MX75*%
X304800000Y-66992499D03*
D11*
X304800000Y-61912500D03*
D10*
X304800000Y-56832501D03*
D12*
X302260000Y-65722500D03*
X299720000Y-59372500D03*
%TD*%
D10*
%TO.C,MX59*%
X252095000Y-109537500D03*
D11*
X257175000Y-109537500D03*
D10*
X262255000Y-109537500D03*
D12*
X253365000Y-106997500D03*
X259715000Y-104457500D03*
%TD*%
D10*
%TO.C,MX15*%
X40163750Y-52387500D03*
D11*
X45243750Y-52387500D03*
D10*
X50323750Y-52387500D03*
D12*
X41433750Y-49847500D03*
X47783750Y-47307500D03*
%TD*%
D10*
%TO.C,MX9*%
X187801250Y-33337500D03*
D11*
X192881250Y-33337500D03*
D10*
X197961250Y-33337500D03*
D12*
X189071250Y-30797500D03*
X195421250Y-28257500D03*
%TD*%
D10*
%TO.C,MX55*%
X61595000Y-109537500D03*
D11*
X66675000Y-109537500D03*
D10*
X71755000Y-109537500D03*
D12*
X62865000Y-106997500D03*
X69215000Y-104457500D03*
%TD*%
D10*
%TO.C,MX56*%
X85407500Y-109537500D03*
D11*
X90487500Y-109537500D03*
D10*
X95567500Y-109537500D03*
D12*
X86677500Y-106997500D03*
X93027500Y-104457500D03*
%TD*%
D10*
%TO.C,MX77*%
X59213750Y-90487500D03*
D11*
X64293750Y-90487500D03*
D10*
X69373750Y-90487500D03*
D12*
X60483750Y-87947500D03*
X66833750Y-85407500D03*
%TD*%
D10*
%TO.C,MX61*%
X299720000Y-109537500D03*
D11*
X304800000Y-109537500D03*
D10*
X309880000Y-109537500D03*
D12*
X300990000Y-106997500D03*
X307340000Y-104457500D03*
%TD*%
D10*
%TO.C,MX50*%
X211613750Y-90487500D03*
D11*
X216693750Y-90487500D03*
D10*
X221773750Y-90487500D03*
D12*
X212883750Y-87947500D03*
X219233750Y-85407500D03*
%TD*%
D10*
%TO.C,MX25*%
X235426250Y-52387500D03*
D11*
X240506250Y-52387500D03*
D10*
X245586250Y-52387500D03*
D12*
X236696250Y-49847500D03*
X243046250Y-47307500D03*
%TD*%
D10*
%TO.C,MX41*%
X290195000Y-71437500D03*
D11*
X295275000Y-71437500D03*
D10*
X300355000Y-71437500D03*
D12*
X291465000Y-68897500D03*
X297815000Y-66357500D03*
%TD*%
D10*
%TO.C,MX66*%
X302101250Y-90487500D03*
D11*
X307181250Y-90487500D03*
D10*
X312261250Y-90487500D03*
D12*
X303371250Y-87947500D03*
X309721250Y-85407500D03*
%TD*%
D15*
%TO.C,S1*%
X230981250Y-116522499D03*
D16*
X230981250Y-101312500D03*
D15*
X116681250Y-116522499D03*
D16*
X116681250Y-101312500D03*
%TD*%
D10*
%TO.C,MX36*%
X183038750Y-71437500D03*
D11*
X188118750Y-71437500D03*
D10*
X193198750Y-71437500D03*
D12*
X184308750Y-68897500D03*
X190658750Y-66357500D03*
%TD*%
D10*
%TO.C,MX65*%
X37782500Y-71437500D03*
D11*
X42862500Y-71437500D03*
D10*
X47942500Y-71437500D03*
D12*
X39052500Y-68897500D03*
X45402500Y-66357500D03*
%TD*%
D10*
%TO.C,MX24*%
X216376250Y-52387500D03*
D11*
X221456250Y-52387500D03*
D10*
X226536250Y-52387500D03*
D12*
X217646250Y-49847500D03*
X223996250Y-47307500D03*
%TD*%
D10*
%TO.C,MX12*%
X244951250Y-33337500D03*
D11*
X250031250Y-33337500D03*
D10*
X255111250Y-33337500D03*
D12*
X246221250Y-30797500D03*
X252571250Y-28257500D03*
%TD*%
D10*
%TO.C,MX53*%
X285432500Y-90487500D03*
D11*
X290512500Y-90487500D03*
D10*
X295592500Y-90487500D03*
D12*
X286702500Y-87947500D03*
X293052500Y-85407500D03*
%TD*%
D10*
%TO.C,MX11*%
X225901250Y-33337500D03*
D11*
X230981250Y-33337500D03*
D10*
X236061250Y-33337500D03*
D12*
X227171250Y-30797500D03*
X233521250Y-28257500D03*
%TD*%
D10*
%TO.C,MX2*%
X54451250Y-33337500D03*
D11*
X59531250Y-33337500D03*
D10*
X64611250Y-33337500D03*
D12*
X55721250Y-30797500D03*
X62071250Y-28257500D03*
%TD*%
D10*
%TO.C,MX54*%
X37782500Y-109537500D03*
D11*
X42862500Y-109537500D03*
D10*
X47942500Y-109537500D03*
D12*
X39052500Y-106997500D03*
X45402500Y-104457500D03*
%TD*%
D10*
%TO.C,MX76*%
X37782500Y-90487500D03*
D11*
X42862500Y-90487500D03*
D10*
X47942500Y-90487500D03*
D12*
X39052500Y-87947500D03*
X45402500Y-85407500D03*
%TD*%
D10*
%TO.C,MX33*%
X125888750Y-71437500D03*
D11*
X130968750Y-71437500D03*
D10*
X136048750Y-71437500D03*
D12*
X127158750Y-68897500D03*
X133508750Y-66357500D03*
%TD*%
D10*
%TO.C,MX72*%
X297338750Y-109537500D03*
D11*
X302418750Y-109537500D03*
D10*
X307498750Y-109537500D03*
D12*
X298608750Y-106997500D03*
X304958750Y-104457500D03*
%TD*%
D10*
%TO.C,MX23*%
X197326250Y-52387500D03*
D11*
X202406250Y-52387500D03*
D10*
X207486250Y-52387500D03*
D12*
X198596250Y-49847500D03*
X204946250Y-47307500D03*
%TD*%
D10*
%TO.C,MX52*%
X249713750Y-90487500D03*
D11*
X254793750Y-90487500D03*
D10*
X259873750Y-90487500D03*
D12*
X250983750Y-87947500D03*
X257333750Y-85407500D03*
%TD*%
D10*
%TO.C,MX37*%
X202088750Y-71437500D03*
D11*
X207168750Y-71437500D03*
D10*
X212248750Y-71437500D03*
D12*
X203358750Y-68897500D03*
X209708750Y-66357500D03*
%TD*%
D10*
%TO.C,MX16*%
X63976250Y-52387500D03*
D11*
X69056250Y-52387500D03*
D10*
X74136250Y-52387500D03*
D12*
X65246250Y-49847500D03*
X71596250Y-47307500D03*
%TD*%
D10*
%TO.C,MX51*%
X230663750Y-90487500D03*
D11*
X235743750Y-90487500D03*
D10*
X240823750Y-90487500D03*
D12*
X231933750Y-87947500D03*
X238283750Y-85407500D03*
%TD*%
D10*
%TO.C,MX39*%
X240188750Y-71437500D03*
D11*
X245268750Y-71437500D03*
D10*
X250348750Y-71437500D03*
D12*
X241458750Y-68897500D03*
X247808750Y-66357500D03*
%TD*%
D10*
%TO.C,MX62*%
X275907500Y-90487500D03*
D11*
X280987500Y-90487500D03*
D10*
X286067500Y-90487500D03*
D12*
X277177500Y-87947500D03*
X283527500Y-85407500D03*
%TD*%
D10*
%TO.C,MX38*%
X221138750Y-71437500D03*
D11*
X226218750Y-71437500D03*
D10*
X231298750Y-71437500D03*
D12*
X222408750Y-68897500D03*
X228758750Y-66357500D03*
%TD*%
D10*
%TO.C,MX1*%
X35401250Y-33337500D03*
D11*
X40481250Y-33337500D03*
D10*
X45561250Y-33337500D03*
D12*
X36671250Y-30797500D03*
X43021250Y-28257500D03*
%TD*%
D10*
%TO.C,MX40*%
X259238750Y-71437500D03*
D11*
X264318750Y-71437500D03*
D10*
X269398750Y-71437500D03*
D12*
X260508750Y-68897500D03*
X266858750Y-66357500D03*
%TD*%
D10*
%TO.C,MX18*%
X102076250Y-52387500D03*
D11*
X107156250Y-52387500D03*
D10*
X112236250Y-52387500D03*
D12*
X103346250Y-49847500D03*
X109696250Y-47307500D03*
%TD*%
D10*
%TO.C,MX70*%
X249713750Y-109537500D03*
D11*
X254793750Y-109537500D03*
D10*
X259873750Y-109537500D03*
D12*
X250983750Y-106997500D03*
X257333750Y-104457500D03*
%TD*%
D15*
%TO.C,S14*%
X285718250Y-26352500D03*
D16*
X285718250Y-41562500D03*
D15*
X309594250Y-26352500D03*
D16*
X309594250Y-41562500D03*
%TD*%
D15*
%TO.C,S42*%
X40449500Y-83502500D03*
D16*
X40449500Y-98712500D03*
D15*
X64325500Y-83502500D03*
D16*
X64325500Y-98712500D03*
%TD*%
D10*
%TO.C,MX49*%
X192563750Y-90487500D03*
D11*
X197643750Y-90487500D03*
D10*
X202723750Y-90487500D03*
D12*
X193833750Y-87947500D03*
X200183750Y-85407500D03*
%TD*%
D10*
%TO.C,MX29*%
X42545000Y-71437500D03*
D11*
X47625000Y-71437500D03*
D10*
X52705000Y-71437500D03*
D12*
X43815000Y-68897500D03*
X50165000Y-66357500D03*
%TD*%
D10*
%TO.C,MX57*%
X156845000Y-109537500D03*
D11*
X161925000Y-109537500D03*
D10*
X167005000Y-109537500D03*
D12*
X158115000Y-106997500D03*
X164465000Y-104457500D03*
%TD*%
D10*
%TO.C,MX68*%
X63976250Y-109537500D03*
D11*
X69056250Y-109537500D03*
D10*
X74136250Y-109537500D03*
D12*
X65246250Y-106997500D03*
X71596250Y-104457500D03*
%TD*%
D10*
%TO.C,MX30*%
X68738750Y-71437500D03*
D11*
X73818750Y-71437500D03*
D10*
X78898750Y-71437500D03*
D12*
X70008750Y-68897500D03*
X76358750Y-66357500D03*
%TD*%
D10*
%TO.C,MX63*%
X283051250Y-33337500D03*
D11*
X288131250Y-33337500D03*
D10*
X293211250Y-33337500D03*
D12*
X284321250Y-30797500D03*
X290671250Y-28257500D03*
%TD*%
D10*
%TO.C,MX67*%
X40163750Y-109537500D03*
D11*
X45243750Y-109537500D03*
D10*
X50323750Y-109537500D03*
D12*
X41433750Y-106997500D03*
X47783750Y-104457500D03*
%TD*%
D10*
%TO.C,MX22*%
X178276250Y-52387500D03*
D11*
X183356250Y-52387500D03*
D10*
X188436250Y-52387500D03*
D12*
X179546250Y-49847500D03*
X185896250Y-47307500D03*
%TD*%
D10*
%TO.C,MX14*%
X292576250Y-33337500D03*
D11*
X297656250Y-33337500D03*
D10*
X302736250Y-33337500D03*
D12*
X293846250Y-30797500D03*
X300196250Y-28257500D03*
%TD*%
D10*
%TO.C,MX64*%
X302101250Y-33337500D03*
D11*
X307181250Y-33337500D03*
D10*
X312261250Y-33337500D03*
D12*
X303371250Y-30797500D03*
X309721250Y-28257500D03*
%TD*%
D17*
%TO.C,C7*%
X152125000Y-97675000D03*
X150225000Y-97675000D03*
%TD*%
D18*
%TO.C,D30*%
X76937500Y-74468750D03*
X76937500Y-71168750D03*
%TD*%
D19*
%TO.C,Y1*%
X157100000Y-97900000D03*
D20*
X159250000Y-97900000D03*
X159250000Y-99450000D03*
X157100000Y-99450000D03*
%TD*%
D21*
%TO.C,D65*%
X46375001Y-76475000D03*
X48874999Y-76475000D03*
%TD*%
D18*
%TO.C,D20*%
X148375000Y-55418750D03*
X148375000Y-52118750D03*
%TD*%
%TO.C,D2*%
X62650000Y-36368750D03*
X62650000Y-33068750D03*
%TD*%
D17*
%TO.C,C12*%
X135625000Y-47350000D03*
X133725000Y-47350000D03*
%TD*%
D18*
%TO.C,D66*%
X67412500Y-93518750D03*
X67412500Y-90218750D03*
%TD*%
%TO.C,D55*%
X76306250Y-112568750D03*
X76306250Y-109268750D03*
%TD*%
%TO.C,D23*%
X205525000Y-55418750D03*
X205525000Y-52118750D03*
%TD*%
D22*
%TO.C,C16*%
X119400000Y-109350001D03*
X119400000Y-111249999D03*
%TD*%
D18*
%TO.C,D3*%
X81700000Y-36368750D03*
X81700000Y-33068750D03*
%TD*%
%TO.C,D62*%
X273737500Y-93518750D03*
X273737500Y-90218750D03*
%TD*%
%TO.C,D22*%
X186475000Y-55418750D03*
X186475000Y-52118750D03*
%TD*%
D23*
%TO.C,U2*%
X137712501Y-51287500D03*
X135812501Y-51287500D03*
X136762501Y-49412499D03*
%TD*%
D24*
%TO.C,C5*%
X130975001Y-103937214D03*
X132874999Y-103937214D03*
%TD*%
D18*
%TO.C,D44*%
X105512500Y-93518750D03*
X105512500Y-90218750D03*
%TD*%
%TO.C,D24*%
X224575000Y-55418750D03*
X224575000Y-52118750D03*
%TD*%
%TO.C,D14*%
X280881250Y-36368750D03*
X280881250Y-33068750D03*
%TD*%
%TO.C,D17*%
X91225000Y-55418750D03*
X91225000Y-52118750D03*
%TD*%
%TO.C,D60*%
X288237500Y-112568750D03*
X288237500Y-109268750D03*
%TD*%
%TO.C,D45*%
X124562500Y-93518750D03*
X124562500Y-90218750D03*
%TD*%
%TO.C,D29*%
X50743750Y-74468750D03*
X50743750Y-71168750D03*
%TD*%
%TO.C,D58*%
X236481250Y-112568750D03*
X236481250Y-109268750D03*
%TD*%
%TO.C,D13*%
X272200000Y-36368750D03*
X272200000Y-33068750D03*
%TD*%
%TO.C,D39*%
X248387500Y-74468750D03*
X248387500Y-71168750D03*
%TD*%
%TO.C,D18*%
X110275000Y-55418750D03*
X110275000Y-52118750D03*
%TD*%
D25*
%TO.C,R6*%
X117450000Y-107762500D03*
X117450000Y-105937500D03*
%TD*%
D18*
%TO.C,D11*%
X234100000Y-36368750D03*
X234100000Y-33068750D03*
%TD*%
%TO.C,D26*%
X262675000Y-55418750D03*
X262675000Y-52118750D03*
%TD*%
%TO.C,D31*%
X95987500Y-74468750D03*
X95987500Y-71168750D03*
%TD*%
%TO.C,D4*%
X100750000Y-36368750D03*
X100750000Y-33068750D03*
%TD*%
%TO.C,D7*%
X157900000Y-36368750D03*
X157900000Y-33068750D03*
%TD*%
%TO.C,D40*%
X267437500Y-74468750D03*
X267437500Y-71168750D03*
%TD*%
%TO.C,D56*%
X100012500Y-112568750D03*
X100012500Y-109268750D03*
%TD*%
%TO.C,D52*%
X257912500Y-93518750D03*
X257912500Y-90218750D03*
%TD*%
%TO.C,D46*%
X143612500Y-93518750D03*
X143612500Y-90218750D03*
%TD*%
%TO.C,D61*%
X312050000Y-112568750D03*
X312050000Y-109268750D03*
%TD*%
%TO.C,D36*%
X191237500Y-74468750D03*
X191237500Y-71168750D03*
%TD*%
%TO.C,D6*%
X138850000Y-36368750D03*
X138850000Y-33068750D03*
%TD*%
%TO.C,D43*%
X86462500Y-93518750D03*
X86462500Y-90218750D03*
%TD*%
%TO.C,D51*%
X238862500Y-93518750D03*
X238862500Y-90218750D03*
%TD*%
D26*
%TO.C,U3*%
X121720000Y-104525000D03*
X122990000Y-104525000D03*
X124260000Y-104525000D03*
X125530000Y-104525000D03*
X125530000Y-111725000D03*
X124260000Y-111725000D03*
X122990000Y-111725000D03*
X121720000Y-111725000D03*
%TD*%
D18*
%TO.C,D54*%
X52493750Y-112568750D03*
X52493750Y-109268750D03*
%TD*%
%TO.C,D42*%
X55506250Y-93518750D03*
X55506250Y-90218750D03*
%TD*%
%TO.C,D32*%
X115037500Y-74468750D03*
X115037500Y-71168750D03*
%TD*%
D27*
%TO.C,C14*%
X155175000Y-99600000D03*
X155175000Y-97700002D03*
%TD*%
D18*
%TO.C,D12*%
X253150000Y-36368750D03*
X253150000Y-33068750D03*
%TD*%
%TO.C,D28*%
X305537500Y-55175000D03*
X305537500Y-51875000D03*
%TD*%
D27*
%TO.C,C13*%
X133950000Y-51299999D03*
X133950000Y-49400001D03*
%TD*%
D18*
%TO.C,D15*%
X48362500Y-55418750D03*
X48362500Y-52118750D03*
%TD*%
D22*
%TO.C,C9*%
X130800000Y-111525001D03*
X130800000Y-113424999D03*
%TD*%
D27*
%TO.C,C1*%
X142675000Y-113424998D03*
X142675000Y-111525000D03*
%TD*%
D18*
%TO.C,D35*%
X172187500Y-74468750D03*
X172187500Y-71168750D03*
%TD*%
D22*
%TO.C,C8*%
X140675000Y-111525000D03*
X140675000Y-113424998D03*
%TD*%
D18*
%TO.C,D8*%
X176950000Y-36368750D03*
X176950000Y-33068750D03*
%TD*%
%TO.C,D25*%
X243625000Y-55418750D03*
X243625000Y-52118750D03*
%TD*%
%TO.C,D27*%
X281725000Y-55418750D03*
X281725000Y-52118750D03*
%TD*%
%TO.C,D53*%
X310300000Y-93518750D03*
X310300000Y-90218750D03*
%TD*%
D24*
%TO.C,C10*%
X150225001Y-99675000D03*
X152124999Y-99675000D03*
%TD*%
D28*
%TO.C,D63*%
X308275000Y-55425000D03*
X308275000Y-58725000D03*
%TD*%
D18*
%TO.C,D19*%
X129325000Y-55418750D03*
X129325000Y-52118750D03*
%TD*%
%TO.C,D41*%
X303225000Y-74468750D03*
X303225000Y-71168750D03*
%TD*%
D29*
%TO.C,U1*%
X136907270Y-103345012D03*
X137190113Y-103062169D03*
X137472955Y-102779327D03*
X137755798Y-102496484D03*
X138038641Y-102213641D03*
X138321483Y-101930799D03*
X138604326Y-101647956D03*
X138887169Y-101365113D03*
X139170012Y-101082270D03*
X139452854Y-100799428D03*
X139735697Y-100516585D03*
X140018540Y-100233742D03*
X140301382Y-99950900D03*
X140584225Y-99668057D03*
D30*
X141768629Y-99668057D03*
X142051472Y-99950900D03*
X142334314Y-100233742D03*
X142617157Y-100516585D03*
X142900000Y-100799428D03*
X143182842Y-101082270D03*
X143465685Y-101365113D03*
X143748528Y-101647956D03*
X144031371Y-101930799D03*
X144314213Y-102213641D03*
X144597056Y-102496484D03*
X144879899Y-102779327D03*
X145162741Y-103062169D03*
X145445584Y-103345012D03*
D29*
X145445584Y-104529416D03*
X145162741Y-104812259D03*
X144879899Y-105095101D03*
X144597056Y-105377944D03*
X144314213Y-105660787D03*
X144031371Y-105943629D03*
X143748528Y-106226472D03*
X143465685Y-106509315D03*
X143182842Y-106792158D03*
X142900000Y-107075000D03*
X142617157Y-107357843D03*
X142334314Y-107640686D03*
X142051472Y-107923528D03*
X141768629Y-108206371D03*
D30*
X140584225Y-108206371D03*
X140301382Y-107923528D03*
X140018540Y-107640686D03*
X139735697Y-107357843D03*
X139452854Y-107075000D03*
X139170012Y-106792158D03*
X138887169Y-106509315D03*
X138604326Y-106226472D03*
X138321483Y-105943629D03*
X138038641Y-105660787D03*
X137755798Y-105377944D03*
X137472955Y-105095101D03*
X137190113Y-104812259D03*
X136907270Y-104529416D03*
D31*
X141176427Y-103937214D03*
%TD*%
D27*
%TO.C,C2*%
X144675000Y-113424998D03*
X144675000Y-111525000D03*
%TD*%
D18*
%TO.C,D57*%
X176950000Y-112568750D03*
X176950000Y-109268750D03*
%TD*%
D27*
%TO.C,C3*%
X132800000Y-113424999D03*
X132800000Y-111525001D03*
%TD*%
D18*
%TO.C,D10*%
X215050000Y-36368750D03*
X215050000Y-33068750D03*
%TD*%
D24*
%TO.C,C6*%
X130900001Y-97750000D03*
X132799999Y-97750000D03*
%TD*%
D32*
%TO.C,R2*%
X136704327Y-111545342D03*
X136704327Y-113370342D03*
%TD*%
D18*
%TO.C,D16*%
X72175000Y-55418750D03*
X72175000Y-52118750D03*
%TD*%
%TO.C,D48*%
X181712500Y-93518750D03*
X181712500Y-90218750D03*
%TD*%
%TO.C,D5*%
X119800000Y-36368750D03*
X119800000Y-33068750D03*
%TD*%
D25*
%TO.C,R1*%
X134779327Y-113370342D03*
X134779327Y-111545342D03*
%TD*%
D22*
%TO.C,C15*%
X161200000Y-97775001D03*
X161200000Y-99674999D03*
%TD*%
D18*
%TO.C,D37*%
X210287500Y-74468750D03*
X210287500Y-71168750D03*
%TD*%
%TO.C,D64*%
X310157813Y-36368750D03*
X310157813Y-33068750D03*
%TD*%
%TO.C,D59*%
X264425000Y-112568750D03*
X264425000Y-109268750D03*
%TD*%
%TO.C,D21*%
X167425000Y-55418750D03*
X167425000Y-52118750D03*
%TD*%
%TO.C,D50*%
X219812500Y-93518750D03*
X219812500Y-90218750D03*
%TD*%
%TO.C,D9*%
X196000000Y-36368750D03*
X196000000Y-33068750D03*
%TD*%
D25*
%TO.C,R5*%
X119400000Y-107762500D03*
X119400000Y-105937500D03*
%TD*%
D18*
%TO.C,D38*%
X229337500Y-74468750D03*
X229337500Y-71168750D03*
%TD*%
D22*
%TO.C,C11*%
X138675000Y-111525001D03*
X138675000Y-113424999D03*
%TD*%
D28*
%TO.C,D1*%
X43600000Y-33068750D03*
X43600000Y-36368750D03*
%TD*%
D18*
%TO.C,D34*%
X153137500Y-74468750D03*
X153137500Y-71168750D03*
%TD*%
D17*
%TO.C,C4*%
X152124999Y-106825000D03*
X150225001Y-106825000D03*
%TD*%
D18*
%TO.C,D49*%
X200762500Y-93518750D03*
X200762500Y-90218750D03*
%TD*%
D33*
%TO.C,R3*%
X51125000Y-76475000D03*
X52950000Y-76475000D03*
%TD*%
D34*
%TO.C,BOOTSEL1*%
X111431251Y-105917500D03*
X111431251Y-111917500D03*
X115181251Y-105917500D03*
X115181251Y-111917500D03*
%TD*%
D18*
%TO.C,D33*%
X134087500Y-74468750D03*
X134087500Y-71168750D03*
%TD*%
%TO.C,D47*%
X162662500Y-93518750D03*
X162662500Y-90218750D03*
%TD*%
D25*
%TO.C,R4*%
X163200000Y-99637500D03*
X163200000Y-97812500D03*
%TD*%
M02*
