%TF.GenerationSoftware,KiCad,Pcbnew,8.0.1*%
%TF.CreationDate,2025-05-08T03:48:04+09:00*%
%TF.ProjectId,neo60core_rp2040,6e656f36-3063-46f7-9265-5f7270323034,rev?*%
%TF.SameCoordinates,Original*%
%TF.FileFunction,Paste,Bot*%
%TF.FilePolarity,Positive*%
%FSLAX46Y46*%
G04 Gerber Fmt 4.6, Leading zero omitted, Abs format (unit mm)*
G04 Created by KiCad (PCBNEW 8.0.1) date 2025-05-08 03:48:04*
%MOMM*%
%LPD*%
G01*
G04 APERTURE LIST*
G04 Aperture macros list*
%AMRoundRect*
0 Rectangle with rounded corners*
0 $1 Rounding radius*
0 $2 $3 $4 $5 $6 $7 $8 $9 X,Y pos of 4 corners*
0 Add a 4 corners polygon primitive as box body*
4,1,4,$2,$3,$4,$5,$6,$7,$8,$9,$2,$3,0*
0 Add four circle primitives for the rounded corners*
1,1,$1+$1,$2,$3*
1,1,$1+$1,$4,$5*
1,1,$1+$1,$6,$7*
1,1,$1+$1,$8,$9*
0 Add four rect primitives between the rounded corners*
20,1,$1+$1,$2,$3,$4,$5,0*
20,1,$1+$1,$4,$5,$6,$7,0*
20,1,$1+$1,$6,$7,$8,$9,0*
20,1,$1+$1,$8,$9,$2,$3,0*%
%AMOutline5P*
0 Free polygon, 5 corners , with rotation*
0 The origin of the aperture is its center*
0 number of corners: always 5*
0 $1 to $10 corner X, Y*
0 $11 Rotation angle, in degrees counterclockwise*
0 create outline with 5 corners*
4,1,5,$1,$2,$3,$4,$5,$6,$7,$8,$9,$10,$1,$2,$11*%
%AMOutline6P*
0 Free polygon, 6 corners , with rotation*
0 The origin of the aperture is its center*
0 number of corners: always 6*
0 $1 to $12 corner X, Y*
0 $13 Rotation angle, in degrees counterclockwise*
0 create outline with 6 corners*
4,1,6,$1,$2,$3,$4,$5,$6,$7,$8,$9,$10,$11,$12,$1,$2,$13*%
%AMOutline7P*
0 Free polygon, 7 corners , with rotation*
0 The origin of the aperture is its center*
0 number of corners: always 7*
0 $1 to $14 corner X, Y*
0 $15 Rotation angle, in degrees counterclockwise*
0 create outline with 7 corners*
4,1,7,$1,$2,$3,$4,$5,$6,$7,$8,$9,$10,$11,$12,$13,$14,$1,$2,$15*%
%AMOutline8P*
0 Free polygon, 8 corners , with rotation*
0 The origin of the aperture is its center*
0 number of corners: always 8*
0 $1 to $16 corner X, Y*
0 $17 Rotation angle, in degrees counterclockwise*
0 create outline with 8 corners*
4,1,8,$1,$2,$3,$4,$5,$6,$7,$8,$9,$10,$11,$12,$13,$14,$15,$16,$1,$2,$17*%
G04 Aperture macros list end*
%ADD10RoundRect,0.250000X0.250000X0.475000X-0.250000X0.475000X-0.250000X-0.475000X0.250000X-0.475000X0*%
%ADD11RoundRect,0.225000X0.375000X-0.225000X0.375000X0.225000X-0.375000X0.225000X-0.375000X-0.225000X0*%
%ADD12Outline5P,-0.500000X0.450000X0.500000X0.450000X0.500000X-0.225000X0.275000X-0.450000X-0.500000X-0.450000X0.000000*%
%ADD13R,1.000000X0.900000*%
%ADD14R,1.000000X1.400000*%
%ADD15RoundRect,0.250000X-0.475000X0.250000X-0.475000X-0.250000X0.475000X-0.250000X0.475000X0.250000X0*%
%ADD16RoundRect,0.150000X0.150000X-0.587500X0.150000X0.587500X-0.150000X0.587500X-0.150000X-0.587500X0*%
%ADD17RoundRect,0.250000X-0.250000X-0.475000X0.250000X-0.475000X0.250000X0.475000X-0.250000X0.475000X0*%
%ADD18RoundRect,0.250000X0.450000X-0.262500X0.450000X0.262500X-0.450000X0.262500X-0.450000X-0.262500X0*%
%ADD19RoundRect,0.150000X-0.150000X0.650000X-0.150000X-0.650000X0.150000X-0.650000X0.150000X0.650000X0*%
%ADD20RoundRect,0.250000X0.475000X-0.250000X0.475000X0.250000X-0.475000X0.250000X-0.475000X-0.250000X0*%
%ADD21RoundRect,0.225000X-0.375000X0.225000X-0.375000X-0.225000X0.375000X-0.225000X0.375000X0.225000X0*%
%ADD22RoundRect,0.250000X-0.413257X0.000000X0.000000X-0.413257X0.413257X0.000000X0.000000X0.413257X0*%
%ADD23RoundRect,0.050000X-0.309359X0.238649X0.238649X-0.309359X0.309359X-0.238649X-0.238649X0.309359X0*%
%ADD24RoundRect,0.050000X-0.309359X-0.238649X-0.238649X-0.309359X0.309359X0.238649X0.238649X0.309359X0*%
%ADD25RoundRect,0.250000X-0.450000X0.262500X-0.450000X-0.262500X0.450000X-0.262500X0.450000X0.262500X0*%
%ADD26RoundRect,0.250000X-0.262500X-0.450000X0.262500X-0.450000X0.262500X0.450000X-0.262500X0.450000X0*%
%ADD27R,0.750000X1.000000*%
G04 APERTURE END LIST*
D10*
%TO.C,C7*%
X152125000Y-97675000D03*
X150225000Y-97675000D03*
%TD*%
D11*
%TO.C,D30*%
X76937500Y-74468750D03*
X76937500Y-71168750D03*
%TD*%
D12*
%TO.C,Y1*%
X157100000Y-97900000D03*
D13*
X159250000Y-97900000D03*
X159250000Y-99450000D03*
X157100000Y-99450000D03*
%TD*%
D14*
%TO.C,D65*%
X46375001Y-76475000D03*
X48874999Y-76475000D03*
%TD*%
D11*
%TO.C,D20*%
X148375000Y-55418750D03*
X148375000Y-52118750D03*
%TD*%
%TO.C,D2*%
X62650000Y-36368750D03*
X62650000Y-33068750D03*
%TD*%
D10*
%TO.C,C12*%
X135625000Y-47350000D03*
X133725000Y-47350000D03*
%TD*%
D11*
%TO.C,D66*%
X67412500Y-93518750D03*
X67412500Y-90218750D03*
%TD*%
%TO.C,D55*%
X76306250Y-112568750D03*
X76306250Y-109268750D03*
%TD*%
%TO.C,D23*%
X205525000Y-55418750D03*
X205525000Y-52118750D03*
%TD*%
D15*
%TO.C,C16*%
X119400000Y-109350001D03*
X119400000Y-111249999D03*
%TD*%
D11*
%TO.C,D3*%
X81700000Y-36368750D03*
X81700000Y-33068750D03*
%TD*%
%TO.C,D62*%
X273737500Y-93518750D03*
X273737500Y-90218750D03*
%TD*%
%TO.C,D22*%
X186475000Y-55418750D03*
X186475000Y-52118750D03*
%TD*%
D16*
%TO.C,U2*%
X137712501Y-51287500D03*
X135812501Y-51287500D03*
X136762501Y-49412499D03*
%TD*%
D17*
%TO.C,C5*%
X130975001Y-103937214D03*
X132874999Y-103937214D03*
%TD*%
D11*
%TO.C,D44*%
X105512500Y-93518750D03*
X105512500Y-90218750D03*
%TD*%
%TO.C,D24*%
X224575000Y-55418750D03*
X224575000Y-52118750D03*
%TD*%
%TO.C,D14*%
X280881250Y-36368750D03*
X280881250Y-33068750D03*
%TD*%
%TO.C,D17*%
X91225000Y-55418750D03*
X91225000Y-52118750D03*
%TD*%
%TO.C,D60*%
X288237500Y-112568750D03*
X288237500Y-109268750D03*
%TD*%
%TO.C,D45*%
X124562500Y-93518750D03*
X124562500Y-90218750D03*
%TD*%
%TO.C,D29*%
X50743750Y-74468750D03*
X50743750Y-71168750D03*
%TD*%
%TO.C,D58*%
X236481250Y-112568750D03*
X236481250Y-109268750D03*
%TD*%
%TO.C,D13*%
X272200000Y-36368750D03*
X272200000Y-33068750D03*
%TD*%
%TO.C,D39*%
X248387500Y-74468750D03*
X248387500Y-71168750D03*
%TD*%
%TO.C,D18*%
X110275000Y-55418750D03*
X110275000Y-52118750D03*
%TD*%
D18*
%TO.C,R6*%
X117450000Y-107762500D03*
X117450000Y-105937500D03*
%TD*%
D11*
%TO.C,D11*%
X234100000Y-36368750D03*
X234100000Y-33068750D03*
%TD*%
%TO.C,D26*%
X262675000Y-55418750D03*
X262675000Y-52118750D03*
%TD*%
%TO.C,D31*%
X95987500Y-74468750D03*
X95987500Y-71168750D03*
%TD*%
%TO.C,D4*%
X100750000Y-36368750D03*
X100750000Y-33068750D03*
%TD*%
%TO.C,D7*%
X157900000Y-36368750D03*
X157900000Y-33068750D03*
%TD*%
%TO.C,D40*%
X267437500Y-74468750D03*
X267437500Y-71168750D03*
%TD*%
%TO.C,D56*%
X100012500Y-112568750D03*
X100012500Y-109268750D03*
%TD*%
%TO.C,D52*%
X257912500Y-93518750D03*
X257912500Y-90218750D03*
%TD*%
%TO.C,D46*%
X143612500Y-93518750D03*
X143612500Y-90218750D03*
%TD*%
%TO.C,D61*%
X312050000Y-112568750D03*
X312050000Y-109268750D03*
%TD*%
%TO.C,D36*%
X191237500Y-74468750D03*
X191237500Y-71168750D03*
%TD*%
%TO.C,D6*%
X138850000Y-36368750D03*
X138850000Y-33068750D03*
%TD*%
%TO.C,D43*%
X86462500Y-93518750D03*
X86462500Y-90218750D03*
%TD*%
%TO.C,D51*%
X238862500Y-93518750D03*
X238862500Y-90218750D03*
%TD*%
D19*
%TO.C,U3*%
X121720000Y-104525000D03*
X122990000Y-104525000D03*
X124260000Y-104525000D03*
X125530000Y-104525000D03*
X125530000Y-111725000D03*
X124260000Y-111725000D03*
X122990000Y-111725000D03*
X121720000Y-111725000D03*
%TD*%
D11*
%TO.C,D54*%
X52493750Y-112568750D03*
X52493750Y-109268750D03*
%TD*%
%TO.C,D42*%
X55506250Y-93518750D03*
X55506250Y-90218750D03*
%TD*%
%TO.C,D32*%
X115037500Y-74468750D03*
X115037500Y-71168750D03*
%TD*%
D20*
%TO.C,C14*%
X155175000Y-99600000D03*
X155175000Y-97700002D03*
%TD*%
D11*
%TO.C,D12*%
X253150000Y-36368750D03*
X253150000Y-33068750D03*
%TD*%
%TO.C,D28*%
X305537500Y-55175000D03*
X305537500Y-51875000D03*
%TD*%
D20*
%TO.C,C13*%
X133950000Y-51299999D03*
X133950000Y-49400001D03*
%TD*%
D11*
%TO.C,D15*%
X48362500Y-55418750D03*
X48362500Y-52118750D03*
%TD*%
D15*
%TO.C,C9*%
X130800000Y-111525001D03*
X130800000Y-113424999D03*
%TD*%
D20*
%TO.C,C1*%
X142675000Y-113424998D03*
X142675000Y-111525000D03*
%TD*%
D11*
%TO.C,D35*%
X172187500Y-74468750D03*
X172187500Y-71168750D03*
%TD*%
D15*
%TO.C,C8*%
X140675000Y-111525000D03*
X140675000Y-113424998D03*
%TD*%
D11*
%TO.C,D8*%
X176950000Y-36368750D03*
X176950000Y-33068750D03*
%TD*%
%TO.C,D25*%
X243625000Y-55418750D03*
X243625000Y-52118750D03*
%TD*%
%TO.C,D27*%
X281725000Y-55418750D03*
X281725000Y-52118750D03*
%TD*%
%TO.C,D53*%
X310300000Y-93518750D03*
X310300000Y-90218750D03*
%TD*%
D17*
%TO.C,C10*%
X150225001Y-99675000D03*
X152124999Y-99675000D03*
%TD*%
D21*
%TO.C,D63*%
X308275000Y-55425000D03*
X308275000Y-58725000D03*
%TD*%
D11*
%TO.C,D19*%
X129325000Y-55418750D03*
X129325000Y-52118750D03*
%TD*%
%TO.C,D41*%
X303225000Y-74468750D03*
X303225000Y-71168750D03*
%TD*%
D22*
%TO.C,U1*%
X141176427Y-103035653D03*
X140274866Y-103937214D03*
X142077988Y-103937214D03*
X141176427Y-104838775D03*
D23*
X136907270Y-103345012D03*
X137190113Y-103062169D03*
X137472955Y-102779327D03*
X137755798Y-102496484D03*
X138038641Y-102213641D03*
X138321483Y-101930799D03*
X138604326Y-101647956D03*
X138887169Y-101365113D03*
X139170012Y-101082270D03*
X139452854Y-100799428D03*
X139735697Y-100516585D03*
X140018540Y-100233742D03*
X140301382Y-99950900D03*
X140584225Y-99668057D03*
D24*
X141768629Y-99668057D03*
X142051472Y-99950900D03*
X142334314Y-100233742D03*
X142617157Y-100516585D03*
X142900000Y-100799428D03*
X143182842Y-101082270D03*
X143465685Y-101365113D03*
X143748528Y-101647956D03*
X144031371Y-101930799D03*
X144314213Y-102213641D03*
X144597056Y-102496484D03*
X144879899Y-102779327D03*
X145162741Y-103062169D03*
X145445584Y-103345012D03*
D23*
X145445584Y-104529416D03*
X145162741Y-104812259D03*
X144879899Y-105095101D03*
X144597056Y-105377944D03*
X144314213Y-105660787D03*
X144031371Y-105943629D03*
X143748528Y-106226472D03*
X143465685Y-106509315D03*
X143182842Y-106792158D03*
X142900000Y-107075000D03*
X142617157Y-107357843D03*
X142334314Y-107640686D03*
X142051472Y-107923528D03*
X141768629Y-108206371D03*
D24*
X140584225Y-108206371D03*
X140301382Y-107923528D03*
X140018540Y-107640686D03*
X139735697Y-107357843D03*
X139452854Y-107075000D03*
X139170012Y-106792158D03*
X138887169Y-106509315D03*
X138604326Y-106226472D03*
X138321483Y-105943629D03*
X138038641Y-105660787D03*
X137755798Y-105377944D03*
X137472955Y-105095101D03*
X137190113Y-104812259D03*
X136907270Y-104529416D03*
%TD*%
D20*
%TO.C,C2*%
X144675000Y-113424998D03*
X144675000Y-111525000D03*
%TD*%
D11*
%TO.C,D57*%
X176950000Y-112568750D03*
X176950000Y-109268750D03*
%TD*%
D20*
%TO.C,C3*%
X132800000Y-113424999D03*
X132800000Y-111525001D03*
%TD*%
D11*
%TO.C,D10*%
X215050000Y-36368750D03*
X215050000Y-33068750D03*
%TD*%
D17*
%TO.C,C6*%
X130900001Y-97750000D03*
X132799999Y-97750000D03*
%TD*%
D25*
%TO.C,R2*%
X136704327Y-111545342D03*
X136704327Y-113370342D03*
%TD*%
D11*
%TO.C,D16*%
X72175000Y-55418750D03*
X72175000Y-52118750D03*
%TD*%
%TO.C,D48*%
X181712500Y-93518750D03*
X181712500Y-90218750D03*
%TD*%
%TO.C,D5*%
X119800000Y-36368750D03*
X119800000Y-33068750D03*
%TD*%
D18*
%TO.C,R1*%
X134779327Y-113370342D03*
X134779327Y-111545342D03*
%TD*%
D15*
%TO.C,C15*%
X161200000Y-97775001D03*
X161200000Y-99674999D03*
%TD*%
D11*
%TO.C,D37*%
X210287500Y-74468750D03*
X210287500Y-71168750D03*
%TD*%
%TO.C,D64*%
X310157813Y-36368750D03*
X310157813Y-33068750D03*
%TD*%
%TO.C,D59*%
X264425000Y-112568750D03*
X264425000Y-109268750D03*
%TD*%
%TO.C,D21*%
X167425000Y-55418750D03*
X167425000Y-52118750D03*
%TD*%
%TO.C,D50*%
X219812500Y-93518750D03*
X219812500Y-90218750D03*
%TD*%
%TO.C,D9*%
X196000000Y-36368750D03*
X196000000Y-33068750D03*
%TD*%
D18*
%TO.C,R5*%
X119400000Y-107762500D03*
X119400000Y-105937500D03*
%TD*%
D11*
%TO.C,D38*%
X229337500Y-74468750D03*
X229337500Y-71168750D03*
%TD*%
D15*
%TO.C,C11*%
X138675000Y-111525001D03*
X138675000Y-113424999D03*
%TD*%
D21*
%TO.C,D1*%
X43600000Y-33068750D03*
X43600000Y-36368750D03*
%TD*%
D11*
%TO.C,D34*%
X153137500Y-74468750D03*
X153137500Y-71168750D03*
%TD*%
D10*
%TO.C,C4*%
X152124999Y-106825000D03*
X150225001Y-106825000D03*
%TD*%
D11*
%TO.C,D49*%
X200762500Y-93518750D03*
X200762500Y-90218750D03*
%TD*%
D26*
%TO.C,R3*%
X51125000Y-76475000D03*
X52950000Y-76475000D03*
%TD*%
D27*
%TO.C,BOOTSEL1*%
X111431251Y-105917500D03*
X111431251Y-111917500D03*
X115181251Y-105917500D03*
X115181251Y-111917500D03*
%TD*%
D11*
%TO.C,D33*%
X134087500Y-74468750D03*
X134087500Y-71168750D03*
%TD*%
%TO.C,D47*%
X162662500Y-93518750D03*
X162662500Y-90218750D03*
%TD*%
D18*
%TO.C,R4*%
X163200000Y-99637500D03*
X163200000Y-97812500D03*
%TD*%
M02*
