M48
; DRILL file {KiCad 8.0.1} date 2025-05-08T03:48:14+0900
; FORMAT={-:-/ absolute / metric / decimal}
; #@! TF.CreationDate,2025-05-08T03:48:14+09:00
; #@! TF.GenerationSoftware,Kicad,Pcbnew,8.0.1
; #@! TF.FileFunction,NonPlated,1,2,NPTH
FMAT,2
METRIC
; #@! TA.AperFunction,NonPlated,NPTH,ComponentDrill
T1C1.750
; #@! TA.AperFunction,NonPlated,NPTH,ComponentDrill
T2C3.048
; #@! TA.AperFunction,NonPlated,NPTH,ComponentDrill
T3C3.988
; #@! TA.AperFunction,NonPlated,NPTH,ComponentDrill
T4C4.000
%
G90
G05
T1
X35.401Y-33.337
X37.782Y-71.438
X37.782Y-90.487
X37.782Y-109.537
X40.164Y-52.387
X40.164Y-109.537
X42.545Y-71.438
X45.561Y-33.337
X47.307Y-90.487
X47.942Y-71.438
X47.942Y-90.487
X47.942Y-109.537
X50.324Y-52.387
X50.324Y-109.537
X52.705Y-71.438
X54.451Y-33.337
X57.467Y-90.487
X59.214Y-90.487
X61.595Y-109.537
X63.976Y-52.387
X63.976Y-109.537
X64.611Y-33.337
X68.739Y-71.438
X69.374Y-90.487
X71.755Y-109.537
X73.501Y-33.337
X74.136Y-52.387
X74.136Y-109.537
X78.264Y-90.487
X78.899Y-71.438
X83.026Y-52.387
X83.661Y-33.337
X85.407Y-109.537
X87.789Y-71.438
X87.789Y-109.537
X88.424Y-90.487
X92.551Y-33.337
X93.186Y-52.387
X95.567Y-109.537
X97.314Y-90.487
X97.949Y-71.438
X97.949Y-109.537
X102.076Y-52.387
X102.711Y-33.337
X106.839Y-71.438
X107.474Y-90.487
X111.601Y-33.337
X112.236Y-52.387
X116.364Y-90.487
X116.999Y-71.438
X121.126Y-52.387
X121.761Y-33.337
X125.889Y-71.438
X126.524Y-90.487
X130.651Y-33.337
X131.286Y-52.387
X135.414Y-90.487
X136.049Y-71.438
X140.176Y-52.387
X140.811Y-33.337
X144.939Y-71.438
X145.574Y-90.487
X149.701Y-33.337
X150.336Y-52.387
X154.464Y-90.487
X155.099Y-71.438
X156.845Y-109.537
X159.226Y-52.387
X159.861Y-33.337
X163.989Y-71.438
X164.624Y-90.487
X167.005Y-109.537
X168.751Y-33.337
X168.751Y-109.537
X169.386Y-52.387
X173.514Y-90.487
X174.149Y-71.438
X178.276Y-52.387
X178.911Y-33.337
X178.911Y-109.537
X183.039Y-71.438
X183.674Y-90.487
X187.801Y-33.337
X188.436Y-52.387
X192.564Y-90.487
X193.199Y-71.438
X197.326Y-52.387
X197.961Y-33.337
X202.089Y-71.438
X202.724Y-90.487
X206.851Y-33.337
X207.486Y-52.387
X211.614Y-90.487
X212.249Y-71.438
X216.376Y-52.387
X217.011Y-33.337
X221.139Y-71.438
X221.774Y-90.487
X225.901Y-33.337
X226.536Y-52.387
X228.282Y-109.537
X230.664Y-90.487
X231.299Y-71.438
X235.426Y-52.387
X236.061Y-33.337
X238.442Y-109.537
X240.189Y-71.438
X240.824Y-90.487
X244.951Y-33.337
X245.586Y-52.387
X249.714Y-90.487
X249.714Y-109.537
X250.349Y-71.438
X252.095Y-109.537
X254.476Y-52.387
X255.111Y-33.337
X259.239Y-71.438
X259.874Y-90.487
X259.874Y-109.537
X262.255Y-109.537
X264.001Y-33.337
X264.636Y-52.387
X269.399Y-71.438
X273.526Y-52.387
X273.526Y-109.537
X274.161Y-33.337
X275.907Y-90.487
X275.907Y-109.537
X278.289Y-71.438
X283.051Y-33.337
X283.686Y-52.387
X283.686Y-109.537
X285.433Y-90.487
X286.067Y-90.487
X286.067Y-109.537
X288.449Y-71.438
X290.195Y-71.438
X292.576Y-33.337
X293.211Y-33.337
X295.592Y-90.487
X297.339Y-52.387
X297.339Y-109.537
X299.72Y-109.537
X300.355Y-71.438
X302.101Y-33.337
X302.101Y-90.487
X302.736Y-33.337
X304.8Y-56.833
X304.8Y-66.992
X307.499Y-52.387
X307.499Y-109.537
X309.88Y-109.537
X312.261Y-33.337
X312.261Y-90.487
T2
X40.45Y-83.502
X64.325Y-83.502
X111.925Y-116.522
X116.681Y-116.522
X211.925Y-116.522
X230.981Y-116.522
X278.575Y-83.502
X283.337Y-64.453
X285.718Y-26.352
X302.45Y-83.502
X307.213Y-64.453
X309.594Y-26.352
X311.785Y-49.974
X311.785Y-73.85
T3
X40.45Y-98.712
X64.325Y-98.712
X111.925Y-101.312
X116.681Y-101.312
X211.925Y-101.312
X230.981Y-101.312
X278.575Y-98.712
X283.337Y-79.662
X285.718Y-41.562
X296.575Y-49.974
X296.575Y-73.85
X302.45Y-98.712
X307.213Y-79.662
X309.594Y-41.562
T4
X40.481Y-33.337
X42.862Y-71.438
X42.862Y-90.487
X42.862Y-109.537
X45.244Y-52.387
X45.244Y-109.537
X47.625Y-71.438
X52.387Y-90.487
X59.531Y-33.337
X64.294Y-90.487
X66.675Y-109.537
X69.056Y-52.387
X69.056Y-109.537
X73.819Y-71.438
X78.581Y-33.337
X83.344Y-90.487
X88.106Y-52.387
X90.487Y-109.537
X92.869Y-71.438
X92.869Y-109.537
X97.631Y-33.337
X102.394Y-90.487
X107.156Y-52.387
X111.919Y-71.438
X116.681Y-33.337
X121.444Y-90.487
X126.206Y-52.387
X130.969Y-71.438
X135.731Y-33.337
X140.494Y-90.487
X145.256Y-52.387
X150.019Y-71.438
X154.781Y-33.337
X159.544Y-90.487
X161.925Y-109.537
X164.306Y-52.387
X169.069Y-71.438
X173.831Y-33.337
X173.831Y-109.537
X178.594Y-90.487
X183.356Y-52.387
X188.119Y-71.438
X192.881Y-33.337
X197.644Y-90.487
X202.406Y-52.387
X207.169Y-71.438
X211.931Y-33.337
X216.694Y-90.487
X221.456Y-52.387
X226.219Y-71.438
X230.981Y-33.337
X233.362Y-109.537
X235.744Y-90.487
X240.506Y-52.387
X245.269Y-71.438
X250.031Y-33.337
X254.794Y-90.487
X254.794Y-109.537
X257.175Y-109.537
X259.556Y-52.387
X264.319Y-71.438
X269.081Y-33.337
X278.606Y-52.387
X278.606Y-109.537
X280.988Y-90.487
X280.988Y-109.537
X283.369Y-71.438
X288.131Y-33.337
X290.512Y-90.487
X295.275Y-71.438
X297.656Y-33.337
X302.419Y-52.387
X302.419Y-109.537
X304.8Y-61.912
X304.8Y-109.537
X307.181Y-33.337
X307.181Y-90.487
M30
